<ttFont>
<head>
    <!-- Most of this table will be recalculated by the compiler -->
    <tableVersion value="1.0"/>
    <fontRevision value="2.004"/>
    <checkSumAdjustment value="0xc953e2ef"/>
    <magicNumber value="0x5f0f3cf5"/>
    <flags value="00000000 00000011"/>
    <unitsPerEm value="1000"/>
    <created value="Thu Oct  8 10:02:33 2009"/>
    <modified value="Thu Oct  8 10:02:33 2009"/>
    <xMin value="-491"/>
    <yMin value="-316"/>
    <xMax value="834"/>
    <yMax value="1016"/>
    <macStyle value="00000000 00000010"/>
    <lowestRecPPEM value="3"/>
    <fontDirectionHint value="2"/>
    <indexToLocFormat value="0"/>
    <glyphDataFormat value="0"/>
  </head>
          <CharString index="0">
            rmoveto
            21 -16 12 -17 -7 -4 -2 -3 -8 vhcurveto
            -149 -60 rlineto
            -15 -6 -12 -5 -18 vvcurveto
            -9 3 -31 27 6 3 2 3 9 vhcurveto
            150 59 rlineto
            23 9 7 13 15 vvcurveto
            endchar
          </CharString>
          <CharString index="1">
            543 144 rmoveto
            -9 callsubr
            -12 5 23 -41 54 hhcurveto
            50 23 41 13 8 hvcurveto
            19 33 14 55 8 vvcurveto
            -164 142 rmoveto
            -115 -84 -116 -60 -44 -7 68 21 113 84 119 60 37 14 -45 -45 vhcurveto
            return
          </CharString>
          <CharString index="2">
            506 33 rmoveto
            28 -26 0 -26 vhcurveto
            9 527 rlineto
            35 -18 0 -27 -24 -21 0 -33 -16 vhcurveto
            -255 -529 rlineto
            -17 -27 0 -3 -5 hvcurveto
            -18 -7 -1 -23 0 28 callgsubr
            15 vhcurveto
            102 hlineto
            16 28 71 callgsubr
            -24 hvcurveto
            50 104 rlineto
            162 hlineto
            -2 -104 rlineto
            -15 -26 0 -2 -5 hvcurveto
            -13 -5 -6 -12 -14 vvcurveto
            -28 26 0 16 vhcurveto
            102 hlineto
            17 27 0 33 hvcurveto
            -121 193 rmoveto
            -132 hlineto
            144 314 1 -1 rlineto
            return
          </CharString>
          <CharString index="3">
            -77 callsubr
            -20 -82 0 108 25 1 1 19 hvcurveto
            33 hlineto
            70 62 9 17 38 hvcurveto
            79 34 7 63 21 vvcurveto
            59 -51 45 -73 -125 -129 -127 -145 -58 20 -41 27 -26 vhcurveto
            -46 45 45 0 38 -1 callgsubr
            -82 259 rmoveto
            -71 -105 -12 -86 vhcurveto
            -30 hlineto
            78 35 72 48 57 hhcurveto
            34 23 -17 -26 hvcurveto
            return
          </CharString>
          <CharString index="4">
            rmoveto
            13 -12 19 -19 -9 -5 -4 -7 -10 vhcurveto
            hintmask 00100000
            -10 -14 -46 -34 -23 hhcurveto
            -6 -5 4 8 -6 hvcurveto
            hintmask 00010000
            21 -15 -17 22 -36 hhcurveto
            -42 -54 -39 -23 -29 hvcurveto
            -9 -6 -8 -6 -14 vvcurveto
            hintmask 00100000
            -17 14 -15 16 10 4 3 10 14 vhcurveto
            hintmask 00010000
            24 31 32 18 16 hhcurveto
            7 4 -5 -9 7 hvcurveto
            hintmask 00100000
            -91 callsubr
          </CharString>
          <CharString index="5">
            27 callgsubr
            85 -50 11 -118 -146 -40 -21 -107 -44 vhcurveto
            -17 callgsubr
            -45 68 rmoveto
            -97 -34 -22 -30 -110 hhcurveto
            -84 -24 18 51 71 56 203 14 41 hvcurveto
            106 34 26 21 105 hhcurveto
            82 28 -11 -57 -74 -63 -218 -8 -24 hvcurveto
            return
          </CharString>
          <CharString index="6">
            19 callsubr
            27 -59 callgsubr
            return
          </CharString>
          <CharString index="7">
            rmoveto
            -98 callsubr
            return
          </CharString>
          <CharString index="8">
            -100 callsubr
            endchar
          </CharString>
          <CharString index="9">
            26 -19 15 -22 -27 -22 -25 -23 -19 14 -22 28 21 27 18 30 vhcurveto
            return
          </CharString>
          <CharString index="10">
            rmoveto
            43 -29 15 -22 -35 -20 -31 -23 -16 11 -24 30 4 1 0 1 3 vhcurveto
            -21 -39 -33 -15 -22 -6 rrcurveto
            -5 -1 -14 -5 -16 vvcurveto
            -6 7 -17 17 34 94 61 79 vhcurveto
            endchar
          </CharString>
          <CharString index="11">
            557 242 rmoveto
            28 -27 0 -13 vhcurveto
            -119 hlineto
            -15 -27 0 -33 -28 27 -59 callgsubr
            34 hlineto
            -94 -34 -62 -65 -63 hhcurveto
            -70 -31 76 78 177 134 180 108 71 8 -73 -26 -10 -3 -22 0 hvcurveto
            -29 29 0 6 16 13 2 28 7 vhcurveto
            37 149 rlineto
            1 3 2 8 3 vvcurveto
            11 -8 17 -22 -16 -5 -7 -11 -9 vhcurveto
            -7 -9 -6 -10 -7 -9 rrcurveto
            20 -18 -36 26 -55 hhcurveto
            -155 -154 -216 -201 -124 64 -92 101 55 45 28 19 23 hvcurveto
            -36 -5 31 0 8 hhcurveto
            18 11 4 24 6 hvcurveto
            45 181 rlineto
            31 23 0 33 hvcurveto
            return
          </CharString>
          <CharString index="12">
            505 274 rmoveto
            106 -66 57 -75 -119 -118 -141 -139 -93 57 -70 84 116 121 134 146 vhcurveto
            -68 2 rmoveto
            -109 -91 -112 -76 -51 -23 48 52 112 92 109 75 55 19 -57 -43 vhcurveto
            return
          </CharString>
          <CharString index="13">
            579 336 rmoveto
            68 -71 33 -73 -18 -57 0 -58 -54 vhcurveto
            31 -13 -33 27 -45 hhcurveto
            -96 -25 -146 -4 -8 4 -20 30 29 3 13 22 6 hvcurveto
            37 9 11 45 28 hhcurveto
            9 20 -4 -28 -6 0 -2 -4 -15 hvcurveto
            -68 -274 rlineto
            -4 -15 0 -2 -3 36 callgsubr
            5 18 49 12 vhcurveto
            27 108 25 73 28 51 rrcurveto
            45 26 32 38 50 hhcurveto
            13 39 -2 -22 20 hvcurveto
            -6 -5 -12 -8 -25 vvcurveto
            -24 19 -16 22 18 33 12 50 vhcurveto
            return
          </CharString>
          <CharString index="14">
            438 -13 rmoveto
            97 390 rlineto
            4 15 0 2 4 vvcurveto
            25 -20 8 -13 -28 -6 -25 -15 -4 vhcurveto
            -19 -73 rlineto
            -120 -29 -36 -143 -89 hhcurveto
            -51 -2 43 19 32 9 37 32 87 hvcurveto
            10 26 12 33 20 vvcurveto
            56 -41 29 -42 -96 -46 -125 -25 -8 4 -20 30 28 3 13 16 5 vhcurveto
            51 15 27 37 28 hhcurveto
            13 4 -11 -11 -10 -3 -8 -10 -25 hvcurveto
            -37 -100 -14 -48 -45 vvcurveto
            -92 63 -32 57 44 33 22 2 4 vhcurveto
            -100 -21 -69 -85 -69 hhcurveto
            -16 -12 6 15 -6 hvcurveto
            21 15 0 24 0 vvcurveto
            return
          </CharString>
          <CharString index="15">
            rmoveto
            23 -17 14 -20 -25 -19 -23 -21 -1 vhcurveto
            -17 1 12 -20 25 hhcurveto
            19 25 17 27 hvcurveto
            179 hmoveto
            23 -17 14 -20 -25 -19 -23 -21 -1 vhcurveto
            -17 1 12 -20 25 hhcurveto
            19 25 17 27 hvcurveto
            return
          </CharString>
          <CharString index="16">
            -20 15 17 -21 35 hhcurveto
            25 28 12 20 31 hvcurveto
            31 20 28 17 19 vvcurveto
            endchar
          </CharString>
          <CharString index="17">
            652 583 rmoveto
            28 -27 0 -13 vhcurveto
            21 callsubr
            28 0 11 hvcurveto
            -100 -138 -23 -32 -23 -32 -17 -34 rlinecurve
            -2 22 0 2 -45 212 rrcurveto
            30 24 0 33 28 -27 0 -13 hvcurveto
            -104 -23 callgsubr
            31 hvcurveto
            71 -306 -46 -183 -53 callsubr
            46 183 224 306 11 callsubr
            return
          </CharString>
          <CharString index="18">
            rmoveto
            13 -12 19 -19 -9 -5 -4 -7 -10 vhcurveto
            hintmask 10000000
            -10 -14 -46 -34 -23 hhcurveto
            -6 -5 4 8 -6 hvcurveto
            hintmask 01000000
            21 -15 -17 22 -36 hhcurveto
            -42 -54 -39 -23 -29 hvcurveto
            -9 -6 -8 -6 -14 vvcurveto
            hintmask 10000000
            -17 14 -15 16 10 4 3 10 14 vhcurveto
            hintmask 01000000
            24 31 32 18 16 hhcurveto
            7 4 -5 -9 7 hvcurveto
            hintmask 10000000
            -91 callsubr
          </CharString>
          <CharString index="19">
            551 136 rmoveto
            1 vlineto
            1 2 0 4 0 vvcurveto
            13 -9 12 -13 3 vhcurveto
            -6 1 rlineto
            -14 hlineto
            -13 -11 -10 -12 -3 hvcurveto
            -70 -17 -13 -25 -11 hhcurveto
            -11 -7 8 20 5 1 6 1 6 hvcurveto
            66 264 46 11 42 36 11 46 rlinecurve
            2 8 2 9 8 vvcurveto
            23 -12 25 -33 vhcurveto
            -37 -1 -17 -27 -28 vvcurveto
            -13 6 -13 10 -8 vhcurveto
            -8 -7 -9 -5 -10 -3 rrcurveto
            4 -6 -7 1 -6 hhcurveto
            -16 -15 -10 -168 -42 hvcurveto
            -126 -32 -35 -71 -58 hhcurveto
            -18 -12 9 13 -6 hvcurveto
            -3 10 -2 11 13 vvcurveto
            18 3 20 6 23 vhcurveto
            8 31 15 43 24 68 rrcurveto
            hintmask 01000100
            4 13 3 14 13 vvcurveto
            45 -30 37 -47 -67 -48 -68 -74 -18 vhcurveto
            -1 -2 15 callgsubr
            -13 8 -11 13 -3 vhcurveto
            -1 2 2 0 16 hhcurveto
            13 11 9 12 3 hvcurveto
            59 15 25 36 25 hhcurveto
            6 3 -3 -15 -7 -1 -8 -4 -10 hvcurveto
            -24 -68 -15 -45 -9 -33 rrcurveto
            hintmask 10001000
            -6 -26 -4 -24 -23 vvcurveto
            -21 4 -21 8 -19 vhcurveto
            17 -37 38 -20 42 -1 rrcurveto
            39 33 16 27 27 hvcurveto
            -25 14 27 -18 34 hhcurveto
            65 1 25 63 20 78 rrcurveto
            return
          </CharString>
          <CharString index="20">
            rmoveto
            111 447 -67 callsubr
            -18 -15 -14 -18 -4 vhcurveto
            40 -32 -41 7 -24 hhcurveto
            -115 -113 -140 -138 -100 60 -59 73 33 37 13 24 34 hvcurveto
            -28 -113 rlineto
            -12 -4 -32 -79 -109 hhcurveto
            -16 -11 0 2 -17 hvcurveto
            96 callgsubr
            8 vvcurveto
            20 -16 20 -25 -27 -23 -22 -31 -64 87 0 44 146 59 98 52 13 vhcurveto
            12 358 rmoveto
            -106 -86 -113 -72 vhcurveto
            return
          </CharString>
          <CharString index="21">
            rmoveto
            23 -16 14 -20 -25 -20 -23 -21 -17 12 -20 25 19 26 17 27 -1 vhcurveto
            151 hmoveto
            23 -16 14 -20 -25 -20 -23 -21 -17 12 -20 25 19 26 17 27 -1 vhcurveto
            return
          </CharString>
          <CharString index="22">
            529 162 rmoveto
            12 -7 16 -27 69 callgsubr
            -73 -23 -51 -28 -32 hhcurveto
            -18 -14 8 14 -24 hvcurveto
            -30 16 -16 2 -12 2 19 20 13 13 82 70 rrcurveto
            129 111 46 70 20 77 callgsubr
            -23 -3 -5 -21 -12 vhcurveto
            -25 -16 -6 0 -4 hhcurveto
            -13 -13 10 11 -18 hvcurveto
            15 -23 -21 15 -33 hhcurveto
            -89 -53 -97 -32 -20 17 -8 18 26 4 13 13 4 hvcurveto
            37 12 31 25 27 hhcurveto
            15 14 -6 -12 21 hvcurveto
            21 -13 2 0 12 -5 -27 -28 -43 -37 -36 -32 -34 -29 -35 -31 -30 -30 rrcurveto
            -50 -50 -41 -56 -17 vvcurveto
            -11 6 -17 29 20 5 5 12 8 vhcurveto
            25 17 29 9 15 hhcurveto
            15 11 -6 -15 22 hvcurveto
            -16 23 22 -14 33 hhcurveto
            110 68 128 40 hvcurveto
            return
          </CharString>
          <CharString index="23">
            479 -23 callsubr
            -57 callsubr
            -25 -5 -12 -14 -4 vhcurveto
            -21 -6 -20 -70 -43 hhcurveto
            -6 -49 3 34 5 0 1 4 14 hvcurveto
            114 454 rlineto
            25 callgsubr
            6 vvcurveto
            -62 callsubr
            -13 vhcurveto
            -128 -57 callgsubr
            91 hlineto
            -107 -429 rlineto
            -4 -16 0 -8 -6 vvcurveto
            -70 71 -27 52 102 37 134 16 vhcurveto
            return
          </CharString>
          <CharString index="24">
            659 583 rmoveto
            28 -27 0 -13 vhcurveto
            -79 -96 callgsubr
            18 hlineto
            -124 -323 -56 -151 rlineto
            -1 hlineto
            5 22 3 61 2 31 4 143 rcurveline
            34 -21 0 -15 -36 -4 -9 -66 -32 vhcurveto
            -17 -35 -66 -140 -13 -41 rrcurveto
            -1 hlineto
            9 42 3 33 6 49 40 350 rcurveline
            32 -72 callgsubr
            59 callgsubr
            -7 2 -19 28 -2 hvcurveto
            -57 -520 -2 -13 rlineto
            -25 24 0 9 35 5 11 61 30 vhcurveto
            52 112 10 20 35 74 8 24 rlinecurve
            1 -1 -2 -18 -2 -41 -1 -57 rlinecurve
            -4 -142 rlineto
            -26 0 -17 35 34 9 21 14 5 vhcurveto
            203 523 rlineto
            21 25 0 33 hvcurveto
            return
          </CharString>
          <CharString index="25">
            528 107 rmoveto
            13 34 48 159 69 vvcurveto
            16 0 52 -39 -18 -18 -16 -20 -7 2 -6 2 -4 vhcurveto
            9 -18 0 -21 -5 vvcurveto
            -47 -35 -116 -5 -16 vhcurveto
            -65 -21 -23 -41 -37 hhcurveto
            -50 -7 38 26 22 7 29 6 21 hvcurveto
            11 46 0 2 11 42 17 67 rcurveline
            4 18 9 34 3 91 callsubr
            -23 -5 -21 -9 -2 vhcurveto
            -50 -202 rlineto
            -20 -5 -31 -124 -55 hhcurveto
            -62 0 50 17 31 7 21 7 18 hvcurveto
            26 73 rlineto
            11 30 6 17 32 vvcurveto
            85 -63 2 -8 -31 -1 -33 0 -3 1 -22 27 -3 vhcurveto
            8 -1 10 -1 -29 vvcurveto
            -20 -4 -11 -10 -29 vhcurveto
            -9 -24 -8 -22 -6 -19 rrcurveto
            return
          </CharString>
          <CharString index="26">
            rmoveto
            17 16 4 23 -11 14 -56 65 rcurveline
            -12 14 -24 -1 -17 -15 -18 -16 -5 -23 12 -14 57 -65 rcurveline
            12 -14 23 1 18 15 rrcurveto
            -194 hmoveto
            17 16 4 23 -11 14 -56 65 rcurveline
            -12 14 -24 -1 -17 -15 -18 -16 -5 -23 12 -14 57 -65 rcurveline
            12 -14 23 1 18 15 rrcurveto
            endchar
          </CharString>
          <CharString index="27">
            519 146 rmoveto
            11 -5 17 -30 -28 -3 -9 -35 -9 vhcurveto
            -17 -69 rlineto
            -274 hlineto
            453 489 rlineto
            10 10 8 13 16 vvcurveto
            22 -20 0 -15 vhcurveto
            -343 hlineto
            -23 -11 0 -31 -8 hvcurveto
            -20 -81 rlineto
            -3 -10 48 callsubr
            -28 29 0 6 20 9 6 22 6 vhcurveto
            16 66 rlineto
            258 hlineto
            -451 -487 rlineto
            -9 -10 -11 -11 -20 vvcurveto
            -22 19 0 16 vhcurveto
            360 hlineto
            17 12 0 15 8 hvcurveto
            3 6 30 120 5 vvcurveto
            return
          </CharString>
          <CharString index="28">
            -92 callsubr
            endchar
          </CharString>
          <CharString index="29">
            563 456 rmoveto
            2 9 1 9 8 vvcurveto
            23 -12 25 -33 vhcurveto
            -38 -1 -16 -27 -28 vvcurveto
            -15 7 -14 13 -8 vhcurveto
            -8 -13 -8 -6 -11 -3 rrcurveto
            -7 -2 -15 0 0 vvcurveto
            15 -21 -26 8 -28 hhcurveto
            -49 -52 -26 -38 -40 hvcurveto
            -44 -42 -29 -52 -14 -56 rrcurveto
            -6 -22 -3 -22 -21 vvcurveto
            -33 7 -31 15 -27 vhcurveto
            -44 24 43 -28 52 hhcurveto
            50 51 26 39 41 hvcurveto
            43 41 30 53 14 55 rrcurveto
            return
          </CharString>
          <CharString index="30">
            529 74 rmoveto
            17 -19 19 -16 -11 -7 -6 -3 -4 vhcurveto
            -18 -20 -33 -28 -110 hhcurveto
            return
          </CharString>
          <CharString index="31">
            -51 callsubr
            -122 67 -101 116 148 93 131 53 18 -12 10 -22 -11 -16 0 -21 -7 hvcurveto
            -112 -36 -99 -18 -32 hhcurveto
            -82 -38 80 83 171 138 177 122 57 35 -41 -63 hvcurveto
            -20 -2 -1 -6 vvcurveto
            -29 29 0 6 16 13 2 28 7 vhcurveto
            return
          </CharString>
          <CharString index="32">
            5 22 3 22 22 vvcurveto
            32 -7 30 -14 27 vhcurveto
            39 13 31 38 10 42 rrcurveto
            -135 -234 rmoveto
            -11 -44 -23 -42 -33 -34 rrcurveto
            -29 -29 -34 -18 -30 hhcurveto
            -27 -20 15 25 -13 hvcurveto
            -8 17 -5 20 23 vvcurveto
            17 3 18 5 18 vhcurveto
            11 45 22 42 33 33 rrcurveto
            29 29 35 18 29 hhcurveto
            27 21 -15 -24 12 hvcurveto
            9 -18 4 -20 -22 vvcurveto
            -17 -2 -18 -5 -19 vhcurveto
            return
          </CharString>
          <CharString index="33">
            rmoveto
            18 16 5 23 -12 14 -57 65 rcurveline
            -12 14 -23 -1 -18 -15 -18 -16 -4 -23 12 -14 56 -65 rcurveline
            12 -14 24 1 17 15 rrcurveto
            -194 hmoveto
            18 16 5 23 -12 14 -57 65 rcurveline
            -12 14 -23 -1 -18 -15 -18 -16 -4 -23 12 -14 56 -65 rcurveline
            12 -14 24 1 17 15 rrcurveto
            endchar
          </CharString>
          <CharString index="34">
            8 10 -5 24 -8 7 -10 6 -25 -4 -6 -7 rrcurveto
            -18 -13 -25 -23 -23 hhcurveto
            -20 -28 16 27 return
          </CharString>
          <CharString index="35">
            504 33 rmoveto
            28 -26 0 -19 vhcurveto
            -93 297 201 192 rlineto
            21 callgsubr
            -88 hlineto
            -15 -27 0 -33 -10 5 -18 29 hvcurveto
            -278 -265 66 265 rlineto
            29 -87 callgsubr
            -101 -11 callgsubr
            100 17 callsubr
            28 -23 0 -32 hvcurveto
            34 134 121 116 78 -250 7 callsubr
            75 -4 callgsubr
            return
          </CharString>
          <CharString index="36">
            -77 callsubr
            -20 -83 0 107 109 98 105 86 18 17 -4 -14 12 hvcurveto
            -7 -5 -10 -8 -24 vvcurveto
            -27 20 -13 21 30 21 25 36 53 -48 42 -72 -129 -126 -135 -139 -58 21 -40 32 -31 vhcurveto
            -40 41 52 0 30 -1 callgsubr
            return
          </CharString>
          <CharString index="37">
            rmoveto
            73 -95 0 -70 -60 -74 0 -42 -36 vhcurveto
            -13 -14 -7 -20 -9 vvcurveto
            -6 4 -22 27 20 5 11 13 5 vhcurveto
            25 12 67 0 49 hhcurveto
            45 34 0 -11 25 hvcurveto
            -15 0 -23 30 25 7 20 20 vhcurveto
            endchar
          </CharString>
          <CharString index="38">
            654 -65 callsubr
            -48 hlineto
            -17 -24 0 -30 -18 hvcurveto
            -104 -178 -34 -58 -18 -31 -18 -38 rlinecurve
            -1 hlineto
            68 -22 240 -1 2 vhcurveto
            25 -4 -14 0 -59 hhcurveto
            -28 hlineto
            -13 -29 0 -33 -28 27 0 19 hvcurveto
            -68 callsubr
            -19 hlineto
            -15 -27 0 -33 -28 27 -59 callgsubr
            82 hlineto
            15 26 71 callgsubr
            -19 hvcurveto
            119 475 rlineto
            1 -16 hlineto
            -8 0 -20 10 -133 vhcurveto
            8 -90 rlineto
            -47 4 1 -18 29 hhcurveto
            0 29 1 17 30 vhcurveto
            120 206 25 41 0 2 25 49 rlinecurve
            1 hlineto
            -118 -472 rlineto
            -18 hlineto
            -15 -27 0 -33 -28 27 -59 callgsubr
            82 hlineto
            15 26 71 callgsubr
            -19 hvcurveto
            -47 callsubr
            19 -4 callgsubr
            return
          </CharString>
          <CharString index="39">
            -122 -24 callsubr
            return
          </CharString>
          <CharString index="40">
            rlineto
            4 15 0 2 3 vvcurveto
            20 -16 13 -17 return
          </CharString>
          <CharString index="41">
            rmoveto
            2 7 3 8 7 vvcurveto
            16 -12 24 -30 -40 -8 -39 -12 -2 vhcurveto
            -38 -202 rlineto
            -2 -8 48 callsubr
            0 0 -28 31 22 4 12 15 5 vhcurveto
            return
          </CharString>
          <CharString index="42">
            583 rmoveto
            -62 callsubr
            -13 vhcurveto
            return
          </CharString>
          <CharString index="43">
            525 263 rmoveto
            144 -118 118 -144 -145 -118 -118 -144 -145 118 -118 145 144 118 118 145 vhcurveto
            -38 hmoveto
            -124 -101 -101 -123 -124 -101 101 124 123 101 101 124 123 101 -101 -123 vhcurveto
            return
          </CharString>
          <CharString index="44">
            61 321 61 return
          </CharString>
          <CharString index="45">
            28 -28 0 return
          </CharString>
          <CharString index="46">
            575 407 rmoveto
            87 -35 117 -121 vhcurveto
            -214 -11 callgsubr
            200 hlineto
            160 148 210 197 hvcurveto
            -71 -17 rmoveto
            -150 -108 -179 -133 vhcurveto
            -96 hlineto
            122 489 92 callsubr
            return
          </CharString>
          <CharString index="47">
            -4 -27 vhcurveto
            56 8 rmoveto
            44 -41 24 -45 -71 -59 -53 -47 -37 34 -31 52 70 60 50 50 vhcurveto
            return
          </CharString>
          <CharString index="48">
            271 70 hstem
            133 412 vstem
            545 306 rmoveto
            35 -35 0 -11 vhcurveto
            -320 -38 callsubr
            320 43 callgsubr
          </CharString>
          <CharString index="49">
            441 177 rmoveto
            -97 -34 -22 -30 -110 hhcurveto
            -84 -24 18 51 71 56 203 14 41 hvcurveto
            106 34 26 21 105 hhcurveto
            82 27 -11 -57 -74 -62 -218 -8 -24 hvcurveto
            225 459 rmoveto
            return
          </CharString>
          <CharString index="50">
            4 -1 24 -34 return
          </CharString>
          <CharString index="51">
            -11 61 -50 -26 callsubr
            -50 61 hstemhm
            63 63 hintmask 01110000
            -52 callsubr
            14 -12 14 -16 -22 -4 -15 -28 -7 vhcurveto
            -17 -67 rlineto
            -126 hlineto
            56 225 rlineto
            128 17 callsubr
            -62 callsubr
            -13 hvcurveto
            -113 90 callgsubr
            119 54 callsubr
            -15 12 -13 16 22 5 20 8 2 1 callgsubr
            -150 hlineto
            -14 -9 0 5 -24 hvcurveto
            hintmask 10001100
            6 -28 -7 0 -20 hhcurveto
            -133 -27 -42 -117 -40 hvcurveto
            -8 -23 -78 -266 -98 vvcurveto
            -54 14 -33 114 20 7 0 7 36 vhcurveto
            hintmask 01000000
            4 21 9 0 26 hhcurveto
            160 hlineto
            17 12 0 15 8 hvcurveto
            -204 146 rmoveto
            hintmask 10001100
            -103 -26 -29 -8 -36 hhcurveto
            -86 0 40 24 76 62 221 14 43 hvcurveto
            71 25 21 36 90 hhcurveto
            39 9 -15 -24 -16 -5 -30 -4 -16 hvcurveto
            endchar
          </CharString>
          <CharString index="52">
            -49 callgsubr
            21 -11 44 -65 16 vhcurveto
            return
          </CharString>
          <CharString index="53">
            -103 callgsubr
            -48 88 rmoveto
            -9 -4 -19 -31 -27 hhcurveto
            -6 -2 2 3 -7 hvcurveto
            -121 59 -18 9 -1 13 8 15 rlinecurve
            21 10 22 12 17 hhcurveto
            7 3 -2 -3 7 hvcurveto
            119 -60 12 -6 9 -5 -9 -18 rlinecurve
            endchar
          </CharString>
          <CharString index="54">
            -55 callgsubr
            -18 hlineto
            return
          </CharString>
          <CharString index="55">
            507 15 rmoveto
            3 5 29 116 7 vvcurveto
            return
          </CharString>
          <CharString index="56">
            594 431 rmoveto
            37 149 rlineto
            1 3 2 8 3 vvcurveto
            11 -8 17 -22 -16 -5 -6 -14 -11 vhcurveto
            -9 -12 0 -2 -12 -15 rrcurveto
            33 -34 -39 16 -48 hhcurveto
            -164 -162 -208 -202 return
          </CharString>
          <CharString index="57">
            366 -47 callgsubr
            return
          </CharString>
          <CharString index="58">
            0 48 callgsubr
            hstem
            39 69 26 68 321 69 vstem
            500 25 rmoveto
            3 11 10 36 8 vvcurveto
            15 -12 13 -16 -19 -9 -14 -33 -6 vhcurveto
            -61 hlineto
            19 45 23 33 48 67 rrcurveto
            51 70 61 87 87 vvcurveto
            108 -83 64 -98 -119 -158 -99 -182 -43 6 -31 15 -68 vhcurveto
            8 -35 7 -39 -31 vvcurveto
            -10 -1 -13 -1 -10 vhcurveto
            -64 hlineto
            1 2 3 10 7 vvcurveto
            15 -12 13 -16 -22 -4 -18 -13 -3 vhcurveto
            -8 -28 -4 -16 -5 28 callgsubr
            13 vhcurveto
            103 hlineto
            28 20 0 100 26 0 20 -13 69 hvcurveto
            -5 25 -11 59 37 vvcurveto
            153 127 72 81 57 56 -34 -76 -70 -53 -78 -46 -67 vhcurveto
            -24 -35 -84 -122 -51 28 callgsubr
            13 vhcurveto
            103 hlineto
            19 14 0 25 7 hvcurveto
            endchar
          </CharString>
          <CharString index="59">
            479 31 callsubr
            58 42 47 30 hvcurveto
            50 23 41 13 8 hvcurveto
            19 33 14 55 8 vvcurveto
            -9 callsubr
            3 -6 7 -13 13 -12 rrcurveto
            -58 -32 -54 -59 16 callgsubr
            -100 454 rmoveto
            -115 -84 -116 -60 -44 -7 68 21 113 84 119 60 37 14 -45 -45 vhcurveto
            return
          </CharString>
          <CharString index="60">
            122 489 rlineto
            return
          </CharString>
          <CharString index="61">
            hlineto
            13 29 0 33 return
          </CharString>
          <CharString index="62">
            rmoveto
            -27 -34 -20 -27 -26 -17 14 17 24 29 23 32 12 31 -19 callgsubr
          </CharString>
          <CharString index="63">
            -228 61 537 61 125 61 hstem
            45 91 344 91 vstem
            571 544 rmoveto
            40 -34 33 -82 -103 -13 -68 -48 -9 vhcurveto
            -7 -33 5 21 -11 -58 rrcurveto
            -67 -101 callsubr
            58 hlineto
            -57 -325 rlineto
            -115 -20 -27 -97 -48 hhcurveto
            -12 -5 1 2 -8 hvcurveto
            4 6 2 3 15 vvcurveto
            30 -24 10 -17 -29 -21 -26 -29 -45 44 -28 65 74 42 78 29 10 vhcurveto
            16 43 10 45 8 45 63 358 rcurveline
            87 -87 callgsubr
            -78 hlineto
            5 28 7 41 4 13 rrcurveto
            26 6 5 17 39 hhcurveto
            4 27 -1 -4 hvcurveto
            -4 -4 -5 -13 vvcurveto
            -23 18 -17 23 26 24 21 34 vhcurveto
            endchar
          </CharString>
          <CharString index="64">
            -278 -41 callsubr
            return
          </CharString>
          <CharString index="65">
            rlineto
            31 -72 callgsubr
            return
          </CharString>
          <CharString index="66">
            124 -92 callsubr
            return
          </CharString>
          <CharString index="67">
            0 61 214 62 213 25 callsubr
            -53 -213 rlineto
            -30 hlineto
            -17 -17 -14 -17 -4 hvcurveto
            -18 -5 11 -13 17 hhcurveto
            29 hlineto
            -53 -214 rlineto
            -29 -96 callgsubr
            200 hlineto
            160 148 210 197 hvcurveto
            -71 -17 rmoveto
            -150 -108 -179 -133 vhcurveto
            -96 46 callsubr
            59 hlineto
            17 17 13 18 4 hvcurveto
            17 5 -11 14 -17 hhcurveto
            -58 hlineto
            53 213 81 callsubr
          </CharString>
          <CharString index="68">
            -60 callgsubr
            45 hlineto
            return
          </CharString>
          <CharString index="69">
            hlineto
            -12 -34 0 -35 -35 35 0 11 hvcurveto
            return
          </CharString>
          <CharString index="70">
            -187 -32 callgsubr
            return
          </CharString>
          <CharString index="71">
            rlineto
            -31 -101 callsubr
            119 -29 callsubr
            return
          </CharString>
          <CharString index="72">
            27 callgsubr
            85 -50 11 -118 -146 -40 -21 -107 -44 vhcurveto
            -27 -66 -69 -256 -87 vvcurveto
            -69 32 -21 81 -5 vhcurveto
            -41 -33 -33 -44 -41 -48 callgsubr
            -73 callsubr
            44 25 45 38 30 hvcurveto
            55 callgsubr
            -45 68 rmoveto
            -97 -34 -22 -30 -110 hhcurveto
            -84 -24 18 51 71 56 203 14 41 hvcurveto
            106 34 26 21 105 hhcurveto
            82 28 -11 -57 -74 -63 -218 -8 -24 hvcurveto
            return
          </CharString>
          <CharString index="73">
            -11 61 249 61 201 61 hstemhm
            83 71 16 70 219 70 -14 71 hintmask 10111010
            529 205 rmoveto
            64 -51 43 -54 18 vhcurveto
            68 18 94 55 88 vvcurveto
            73 -64 58 -105 -137 -110 -103 -82 -58 54 -36 42 -13 vhcurveto
            -88 -25 -95 -69 -99 vvcurveto
            -88 74 -60 103 vhcurveto
            hintmask 01101100
            149 120 120 96 hvcurveto
            -14 273 rmoveto
            -62 -81 -56 -81 -60 -53 31 52 59 75 59 88 vhcurveto
            hintmask 11010010
            61 51 -30 -53 hvcurveto
            -56 -278 rmoveto
            -77 -89 -73 -94 -75 -47 43 57 73 83 76 100 vhcurveto
            hintmask 00000100
            86 36 -53 -46 hvcurveto
            endchar
          </CharString>
          <CharString index="74">
            -11 61 284 62 165 61 hstem
            110 69 279 69 vstem
            527 240 rmoveto
            50 -36 106 -126 -68 -56 -30 -21 -28 vhcurveto
            107 37 111 109 107 hhcurveto
            29 9 -7 -5 6 hvcurveto
            -12 -9 -6 -14 -15 vvcurveto
            -8 6 -31 36 32 19 27 37 34 -22 52 -95 -96 -91 -59 -71 -60 vhcurveto
            -107 -126 -6 -156 -34 vvcurveto
            -139 79 -48 80 130 128 116 135 vhcurveto
            -69 -1 rmoveto
            -98 -95 -91 -93 -82 -9 80 34 9 8 46 1 4 vhcurveto
            63 23 73 48 75 hhcurveto
            92 7 -82 -13 hvcurveto
            endchar
          </CharString>
          <CharString index="75">
            hvcurveto
            16 5 70 27 33 vvcurveto
            return
          </CharString>
          <CharString index="76">
            0 -34 callgsubr
            return
          </CharString>
          <CharString index="77">
            -6 61 126 61 134 61 hstem
            192 37 callgsubr
            vstem
            570 266 rmoveto
            58 -20 41 -27 26 vhcurveto
            46 -45 -45 0 -38 hhcurveto
            -35 -51 -1 -14 -44 hvcurveto
            -16 -5 -70 -27 -33 vvcurveto
            -17 19 -19 16 11 7 6 3 4 vhcurveto
            18 20 33 28 110 hhcurveto
            20 82 0 -108 -25 -1 -1 -19 hvcurveto
            -33 hlineto
            -70 -62 -9 -17 -38 hvcurveto
            -79 -34 -7 -63 -21 vvcurveto
            -59 51 -45 73 125 129 127 145 vhcurveto
            -88 -85 rmoveto
            -78 -35 -72 -48 -57 hhcurveto
            -34 -23 17 26 71 105 12 86 hvcurveto
            endchar
          </CharString>
          <CharString index="78">
            -46 callsubr
            hvcurveto
            return
          </CharString>
          <CharString index="79">
            rmoveto
            -73 callsubr
            return
          </CharString>
          <CharString index="80">
            hstemhm
            hintmask 11100000
            -105 callsubr
            hintmask 00010000
            return
          </CharString>
          <CharString index="81">
            61 225 61 203 61 return
          </CharString>
          <CharString index="82">
            rmoveto
            83 -56 74 -102 -33 -44 -6 -19 -42 vhcurveto
            46 186 rlineto
            247 17 callsubr
            -62 callsubr
            -13 hvcurveto
            -269 hlineto
            -21 -14 0 -30 -7 hvcurveto
            -67 -270 -8 callgsubr
            -10 6 -18 26 15 3 3 9 10 vhcurveto
            13 15 45 40 85 hhcurveto
            70 21 -53 -42 -100 -105 -83 -98 -16 -70 3 56 -13 hvcurveto
            14 9 9 16 16 vvcurveto
            24 -19 16 -22 -36 -16 -31 -40 -77 71 -53 97 139 134 111 132 vhcurveto
            endchar
          </CharString>
          <CharString index="83">
            -489 rlineto
            return
          </CharString>
          <CharString index="84">
            144 rmoveto
            return
          </CharString>
          <CharString index="85">
            61 104 61 397 -20 return
          </CharString>
          <CharString index="86">
            -41 callsubr
            endchar
          </CharString>
          <CharString index="87">
            rmoveto
            43 -29 15 -22 -35 -20 -31 -23 vhcurveto
            hintmask 01100000
            -16 11 -24 30 4 1 0 1 3 vhcurveto
            -21 -39 -33 -15 -22 -6 rrcurveto
            -5 -1 -14 -5 -16 vvcurveto
            -6 7 -17 17 34 94 61 79 vhcurveto
            endchar
          </CharString>
          <CharString index="88">
            17 callgsubr
            14 -1 12 -3 10 vhcurveto
            27 13 50 33 7 28 rrcurveto
            return
          </CharString>
          <CharString index="89">
            -87 callgsubr
            -17 hlineto
            return
          </CharString>
          <CharString index="90">
            171 685 39 callgsubr
            5 vvcurveto
            17 -14 18 -21 -28 -6 -25 -8 -2 vhcurveto
            -172 -689 -8 callgsubr
            -18 15 -17 20 26 8 23 13 3 vhcurveto
            return
          </CharString>
          <CharString index="91">
            -208 62 80 111 hstem
            334 70 vstem
            404 -92 rmoveto
            21 -11 44 -65 16 vhcurveto
            2 6 4 16 6 vvcurveto
            11 -5 17 -29 -27 -5 -11 -18 -4 vhcurveto
            -5 -18 -8 -32 -4 vvcurveto
            -49 callgsubr
            endchar
          </CharString>
          <CharString index="92">
            -262 rmoveto
            14 1 -14 0 -6 hhcurveto
            -42 hlineto
            65 257 rlineto
            2 1 3 3 vvcurveto
            2 -1 12 -14 -8 -3 -4 -6 -4 vhcurveto
            -34 -48 -27 -2 -15 -1 rrcurveto
            -9 -1 -4 -9 -6 vvcurveto
            -6 3 -8 14 7 20 1 18 26 vhcurveto
            -52 -207 rlineto
            -48 hlineto
            -8 -13 0 -16 hvcurveto
            -14 -1 14 0 6 hhcurveto
            126 hlineto
            7 13 0 16 hvcurveto
            return
          </CharString>
          <CharString index="93">
            -130 -101 callsubr
            22 hlineto
            -84 return
          </CharString>
          <CharString index="94">
            61 134 61 126 61 return
          </CharString>
          <CharString index="95">
            24 -18 30 -38 -32 -39 -28 -43 -36 28 -18 27 39 33 36 35 vhcurveto
            return
          </CharString>
          <CharString index="96">
            -168 -28 callsubr
            return
          </CharString>
          <CharString index="97">
            306 rmoveto
            4 17 -6 7 -5 6 -175 186 rcurveline
            8 -9 -3 1 -5 hhcurveto
            -11 -13 -11 -21 -4 hvcurveto
            -4 -17 7 -7 5 -6 153 -163 rcurveline
            -222 -163 -9 -6 -9 -7 -4 -17 rlinecurve
            -21 -4 8 -11 11 hhcurveto
            5 4 1 8 11 hvcurveto
            258 188 8 6 7 10 2 12 rlinecurve
            return
          </CharString>
          <CharString index="98">
            -88 callgsubr
            65 261 -67 callsubr
            -20 -12 -16 -9 -3 vhcurveto
            36 -32 -33 4 -19 hhcurveto
            -108 -106 -150 -139 -96 51 -58 67 57 46 43 10 10 hvcurveto
            return
          </CharString>
          <CharString index="99">
            hstemhm
            1 callsubr
            return
          </CharString>
          <CharString index="100">
            127 69 241 68 return
          </CharString>
          <CharString index="101">
            323 -21 210 99 hstem
            352 120 vstem
            472 536 rmoveto
            40 -21 35 -42 -35 -22 -31 -25 -39 42 -7 3 2 vhcurveto
            2 1 9 0 0 vvcurveto
            -11 -50 -32 -59 -81 -43 rrcurveto
            -8 -4 -12 -6 -17 vvcurveto
            -12 12 -19 19 34 143 101 133 vhcurveto
            endchar
          </CharString>
          <CharString index="102">
            -65 callgsubr
            hstemhm
            return
          </CharString>
          <CharString index="103">
            -10 15 -23 1 -19 -14 -89 -65 rcurveline
            -19 -14 -7 -23 10 -16 10 -15 23 -1 19 14 89 65 rcurveline
            19 14 7 23 -10 16 rrcurveto
            return
          </CharString>
          <CharString index="104">
            -13 callgsubr
            28 return
          </CharString>
          <CharString index="105">
            -16 10 -15 23 -1 19 14 89 65 rcurveline
            19 14 7 23 -10 16 rrcurveto
            194 hmoveto
            -10 15 -23 1 -19 -14 -89 -65 rcurveline
            return
          </CharString>
          <CharString index="106">
            231 219 -103 callgsubr
            return
          </CharString>
          <CharString index="107">
            591 38 callsubr
            -4 11 -16 20 hhcurveto
            13 13 7 11 9 hvcurveto
            458 571 4 5 3 6 1 6 rlinecurve
            endchar
          </CharString>
          <CharString index="108">
            138 37 callgsubr
            return
          </CharString>
          <CharString index="109">
            -35 callgsubr
            -27 -4 -14 -18 -5 vhcurveto
            -15 -4 -19 -70 -37 hhcurveto
            -9 -22 4 30 hvcurveto
            return
          </CharString>
          <CharString index="110">
            rmoveto
            41 -48 12 -31 7 vhcurveto
            13 -50 -54 3 -51 hhcurveto
            -8 -8 0 -1 -7 hvcurveto
            -70 -9 -146 -2 -69 vvcurveto
            -19 17 -11 18 24 1 14 9 15 vhcurveto
            24 49 87 0 44 hhcurveto
            43 46 -2 -13 40 hvcurveto
            return
          </CharString>
          <CharString index="111">
            rlineto
            6 callgsubr
            return
          </CharString>
          <CharString index="112">
            rlineto
            -8 -32 0 -20 -13 vvcurveto
            -102 61 -58 71 116 113 144 139 vhcurveto
            -69 2 rmoveto
            -114 -89 -110 -69 -51 -15 58 38 113 89 112 70 39 26 -38 -59 vhcurveto
            endchar
          </CharString>
          <CharString index="113">
            -228 61 100 70 callgsubr
            return
          </CharString>
          <CharString index="114">
            rlineto
            -22 -26 -91 callgsubr
            return
          </CharString>
          <CharString index="115">
            -210 -21 104 94 return
          </CharString>
          <CharString index="116">
            56 rmoveto
            17 -14 18 -21 -19 -7 -11 -11 -7 vhcurveto
            -448 -694 rlineto
            -7 -12 -3 -6 -8 vvcurveto
            -19 16 -16 19 19 7 12 10 7 vhcurveto
            448 695 rlineto
            6 9 4 6 10 vvcurveto
            return
          </CharString>
          <CharString index="117">
            hlineto
            17 17 14 17 5 hvcurveto
            17 4 -11 14 -17 hhcurveto
            return
          </CharString>
          <CharString index="118">
            rlineto
            28 -4 callgsubr
            return
          </CharString>
          <CharString index="119">
            18 -15 16 -19 vhcurveto
            hintmask 11000000
            -6 -1 -22 -4 -32 -33 -24 -21 rlinecurve
            -12 -9 -16 -10 -16 vvcurveto
            -18 18 -20 18 vhcurveto
            4 hlineto
            12 1 9 10 9 7 rrcurveto
            33 26 43 27 27 vvcurveto
            return
          </CharString>
          <CharString index="120">
            -31 callsubr
            hstem
            return
          </CharString>
          <CharString index="121">
            398 344 rmoveto
            32 -26 13 -19 -31 -25 -28 -27 -25 20 -20 25 30 26 26 29 vhcurveto
            return
          </CharString>
          <CharString index="122">
            18 callsubr
            hintmask 01100000
            return
          </CharString>
          <CharString index="123">
            -200 89 111 -34 callgsubr
            return
          </CharString>
          <CharString index="124">
            hlineto
            15 27 0 33 return
          </CharString>
          <CharString index="125">
            16 callsubr
            hstemhm
            return
          </CharString>
          <CharString index="126">
            36 callsubr
            -28 return
          </CharString>
          <CharString index="127">
            61 511 61 return
          </CharString>
          <CharString index="128">
            -104 hlineto
            -15 -27 0 -33 -28 return
          </CharString>
          <CharString index="129">
            28 19 20 35 33 vvcurveto
            25 -15 49 -62 -84 -51 -58 -35 -18 13 -10 22 10 15 0 20 8 vhcurveto
            15 40 50 0 0 vvcurveto
            9 6 -1 -12 return
          </CharString>
          <CharString index="130">
            rmoveto
            -12 callsubr
            return
          </CharString>
          <CharString index="131">
            349 -21 294 -20 hstem
            return
          </CharString>
          <CharString index="132">
            61 hstem
            504 71 vstem
            40 callgsubr
            return
          </CharString>
          <CharString index="133">
            -10 -3 22 10 54 40 56 21 10 3 -22 -10 return
          </CharString>
          <CharString index="134">
            19 5 -12 16 -19 hhcurveto
            return
          </CharString>
          <CharString index="135">
            40 callsubr
            57 43 64 35 hvcurveto
            return
          </CharString>
          <CharString index="136">
            rmoveto
            28 -27 0 -13 vhcurveto
            -148 hlineto
            -16 -26 0 -35 -28 27 -59 callgsubr
            148 hlineto
            16 26 12 callgsubr
          </CharString>
          <CharString index="137">
            48 callgsubr
            63 callgsubr
            return
          </CharString>
          <CharString index="138">
            -11 callsubr
            52 return
          </CharString>
          <CharString index="139">
            -65 callgsubr
            13 callgsubr
            return
          </CharString>
          <CharString index="140">
            -233 60 167 -63 callsubr
            return
          </CharString>
          <CharString index="141">
            rlineto
            31 17 callsubr
            return
          </CharString>
          <CharString index="142">
            61 315 61 186 -20 return
          </CharString>
          <CharString index="143">
            hlineto
            -15 -26 0 -33 return
          </CharString>
          <CharString index="144">
            rmoveto
            35 -35 0 -16 vhcurveto
            -347 hlineto
            -13 -38 0 -35 -35 34 0 11 hvcurveto
            360 hlineto
            13 31 0 35 hvcurveto
            return
          </CharString>
          <CharString index="145">
            67 callgsubr
            -13 -14 -7 -11 -8 hvcurveto
            -458 42 callgsubr
            return
          </CharString>
          <CharString index="146">
            hlineto
            39 105 rlineto
            6 15 0 1 6 vvcurveto
            18 -15 17 -20 -24 -7 -20 -9 -4 vhcurveto
            -50 -133 rlineto
            return
          </CharString>
          <CharString index="147">
            -73 callsubr
            52 return
          </CharString>
          <CharString index="148">
            8 callsubr
            33 -34 callgsubr
            return
          </CharString>
          <CharString index="149">
            -20 21 -20 hstemhm
            hintmask 00100000
            return
          </CharString>
          <CharString index="150">
            137 69 214 92 return
          </CharString>
          <CharString index="151">
            41 callsubr
            hstemhm
            hintmask 00110000
            return
          </CharString>
          <CharString index="152">
            -65 callgsubr
            113 61 return
          </CharString>
          <CharString index="153">
            hlineto
            53 214 rlineto
            return
          </CharString>
          <CharString index="154">
            462 253 rmoveto
            53 -40 66 -84 -70 -86 -62 -95 -79 61 -40 60 86 73 79 78 vhcurveto
            return
          </CharString>
          <CharString index="155">
            0 -2 -3 vvcurveto
            return
          </CharString>
          <CharString index="156">
            61 495 61 hstemhm
            322 69 -64 69 49 95 return
          </CharString>
          <CharString index="157">
            5 callgsubr
            hstem
            return
          </CharString>
          <CharString index="158">
            -11 48 callgsubr
            return
          </CharString>
          <CharString index="159">
            603 rmoveto
            51 -25 40 -42 -68 -52 -103 -73 -41 18 -50 50 63 56 96 80 vhcurveto
            return
          </CharString>
          <CharString index="160">
            -63 callsubr
            89 callgsubr
            return
          </CharString>
          <CharString index="161">
            hlineto
            -5 -22 -10 -41 -3 vvcurveto
            return
          </CharString>
          <CharString index="162">
            101 69 318 69 return
          </CharString>
          <CharString index="163">
            22 5 0 0 2 2 1 hvcurveto
            9 8 0 11 0 vvcurveto
            9 -6 11 -15 return
          </CharString>
          <CharString index="164">
            66 callgsubr
            hvcurveto
            return
          </CharString>
          <CharString index="165">
            17 4 -10 14 -17 hhcurveto
            return
          </CharString>
          <CharString index="166">
            13 -1 22 -4 22 -5 rrcurveto
            -6 20 33 -8 24 hhcurveto
            42 9 28 5 return
          </CharString>
          <CharString index="167">
            65 -10 65 hstemhm
            return
          </CharString>
          <CharString index="168">
            -44 -29 -45 -46 16 callgsubr
            return
          </CharString>
          <CharString index="169">
            -21 37 hhcurveto
            25 36 8 6 27 hvcurveto
            3 1 32 7 23 2 -8 return
          </CharString>
          <CharString index="170">
            -13 -9 -4 -18 9 -14 rlinecurve
            1 hlineto
            8 -13 17 -4 15 10 return
          </CharString>
          <CharString index="171">
            -92 -7 81 14 102 100 87 93 74 13 -69 -49 vhcurveto
            endchar
          </CharString>
          <CharString index="172">
            31 callgsubr
            hstem
            return
          </CharString>
          <CharString index="173">
            81 82 2 callgsubr
            return
          </CharString>
          <CharString index="174">
            -31 callsubr
            52 return
          </CharString>
          <CharString index="175">
            hstemhm
            335 69 -1 69 return
          </CharString>
          <CharString index="176">
            -19 -5 12 -16 19 hhcurveto
            return
          </CharString>
          <CharString index="177">
            90 callsubr
            hstem
            return
          </CharString>
          <CharString index="178">
            vvcurveto
            10 -4 18 -31 return
          </CharString>
          <CharString index="179">
            rlineto
            -17 -4 10 -14 17 hhcurveto
            17 18 14 17 4 hvcurveto
            return
          </CharString>
          <CharString index="180">
            rmoveto
            24 6 -15 20 -24 hhcurveto
            -25 -24 -20 -24 -6 hvcurveto
            return
          </CharString>
          <CharString index="181">
            -6 hvcurveto
            -24 -6 15 -20 24 hhcurveto
            return
          </CharString>
          <CharString index="182">
            -16 -19 -5 hvcurveto
            -20 -5 12 -15 return
          </CharString>
          <CharString index="183">
            hlineto
            15 26 0 33 28 -27 0 return
          </CharString>
          <CharString index="184">
            -200 89 105 61 return
          </CharString>
          <CharString index="185">
            31 67 vvcurveto
            52 -41 35 -55 -79 -46 -70 -25 -7 return
          </CharString>
          <CharString index="186">
            13 2 5 9 3 vhcurveto
            32 12 44 10 24 hhcurveto
            return
          </CharString>
          <CharString index="187">
            -45 -48 callgsubr
            return
          </CharString>
          <CharString index="188">
            92 callsubr
            endchar
          </CharString>
          <CharString index="189">
            -17 -4 10 -14 18 hhcurveto
            return
          </CharString>
          <CharString index="190">
            61 226 61 return
          </CharString>
          <CharString index="191" raw="1">
            13c8681d 0b  
          </CharString>
          <CharString index="192">
            5 callgsubr
            13 callgsubr
            return
          </CharString>
          <CharString index="193">
            61 84 100 hstemhm
            61 64 192 64 -25 90 return
          </CharString>
          <CharString index="194">
            2 callgsubr
            hintmask 11100000
            return
          </CharString>
          <CharString index="195">
            hstemhm
            -7 callsubr
            return
          </CharString>
          <CharString index="196">
            92 callgsubr
            hstemhm
            return
          </CharString>
          <CharString index="197">
            -62 -21 777 -20 return
          </CharString>
          <CharString index="198">
            vvcurveto
            14 -12 14 -16 return
          </CharString>
          <CharString index="199">
            rlineto
            96 hlineto
            111 8 -124 -36 hvcurveto
            return
          </CharString>
          <CharString index="200">
            69 vstem
            507 284 rmoveto
            88 -47 65 return
          </CharString>
          <CharString index="201">
            -3 -9 -2 vhcurveto
            -35 -11 -24 -21 -24 hhcurveto
            return
          </CharString>
          <CharString index="202">
            hstemhm
            116 68 return
          </CharString>
        <CharString name=".notdef">
          173 endchar
        </CharString>
        <CharString name="A">
          0 -22 callsubr
          hstem
          -105 callsubr
          endchar
        </CharString>
        <CharString name="AE">
          0 61 122 61 42 61 203 61 hstem
          30 152 vstem
          -69 callgsubr
          endchar
        </CharString>
        <CharString name="AE.dup">
          0 61 122 61 42 61 203 61 hstem
          30 152 vstem
          -69 callgsubr
          endchar
        </CharString>
        <CharString name="AEacute">
          0 61 122 61 42 61 203 61 83 2 callgsubr
          30 152 hintmask 11110010
          -69 callgsubr
          hintmask 00001100
          198 224 -107 callsubr
        </CharString>
        <CharString name="Aacute">
          0 -22 callsubr
          91 87 callsubr
          -105 callsubr
          hintmask 00011000
          164 235 -107 callsubr
        </CharString>
        <CharString name="Abreve">
          0 -22 callsubr
          70 64 49 -20 hstemhm
          hintmask 11100000
          -105 callsubr
          hintmask 00011000
          -1 callsubr
          endchar
        </CharString>
        <CharString name="Abreveacute">
          0 -22 callsubr
          70 64 203 -20 hstemhm
          hintmask 11100000
          -105 callsubr
          hintmask 00011000
          -1 callsubr
          -33 149 -107 callsubr
        </CharString>
        <CharString name="Abrevedotbelow">
          -200 89 111 -22 callsubr
          70 64 49 -20 hstemhm
          hintmask 01111100
          -105 callsubr
          -1 callsubr
          hintmask 10000000
          -361 -910 -99 callsubr
        </CharString>
        <CharString name="Abrevegrave">
          0 -22 callsubr
          70 64 49 -20 hstemhm
          hintmask 11100000
          -105 callsubr
          hintmask 00011000
          231 219 -54 callsubr
        </CharString>
        <CharString name="Abrevehookabove">
          0 -22 callsubr
          70 64 279 -20 hstemhm
          hintmask 11100000
          -105 callsubr
          hintmask 00011000
          -1 callsubr
          -29 171 -107 callgsubr
        </CharString>
        <CharString name="Abrevetilde">
          0 -22 callsubr
          70 64 89 60 callsubr
          hintmask 11100000
          -105 callsubr
          hintmask 00010100
          231 219 -30 callgsubr
          hintmask 00001000
          -10 -14 -46 -34 -23 hhcurveto
          -6 -5 4 8 -6 hvcurveto
          hintmask 00000100
          21 -15 -17 22 -36 hhcurveto
          -42 -54 -39 -23 -29 hvcurveto
          -9 -6 -8 -6 -14 vvcurveto
          hintmask 00001000
          -17 14 -15 16 10 4 3 10 14 vhcurveto
          hintmask 00000100
          24 31 32 18 16 hhcurveto
          7 4 -5 -9 7 hvcurveto
          hintmask 00001000
          -91 callsubr
        </CharString>
        <CharString name="Acaron">
          0 -22 callsubr
          hstemhm
          -105 callsubr
          172 169 -79 callgsubr
        </CharString>
        <CharString name="Acircumflex">
          0 -22 callsubr
          hstemhm
          -105 callsubr
          170 182 -102 callgsubr
          endchar
        </CharString>
        <CharString name="Acircumflexacute">
          0 -22 callsubr
          316 -20 -27 callsubr
          170 182 -102 callgsubr
          23 165 -107 callsubr
        </CharString>
        <CharString name="Acircumflexdotbelow">
          -200 89 111 -22 callsubr
          hstemhm
          hintmask 01110000
          -105 callsubr
          170 182 -102 callgsubr
          hintmask 10000000
          -300 -873 -99 callsubr
        </CharString>
        <CharString name="Acircumflexgrave">
          0 -22 callsubr
          hstemhm
          -105 callsubr
          170 182 -81 callgsubr
        </CharString>
        <CharString name="Acircumflexhookabove">
          0 -22 callsubr
          392 -20 -27 callsubr
          170 182 -102 callgsubr
          131 187 -107 callgsubr
        </CharString>
        <CharString name="Acircumflextilde">
          0 -22 callsubr
          202 60 callsubr
          hintmask 11100000
          -105 callsubr
          hintmask 00001000
          170 182 -102 callgsubr
          94 172 -89 callgsubr
        </CharString>
        <CharString name="Adblgrave">
          0 -22 callsubr
          hstemhm
          -105 callsubr
          167 146 -74 callsubr
        </CharString>
        <CharString name="Adieresis">
          0 -22 callsubr
          60 81 -27 callsubr
          -9 168 -79 callsubr
        </CharString>
        <CharString name="Adotbelow">
          -200 89 111 -22 callsubr
          hstemhm
          hintmask 01110000
          -105 callsubr
          hintmask 10000000
          -130 -691 -99 callsubr
        </CharString>
        <CharString name="Agrave">
          0 -22 callsubr
          91 87 callsubr
          -105 callsubr
          hintmask 00011000
          149 174 -99 callgsubr
        </CharString>
        <CharString name="Ahookabove">
          0 -22 callsubr
          92 89 callsubr
          hintmask 11100000
          -105 callsubr
          hintmask 00011000
          173 278 -107 callgsubr
        </CharString>
        <CharString name="Alpha">
          0 -22 callsubr
          hstem
          -105 callsubr
          endchar
        </CharString>
        <CharString name="Amacron">
          0 -22 callsubr
          80 63 -27 callsubr
          233 179 -86 callgsubr
        </CharString>
        <CharString name="Aogonek">
          -233 60 173 -22 callsubr
          hstem
          34 189 52 66 vstem
          -43 callgsubr
          endchar
        </CharString>
        <CharString name="Aogonekacute">
          -233 60 173 -22 callsubr
          91 2 callgsubr
          34 189 52 66 hintmask 11110011
          -43 callgsubr
          hintmask 00001100
          164 235 -107 callsubr
        </CharString>
        <CharString name="Aring">
          0 61 104 61 397 45 78 45 hstemhm
          332 56 104 56 hintmask 11100000
          -105 callsubr
          hintmask 00111100
          94 176 rmoveto
          -27 -34 -20 -27 -26 -17 14 17 24 29 23 32 11 32 -19 callgsubr
        </CharString>
        <CharString name="Aringacute">
          0 61 104 61 397 45 78 45 154 -20 hstemhm
          332 56 104 56 hintmask 11100000
          -105 callsubr
          hintmask 00111110
          94 176 rmoveto
          -27 -34 -20 -27 -26 -17 14 17 24 29 23 32 11 32 -60 callsubr
          50 189 -107 callsubr
        </CharString>
        <CharString name="Atilde">
          0 -22 callsubr
          60 60 callsubr
          hintmask 11100000
          -105 callsubr
          hintmask 00001000
          228 212 -89 callgsubr
        </CharString>
        <CharString name="B">
          -33 callgsubr
        </CharString>
        <CharString name="Beta">
          -33 callgsubr
        </CharString>
        <CharString name="C">
          50 callsubr
          104 69 vstem
          -76 callsubr
          endchar
        </CharString>
        <CharString name="Cacute">
          85 callsubr
          104 69 hintmask 11001000
          -76 callsubr
          hintmask 00110000
          -5 343 -107 callsubr
        </CharString>
        <CharString name="Ccaron">
          5 callgsubr
          hstemhm
          104 69 vstemhm
          -76 callsubr
          3 277 -79 callgsubr
        </CharString>
        <CharString name="Ccedilla">
          561 61 hstem
          104 69 vstem
          -51 callsubr
          -116 61 -97 105 -9 hvcurveto
          -3 -14 -3 -12 -2 vvcurveto
          -55 callsubr
          1 2 0 2 1 2 rrcurveto
          115 27 70 105 46 77 callgsubr
          -11 -16 0 -21 -7 vhcurveto
          -112 -36 -99 -18 -32 hhcurveto
          -82 -38 80 83 171 138 177 122 57 35 -41 -63 hvcurveto
          -20 -2 -1 -6 vvcurveto
          -29 29 0 6 16 13 2 28 7 vhcurveto
          endchar
        </CharString>
        <CharString name="Ccircumflex">
          5 callgsubr
          hstemhm
          104 69 vstemhm
          -76 callsubr
          1 290 -102 callgsubr
          endchar
        </CharString>
        <CharString name="Cdotaccent">
          5 callgsubr
          52 89 hstemhm
          104 69 hintmask 11010000
          -76 callsubr
          hintmask 00100000
          -81 291 -99 callsubr
        </CharString>
        <CharString name="Chi">
          -38 callgsubr
        </CharString>
        <CharString name="D">
          0 61 489 61 hstem
          504 71 vstem
          -61 callsubr
          endchar
        </CharString>
        <CharString name="Dcaron">
          -31 callsubr
          hstemhm
          504 71 vstemhm
          -61 callsubr
          4 318 -79 callgsubr
        </CharString>
        <CharString name="Dcroat">
          -40 callsubr
        </CharString>
        <CharString name="Ddotbelow">
          18 callsubr
          504 71 hintmask 01110000
          -61 callsubr
          hintmask 10000000
          -298 -542 -99 callsubr
        </CharString>
        <CharString name="Delta">
          0 67 556 -20 hstem
          497 31 rmoveto
          -1 10 -31 540 rlineto
          38 -2 -8 4 -37 hhcurveto
          -23 -22 0 -33 -18 hvcurveto
          -308 -553 rlineto
          -6 -12 -2 -2 -6 vvcurveto
          -17 12 0 20 vhcurveto
          383 hlineto
          18 25 0 31 hvcurveto
          -75 36 rmoveto
          -286 hlineto
          262 475 rlineto
          endchar
        </CharString>
        <CharString name="Dlinebelow">
          -186 63 123 -34 callgsubr
          hstemhm
          504 71 hintmask 01110000
          -61 callsubr
          hintmask 10000000
          -152 -541 -86 callgsubr
        </CharString>
        <CharString name="E">
          0 -26 callsubr
          hstem
          -106 callgsubr
          396 hlineto
          17 12 0 15 8 hvcurveto
          endchar
        </CharString>
        <CharString name="Eacute">
          0 -26 callsubr
          83 87 callsubr
          -106 callgsubr
          396 hlineto
          17 12 0 15 8 hvcurveto
          hintmask 00011000
          55 759 -107 callsubr
        </CharString>
        <CharString name="Ebreve">
          0 -26 callsubr
          62 64 49 -20 hstemhm
          hintmask 11100000
          -106 callgsubr
          396 hlineto
          17 12 0 15 8 hvcurveto
          hintmask 00011000
          122 743 -103 callgsubr
          endchar
        </CharString>
        <CharString name="Ecaron">
          0 -26 callsubr
          hstemhm
          -106 callgsubr
          396 hlineto
          17 12 0 15 8 hvcurveto
          63 693 -79 callgsubr
        </CharString>
        <CharString name="Ecircumflex">
          0 -26 callsubr
          hstemhm
          -106 callgsubr
          396 hlineto
          17 12 0 15 8 hvcurveto
          61 706 -102 callgsubr
          endchar
        </CharString>
        <CharString name="Ecircumflexacute">
          0 -26 callsubr
          308 -20 -67 callgsubr
          61 706 -102 callgsubr
          23 165 -107 callsubr
        </CharString>
        <CharString name="Ecircumflexdotbelow">
          -200 89 111 -26 callsubr
          hstemhm
          hintmask 01110000
          -106 callgsubr
          396 hlineto
          17 12 0 15 8 hvcurveto
          61 706 -102 callgsubr
          hintmask 10000000
          -300 -873 -99 callsubr
        </CharString>
        <CharString name="Ecircumflexgrave">
          0 -26 callsubr
          hstemhm
          -106 callgsubr
          396 hlineto
          17 12 0 15 8 hvcurveto
          61 706 -81 callgsubr
        </CharString>
        <CharString name="Ecircumflexhookabove">
          0 -26 callsubr
          384 -20 -67 callgsubr
          61 706 -102 callgsubr
          131 187 -107 callgsubr
        </CharString>
        <CharString name="Ecircumflextilde">
          0 -26 callsubr
          194 60 callsubr
          hintmask 11100000
          -106 callgsubr
          396 hlineto
          17 12 0 15 8 hvcurveto
          hintmask 00001000
          61 706 -102 callgsubr
          94 172 -89 callgsubr
        </CharString>
        <CharString name="Edblgrave">
          0 -26 callsubr
          hstemhm
          -106 callgsubr
          396 hlineto
          17 12 0 15 8 hvcurveto
          87 670 -74 callsubr
        </CharString>
        <CharString name="Edieresis">
          0 -26 callsubr
          52 81 -67 callgsubr
          -118 692 -79 callsubr
        </CharString>
        <CharString name="Edotaccent">
          0 -26 callsubr
          63 89 -67 callgsubr
          -20 707 -99 callsubr
        </CharString>
        <CharString name="Edotbelow">
          -200 89 111 -26 callsubr
          hstemhm
          hintmask 01110000
          -106 callgsubr
          396 hlineto
          17 12 0 15 8 hvcurveto
          hintmask 10000000
          -239 -167 -99 callsubr
        </CharString>
        <CharString name="Egrave">
          0 -26 callsubr
          83 87 callsubr
          -106 callgsubr
          396 hlineto
          17 12 0 15 8 hvcurveto
          hintmask 00011000
          40 698 -99 callgsubr
        </CharString>
        <CharString name="Ehookabove">
          0 -26 callsubr
          84 89 callsubr
          hintmask 11100000
          -106 callgsubr
          396 hlineto
          17 12 0 15 8 hvcurveto
          hintmask 00011000
          64 802 -107 callgsubr
        </CharString>
        <CharString name="Emacron">
          0 -26 callsubr
          72 63 -67 callgsubr
          124 703 -86 callgsubr
        </CharString>
        <CharString name="Eng">
          -11 88 -77 -34 callgsubr
          -59 70 hstemhm
          hintmask 00010000
          566 306 rmoveto
          157 40 -23 159 -139 hhcurveto
          -51 -51 -20 -33 -43 hvcurveto
          hintmask 01100000
          10 42 rlineto
          -101 -96 callgsubr
          17 hlineto
          -122 -489 -55 callgsubr
          -17 hlineto
          92 370 rlineto
          hintmask 10010000
          68 28 67 53 68 hhcurveto
          102 -3 -127 -119 -30 hvcurveto
          -23 -94 -28 -113 -51 -31 rrcurveto
          6 -6 -9 3 -10 hhcurveto
          -24 -25 -20 -24 74 callsubr
          128 54 167 150 37 hvcurveto
          endchar
        </CharString>
        <CharString name="Eogonek">
          -233 60 173 -26 callsubr
          hstem
          238 66 vstem
          -106 callgsubr
          253 hlineto
          61 callsubr
          28 callsubr
          45 hlineto
          17 12 0 15 8 hvcurveto
          endchar
        </CharString>
        <CharString name="Eogonekacute">
          -233 60 173 -26 callsubr
          83 2 callgsubr
          238 66 hintmask 11110010
          -106 callgsubr
          253 hlineto
          61 callsubr
          28 callsubr
          45 hlineto
          17 12 0 15 8 hvcurveto
          hintmask 00001100
          55 759 -107 callsubr
        </CharString>
        <CharString name="Epsilon">
          0 -26 callsubr
          hstem
          -106 callgsubr
          396 hlineto
          17 12 0 15 8 hvcurveto
          endchar
        </CharString>
        <CharString name="Ereversed">
          0 -26 callsubr
          hstem
          510 28 rmoveto
          33 17 -27 0 -15 hhcurveto
          -37 -28 callgsubr
          23 hlineto
          13 27 0 28 14 hvcurveto
          33 17 -26 0 -15 hhcurveto
          -374 hlineto
          -13 -28 0 -28 -14 hvcurveto
          -2 -4 -2 -7 -1 -4 -21 -84 rcurveline
          -24 -6 9 -4 18 hhcurveto
          6 29 0 28 14 hvcurveto
          2 3 10 41 6 22 rrcurveto
          244 hlineto
          -51 -203 rlineto
          -130 hlineto
          50 13 1 7 -28 hhcurveto
          -6 -29 0 -28 -14 hvcurveto
          -3 -7 -1 -5 -2 -6 -24 -99 rcurveline
          -25 -7 9 -5 19 hhcurveto
          31 13 18 10 5 hvcurveto
          4 9 3 13 1 7 rrcurveto
          130 hlineto
          -56 -225 rlineto
          -266 hlineto
          16 66 rlineto
          34 9 2 10 -28 hhcurveto
          -31 -13 -18 -10 -5 hvcurveto
          -4 -7 -29 -116 1 -5 rrcurveto
          -15 12 0 17 vhcurveto
          396 hlineto
          13 28 0 28 14 hvcurveto
          endchar
        </CharString>
        <CharString name="Eta">
          65 callsubr
          -92 callgsubr
          endchar
        </CharString>
        <CharString name="Eth">
          -40 callsubr
        </CharString>
        <CharString name="Etilde">
          0 -26 callsubr
          52 60 callsubr
          hintmask 11100000
          -106 callgsubr
          396 hlineto
          17 12 0 15 8 hvcurveto
          hintmask 00001000
          119 736 -89 callgsubr
        </CharString>
        <CharString name="Euro">
          -11 62 160 62 66 62 159 62 hstem
          472 18 rmoveto
          23 95 rlineto
          16 4 -9 13 -16 hhcurveto
          -12 hlineto
          -15 -15 -11 -14 -6 hvcurveto
          -38 -14 -40 -28 -39 hhcurveto
          -40 -21 33 36 -12 hvcurveto
          -9 28 -4 31 1 32 rrcurveto
          144 62 callgsubr
          -156 hlineto
          2 11 3 11 2 11 3 11 3 11 4 11 rrcurveto
          183 62 callgsubr
          -178 hlineto
          15 31 18 31 24 29 rrcurveto
          35 29 38 33 41 hhcurveto
          38 27 -28 -38 -5 hvcurveto
          -14 -2 9 -11 15 hhcurveto
          12 hlineto
          16 16 13 16 5 hvcurveto
          23 95 rlineto
          16 4 -9 13 -16 hhcurveto
          -4 hlineto
          -9 -9 -4 -6 -7 hvcurveto
          -14 -13 rlineto
          15 -21 -27 8 -31 hhcurveto
          -63 -62 -44 -54 -46 hvcurveto
          -32 -38 -25 -42 -19 -43 rrcurveto
          -36 61 callgsubr
          32 hlineto
          -4 -11 -3 -11 -3 -11 -2 -11 -3 -11 -2 -11 rrcurveto
          -28 61 callgsubr
          39 hlineto
          -2 -44 4 -41 13 -39 rrcurveto
          -54 19 40 -44 62 hhcurveto
          31 32 8 15 29 hvcurveto
          7 -12 rlineto
          -7 4 7 -4 9 hhcurveto
          3 hlineto
          16 16 13 16 5 hvcurveto
          endchar
        </CharString>
        <CharString name="F">
          0 61 214 78 callgsubr
          hstem
          cntrmask 11100000
          613 -45 callgsubr
          -382 -101 callsubr
          26 hlineto
          -68 callsubr
          -40 -96 callgsubr
          154 -87 callgsubr
          -44 hlineto
          54 214 rlineto
          135 hlineto
          -2 -7 -5 -15 -7 vvcurveto
          -11 5 -17 30 28 2 6 53 13 vhcurveto
          3 10 6 25 2 10 rrcurveto
          4 14 6 24 5 vvcurveto
          17 -12 11 -22 -29 -2 -8 -49 -12 vhcurveto
          -135 46 callsubr
          249 54 callsubr
          -28 29 0 6 18 11 4 24 6 vhcurveto
          endchar
        </CharString>
        <CharString name="G">
          45 callgsubr
          hstem
          55 callsubr
          vstem
          -96 callsubr
          endchar
        </CharString>
        <CharString name="Gacute">
          45 callgsubr
          13 callgsubr
          55 callsubr
          hintmask 11100110
          -96 callsubr
          hintmask 00011000
          5 532 -107 callsubr
        </CharString>
        <CharString name="Gamma">
          13 callsubr
          611 -45 callgsubr
          -376 -96 callgsubr
          29 hlineto
          -68 callsubr
          -44 -101 callsubr
          162 17 callsubr
          -62 callsubr
          -13 hvcurveto
          -48 -28 callgsubr
          240 54 callsubr
          -28 29 0 6 18 11 4 24 6 vhcurveto
          endchar
        </CharString>
        <CharString name="Gbreve">
          45 callgsubr
          51 64 49 -20 hstemhm
          55 callsubr
          hintmask 11100110
          -96 callsubr
          hintmask 00011000
          72 516 -103 callgsubr
          endchar
        </CharString>
        <CharString name="Gcaron">
          45 callgsubr
          hstemhm
          55 callsubr
          vstemhm
          -96 callsubr
          13 466 -79 callgsubr
        </CharString>
        <CharString name="Gcedilla">
          8 callsubr
          22 46 callgsubr
          hstem
          55 callsubr
          vstem
          -96 callsubr
          -257 -333 -97 callsubr
        </CharString>
        <CharString name="Gcircumflex">
          45 callgsubr
          hstemhm
          55 callsubr
          vstemhm
          -96 callsubr
          11 479 -102 callgsubr
          endchar
        </CharString>
        <CharString name="Gcommaaccent">
          8 callsubr
          22 46 callgsubr
          hstemhm
          55 callsubr
          hintmask 00111110
          -96 callsubr
          hintmask 11000000
          -257 -333 -97 callsubr
        </CharString>
        <CharString name="Gdotaccent">
          45 callgsubr
          52 89 hstemhm
          55 callsubr
          hintmask 11101100
          -96 callsubr
          hintmask 00010000
          -70 480 -99 callsubr
        </CharString>
        <CharString name="H">
          65 callsubr
          -92 callgsubr
          endchar
        </CharString>
        <CharString name="H_uni0303">
          31 callgsubr
          52 60 callsubr
          hintmask 11100000
          -92 callgsubr
          hintmask 00001000
          114 718 -89 callgsubr
        </CharString>
        <CharString name="Hbar">
          0 83 callsubr
          79 62 61 61 hstem
          512 33 rmoveto
          -62 callsubr
          -13 vhcurveto
          -17 hlineto
          91 366 rlineto
          32 10 callsubr
          -31 44 callgsubr
          24 0 33 hvcurveto
          -15 -61 rlineto
          -211 44 callgsubr
          28 0 13 hvcurveto
          17 hlineto
          -15 -61 rlineto
          -32 10 callgsubr
          31 hlineto
          -91 -366 -55 callgsubr
          -17 hlineto
          57 226 95 callgsubr
          -57 -226 -36 callsubr
          -37 394 rmoveto
          -20 -79 rlineto
          -211 hlineto
          20 79 rlineto
          endchar
        </CharString>
        <CharString name="Hbrevebelow">
          -211 64 49 -20 118 35 callgsubr
          hstemhm
          hintmask 00111000
          -92 callgsubr
          hintmask 11000000
          -104 -159 -103 callgsubr
          endchar
        </CharString>
        <CharString name="Hcircumflex">
          31 callgsubr
          hstemhm
          -92 callgsubr
          56 688 -102 callgsubr
          endchar
        </CharString>
        <CharString name="Hdieresis">
          31 callgsubr
          52 81 hstemhm
          hintmask 11100000
          -92 callgsubr
          hintmask 00010000
          -123 674 -79 callsubr
        </CharString>
        <CharString name="Hdotbelow">
          -200 89 111 35 callgsubr
          hstemhm
          hintmask 01110000
          -92 callgsubr
          hintmask 10000000
          -244 -185 -99 callsubr
        </CharString>
        <CharString name="I">
          13 callsubr
          -97 callgsubr
          endchar
        </CharString>
        <CharString name="Iacute">
          -31 callsubr
          83 2 callgsubr
          hintmask 11000000
          -97 callgsubr
          hintmask 00110000
          -30 191 -107 callsubr
        </CharString>
        <CharString name="Ibreve">
          -31 callsubr
          62 64 49 -20 hstemhm
          hintmask 11000000
          -97 callgsubr
          hintmask 00110000
          37 175 -103 callgsubr
          endchar
        </CharString>
        <CharString name="Icaron">
          -31 callsubr
          hstemhm
          -97 callgsubr
          -22 125 -79 callgsubr
        </CharString>
        <CharString name="Icircumflex">
          -31 callsubr
          hstemhm
          -97 callgsubr
          -24 138 -102 callgsubr
          endchar
        </CharString>
        <CharString name="Idblgrave">
          -31 callsubr
          hstemhm
          -97 callgsubr
          2 102 -74 callsubr
        </CharString>
        <CharString name="Idieresis">
          67 callsubr
          81 hstemhm
          hintmask 11000000
          -97 callgsubr
          hintmask 00100000
          -203 -21 callsubr
        </CharString>
        <CharString name="Idieresisacute">
          67 callsubr
          66 callsubr
          hintmask 11000000
          -97 callgsubr
          hintmask 00111000
          -203 -41 callsubr
          27 199 -107 callsubr
        </CharString>
        <CharString name="Idotaccent">
          -31 callsubr
          63 89 hstemhm
          hintmask 11000000
          -97 callgsubr
          hintmask 00100000
          -105 139 -99 callsubr
        </CharString>
        <CharString name="Idotbelow">
          15 callsubr
          -97 callgsubr
          hintmask 10000000
          -324 -735 -99 callsubr
        </CharString>
        <CharString name="Igrave">
          -31 callsubr
          83 2 callgsubr
          hintmask 11000000
          -97 callgsubr
          hintmask 00110000
          -45 130 -99 callgsubr
        </CharString>
        <CharString name="Ihookabove">
          -31 callsubr
          84 89 callsubr
          hintmask 11000000
          -97 callgsubr
          hintmask 00110000
          -21 234 -107 callgsubr
        </CharString>
        <CharString name="Imacron">
          -31 callsubr
          72 63 hstemhm
          hintmask 11000000
          -97 callgsubr
          hintmask 00100000
          39 135 -86 callgsubr
        </CharString>
        <CharString name="Imacron.alt">
          -31 callsubr
          72 63 hstemhm
          hintmask 11000000
          -97 callgsubr
          hintmask 00100000
          -36 135 29 callsubr
        </CharString>
        <CharString name="Iogonek">
          -233 60 173 -34 callgsubr
          hstem
          592 -65 callsubr
          -286 -101 callsubr
          101 hlineto
          -68 callsubr
          -115 -96 callgsubr
          73 hlineto
          -48 -33 -39 -50 80 callsubr
          -73 callsubr
          50 32 50 47 30 hvcurveto
          154 -72 callgsubr
          -101 -28 callgsubr
          115 -29 callsubr
          endchar
        </CharString>
        <CharString name="Iogonekacute">
          -233 60 173 -34 callgsubr
          83 87 callsubr
          592 -65 callsubr
          -286 -101 callsubr
          101 hlineto
          -68 callsubr
          -115 -96 callgsubr
          73 hlineto
          -48 -33 -39 -50 80 callsubr
          -73 callsubr
          50 32 50 47 30 hvcurveto
          154 -72 callgsubr
          -101 -28 callgsubr
          115 -29 callsubr
          hintmask 00011000
          -30 191 -107 callsubr
        </CharString>
        <CharString name="Iota">
          13 callsubr
          -97 callgsubr
          endchar
        </CharString>
        <CharString name="Itilde">
          67 callsubr
          60 callsubr
          hintmask 11000000
          -97 callgsubr
          hintmask 00010000
          34 168 -103 callsubr
        </CharString>
        <CharString name="J">
          51 callsubr
          hstem
          94 92 vstem
          -58 callgsubr
          endchar
        </CharString>
        <CharString name="J_uni030C.cap">
          -11 61 384 -21 104 94 -61 61 hstemhm
          94 92 hintmask 10011000
          -58 callgsubr
          155 -30 -20 callsubr
        </CharString>
        <CharString name="Jacute">
          51 callsubr
          83 2 callgsubr
          94 92 hintmask 11001000
          -58 callgsubr
          hintmask 00110000
          23 191 -107 callsubr
        </CharString>
        <CharString name="Jcircumflex">
          51 callsubr
          hstemhm
          94 92 vstemhm
          -58 callgsubr
          29 138 -102 callgsubr
          endchar
        </CharString>
        <CharString name="K">
          13 callsubr
          -72 callsubr
          endchar
        </CharString>
        <CharString name="Kappa">
          13 callsubr
          -72 callsubr
          endchar
        </CharString>
        <CharString name="Kcedilla">
          41 callsubr
          hstem
          -72 callsubr
          -204 -124 -97 callsubr
        </CharString>
        <CharString name="Kcommaaccent">
          44 callsubr
          -72 callsubr
          hintmask 11000000
          -204 -124 -97 callsubr
        </CharString>
        <CharString name="L">
          13 callsubr
          -84 callgsubr
          endchar
        </CharString>
        <CharString name="L_uni0303">
          67 callsubr
          60 callsubr
          hintmask 11000000
          -84 callgsubr
          hintmask 00010000
          14 736 -103 callsubr
        </CharString>
        <CharString name="Lacute">
          -31 callsubr
          83 2 callgsubr
          hintmask 11000000
          -84 callgsubr
          hintmask 00110000
          -50 759 -107 callsubr
        </CharString>
        <CharString name="Lambda">
          0 61 562 -20 hstemhm
          313 71 0 71 hintmask 11010000
          504 33 rmoveto
          28 -25 0 -24 vhcurveto
          37 vlineto
          9 495 rlineto
          30 -24 0 -17 vhcurveto
          -10 hlineto
          -22 -18 0 -35 -17 hvcurveto
          -255 -527 rlineto
          -23 -96 callgsubr
          108 17 callsubr
          28 -24 0 -31 hvcurveto
          145 304 70 148 6 15 3 10 rlinecurve
          1 -1 -7 -59 -2 -186 -1 -75 rlinecurve
          -3 -129 rlineto
          -27 -29 vlineto
          hintmask 10100000
          -93 callgsubr
          108 82 callgsubr
        </CharString>
        <CharString name="Lcaron">
          0 61 373 -21 104 94 -61 61 hstemhm
          hintmask 10010000
          -84 callgsubr
          101 538 -20 callsubr
        </CharString>
        <CharString name="Lcedilla">
          41 callsubr
          hstem
          -84 callgsubr
          -193 -106 -97 callsubr
        </CharString>
        <CharString name="Lcommaaccent">
          44 callsubr
          -84 callgsubr
          hintmask 11000000
          -193 -106 -97 callsubr
        </CharString>
        <CharString name="Ldot">
          0 61 211 89 189 61 hstem
          -84 callgsubr
          38 305 -99 callsubr
        </CharString>
        <CharString name="Ldotbelow">
          15 callsubr
          -84 callgsubr
          hintmask 10000000
          -225 -167 -99 callsubr
        </CharString>
        <CharString name="Ldotbelowmacron">
          16 callsubr
          72 63 hstemhm
          hintmask 11100000
          -84 callgsubr
          -225 -167 -100 callsubr
          hintmask 00010000
          254 870 -86 callgsubr
        </CharString>
        <CharString name="Lslash">
          13 callsubr
          176 244 vstem
          493 15 rmoveto
          2 4 30 119 5 vvcurveto
          28 -29 0 -6 -28 -2 -10 -34 -9 vhcurveto
          -17 -66 rlineto
          -240 hlineto
          63 253 183 122 64 callgsubr
          -128 -86 rcurveline
          37 150 rlineto
          63 -15 callgsubr
          -162 -96 callgsubr
          29 hlineto
          -52 -210 -93 -63 63 callsubr
          39 25 rcurveline
          -49 -193 rlineto
          -44 -101 callsubr
          377 hlineto
          16 13 0 15 8 hvcurveto
          endchar
        </CharString>
        <CharString name="M">
          13 callsubr
          -69 callsubr
          endchar
        </CharString>
        <CharString name="Mdotbelow">
          15 callsubr
          -69 callsubr
          hintmask 10000000
          -386 -735 -99 callsubr
        </CharString>
        <CharString name="Mu">
          13 callsubr
          -69 callsubr
          endchar
        </CharString>
        <CharString name="N">
          13 callsubr
          -95 callgsubr
          endchar
        </CharString>
        <CharString name="Nacute">
          -31 callsubr
          83 2 callgsubr
          hintmask 11000000
          -95 callgsubr
          hintmask 00110000
          -81 191 -107 callsubr
        </CharString>
        <CharString name="Ncaron">
          -31 callsubr
          hstemhm
          -95 callgsubr
          -73 125 -79 callgsubr
        </CharString>
        <CharString name="Ncedilla">
          41 callsubr
          hstem
          -95 callgsubr
          -343 -674 -97 callsubr
        </CharString>
        <CharString name="Ncommaaccent">
          44 callsubr
          -95 callgsubr
          hintmask 11000000
          -343 -674 -97 callsubr
        </CharString>
        <CharString name="Ndotaccent">
          67 callsubr
          89 hstemhm
          hintmask 11000000
          -95 callgsubr
          hintmask 00100000
          -159 128 -99 callsubr
        </CharString>
        <CharString name="Ndotbelow">
          15 callsubr
          -95 callgsubr
          hintmask 10000000
          -375 -735 -99 callsubr
        </CharString>
        <CharString name="Ntilde">
          67 callsubr
          60 callsubr
          hintmask 11000000
          -95 callgsubr
          hintmask 00010000
          -17 168 -103 callsubr
        </CharString>
        <CharString name="Nu">
          13 callsubr
          -95 callgsubr
          endchar
        </CharString>
        <CharString name="O">
          50 callsubr
          9 callgsubr
          vstem
          -102 callsubr
          endchar
        </CharString>
        <CharString name="OE">
          -56 callsubr
        </CharString>
        <CharString name="OE.dup">
          -56 callsubr
        </CharString>
        <CharString name="Oacute">
          85 callsubr
          92 75 345 74 hintmask 11001100
          -102 callsubr
          hintmask 00110000
          121 597 -107 callsubr
        </CharString>
        <CharString name="Obreve">
          5 callgsubr
          51 64 49 -20 20 callgsubr
          hintmask 11001100
          -102 callsubr
          hintmask 00110000
          188 581 -103 callgsubr
          endchar
        </CharString>
        <CharString name="Ocaron">
          -11 7 callgsubr
          vstemhm
          -102 callsubr
          129 531 -79 callgsubr
        </CharString>
        <CharString name="Ocircumflex">
          -11 7 callgsubr
          vstemhm
          -102 callsubr
          127 544 -102 callgsubr
          endchar
        </CharString>
        <CharString name="Ocircumflexacute">
          5 callgsubr
          297 -20 20 callgsubr
          hintmask 11011000
          -102 callsubr
          hintmask 00100000
          127 544 -102 callgsubr
          23 165 -107 callsubr
        </CharString>
        <CharString name="Ocircumflexdotbelow">
          -200 89 100 7 callgsubr
          hintmask 01111000
          -102 callsubr
          127 544 -102 callgsubr
          hintmask 10000000
          -300 -873 -99 callsubr
        </CharString>
        <CharString name="Ocircumflexgrave">
          -11 7 callgsubr
          vstemhm
          -102 callsubr
          127 544 -81 callgsubr
        </CharString>
        <CharString name="Ocircumflexhookabove">
          5 callgsubr
          373 -20 20 callgsubr
          hintmask 11011000
          -102 callsubr
          hintmask 00101000
          127 544 -102 callgsubr
          131 187 -107 callgsubr
        </CharString>
        <CharString name="Ocircumflextilde">
          5 callgsubr
          183 65 -10 65 20 callgsubr
          hintmask 11001100
          -102 callsubr
          hintmask 00010000
          127 544 -102 callgsubr
          94 172 -103 callsubr
        </CharString>
        <CharString name="Odblgrave">
          -11 7 callgsubr
          vstemhm
          -102 callsubr
          153 508 -74 callsubr
        </CharString>
        <CharString name="Odieresis">
          5 callgsubr
          41 81 20 callgsubr
          hintmask 11011000
          -102 callsubr
          hintmask 00100000
          -52 530 -79 callsubr
        </CharString>
        <CharString name="Odotbelow">
          -200 89 100 7 callgsubr
          hintmask 01111000
          -102 callsubr
          hintmask 10000000
          -173 -329 -99 callsubr
        </CharString>
        <CharString name="Ograve">
          85 callsubr
          92 75 345 74 hintmask 11001100
          -102 callsubr
          hintmask 00110000
          106 536 -99 callgsubr
        </CharString>
        <CharString name="Ohookabove">
          5 callgsubr
          73 -21 230 -20 20 callgsubr
          hintmask 11001100
          -102 callsubr
          hintmask 00110000
          130 640 -107 callgsubr
        </CharString>
        <CharString name="Ohorn">
          5 callgsubr
          89 -20 30 callgsubr
          hintmask 11011000
          -58 callsubr
          hintmask 11110100
          -70 callgsubr
          hintmask 00001000
          -19 callsubr
          endchar
        </CharString>
        <CharString name="Ohornacute">
          5 callgsubr
          72 -21 38 -20 116 -20 30 callgsubr
          hintmask 11000110
          -58 callsubr
          hintmask 11010101
          -70 callgsubr
          hintmask 00000010
          -19 callsubr
          hintmask 00101000
          -149 138 -107 callsubr
        </CharString>
        <CharString name="Ohorndotbelow">
          -200 89 100 20 callsubr
          89 -20 30 callgsubr
          hintmask 01101100
          -58 callsubr
          hintmask 01111010
          -70 callgsubr
          hintmask 00000100
          -19 callsubr
          hintmask 10000000
          -398 -788 -99 callsubr
        </CharString>
        <CharString name="Ohorngrave">
          5 callgsubr
          72 -21 38 -20 116 -20 30 callgsubr
          hintmask 11000110
          -58 callsubr
          hintmask 11010101
          -70 callgsubr
          hintmask 00000010
          -19 callsubr
          hintmask 00101000
          -164 77 -99 callgsubr
        </CharString>
        <CharString name="Ohornhookabove">
          5 callgsubr
          73 -21 37 -20 213 -20 30 callgsubr
          hintmask 11000110
          -58 callsubr
          hintmask 11010101
          -70 callgsubr
          hintmask 00000010
          -19 callsubr
          hintmask 00101000
          -111 181 -107 callgsubr
        </CharString>
        <CharString name="Ohorntilde">
          5 callgsubr
          41 65 -10 65 30 callgsubr
          hintmask 11001100
          -58 callsubr
          hintmask 11101010
          -70 callgsubr
          hintmask 00000100
          -19 callsubr
          hintmask 00010000
          -85 115 -103 callsubr
        </CharString>
        <CharString name="Ohungarumlaut">
          -11 7 callgsubr
          vstemhm
          -102 callsubr
          -11 624 -39 callgsubr
        </CharString>
        <CharString name="Omacron">
          5 callgsubr
          61 63 20 callgsubr
          hintmask 11011000
          -102 callsubr
          hintmask 00100000
          190 541 -86 callgsubr
        </CharString>
        <CharString name="Omega">
          -49 callsubr
        </CharString>
        <CharString name="Omicron">
          50 callsubr
          9 callgsubr
          vstem
          -102 callsubr
          endchar
        </CharString>
        <CharString name="Oogonek">
          50 callsubr
          9 callgsubr
          vstem
          -35 callsubr
          endchar
        </CharString>
        <CharString name="Oogonekacute">
          85 callsubr
          92 75 345 74 hintmask 11001100
          -35 callsubr
          hintmask 00110000
          121 597 -107 callsubr
        </CharString>
        <CharString name="Orogate">
          9 callgsubr
          vstem
          27 callgsubr
          77 -41 16 -96 3 vhcurveto
          30 122 rlineto
          17 -14 14 -17 -15 -12 -10 -14 -3 vhcurveto
          -33 -129 -119 -4 -37 -25 -41 -99 rlinecurve
          -27 -66 -69 -256 -87 vvcurveto
          -75 38 -18 97 -3 vhcurveto
          -29 -121 85 callgsubr
          32 129 114 3 41 23 40 94 rlinecurve
          -45 68 rmoveto
          -97 -34 -22 -30 -110 hhcurveto
          -84 -24 18 51 71 56 203 14 41 hvcurveto
          106 34 26 21 105 hhcurveto
          82 28 -11 -57 -74 -63 -218 -8 -24 hvcurveto
          endchar
        </CharString>
        <CharString name="Oslash">
          -64 -21 74 20 callsubr
          74 -20 hstem
          92 63 368 63 vstem
          -71 callgsubr
          endchar
        </CharString>
        <CharString name="Oslash.dup">
          -64 -21 74 20 callsubr
          74 -20 hstem
          92 63 368 63 vstem
          -71 callgsubr
          endchar
        </CharString>
        <CharString name="Oslashacute">
          -64 -21 74 20 callsubr
          72 -21 23 -20 131 -20 hstemhm
          92 63 368 63 hintmask 11101011
          -71 callgsubr
          hintmask 00010100
          84 624 -107 callsubr
        </CharString>
        <CharString name="Otilde">
          5 callgsubr
          41 65 -10 65 20 callgsubr
          hintmask 11001100
          -102 callsubr
          hintmask 00010000
          185 574 -103 callsubr
        </CharString>
        <CharString name="P">
          -24 callgsubr
        </CharString>
        <CharString name="Phi">
          13 callsubr
          113 71 310 71 vstem
          565 331 rmoveto
          57 -52 57 -101 11 vhcurveto
          23 94 rlineto
          46 hlineto
          18 25 71 callgsubr
          -16 hvcurveto
          -147 hlineto
          -18 -26 0 -33 -18 15 -9 9 -1 hvcurveto
          50 hlineto
          -24 -93 rlineto
          -142 -19 -86 -84 -74 vvcurveto
          -50 42 -62 111 -13 vhcurveto
          -23 -94 rlineto
          -46 hlineto
          -16 -28 -78 callgsubr
          15 hvcurveto
          147 hlineto
          17 27 0 33 12 -9 13 -15 3 hvcurveto
          -50 hlineto
          24 93 rlineto
          140 19 88 83 75 vvcurveto
          -239 64 rmoveto
          -45 -179 rlineto
          -46 7 -51 25 44 vvcurveto
          50 67 42 75 11 vhcurveto
          168 -76 rmoveto
          -55 -79 -40 -63 -8 vhcurveto
          45 179 rlineto
          46 -7 51 -26 -43 vvcurveto
          endchar
        </CharString>
        <CharString name="Pi">
          13 callsubr
          512 33 rmoveto
          -62 callsubr
          -13 vhcurveto
          -17 hlineto
          122 489 -42 callsubr
          -401 -96 callgsubr
          17 hlineto
          -122 -489 -55 callgsubr
          -17 -28 callgsubr
          211 hlineto
          -122 -489 -36 callsubr
          endchar
        </CharString>
        <CharString name="Psi">
          0 61 361 61 67 61 hstem
          160 69 vstem
          601 455 rmoveto
          28 -30 0 -6 -52 -23 -36 -67 -18 vhcurveto
          -12 -45 -23 -85 -83 -28 81 328 rcurveline
          40 hlineto
          16 28 0 33 -62 callsubr
          -15 hvcurveto
          -136 hlineto
          -17 -26 0 -33 -13 9 -11 12 -3 hvcurveto
          -1 4 27 0 16 hhcurveto
          -83 -333 rlineto
          -44 11 -9 35 34 vvcurveto
          22 4 20 6 28 vhcurveto
          8 31 0 9 12 vvcurveto
          45 -22 19 -37 -8 -30 0 -33 -15 12 -12 15 -2 vhcurveto
          -15 -1 -8 -7 -29 vhcurveto
          -7 -31 -2 -22 -18 vvcurveto
          -68 30 -55 76 -18 vhcurveto
          -23 -96 rlineto
          -40 hlineto
          -17 -27 0 -33 -28 27 0 16 hvcurveto
          135 hlineto
          18 26 0 33 12 -8 11 -13 4 hvcurveto
          1 -4 -27 0 -16 hhcurveto
          23 93 142 23 41 115 18 67 rlinecurve
          17 59 9 2 13 3 rrcurveto
          16 3 9 13 16 vvcurveto
          endchar
        </CharString>
        <CharString name="Q">
          -118 -21 128 20 callsubr
          hstem
          92 75 344 75 vstem
          526 230 rmoveto
          12 45 48 176 75 vvcurveto
          85 -50 11 -118 -146 -40 -21 -107 -44 vhcurveto
          -27 -66 -69 -256 -87 vvcurveto
          -83 47 -13 121 13 32 0 1 11 vhcurveto
          32 -115 rlineto
          -14 5 11 0 16 hhcurveto
          9 hlineto
          11 26 0 24 6 -29 98 -4 15 hvcurveto
          50 20 35 29 48 177 rrcurveto
          -65 16 rmoveto
          -41 -152 -25 -15 -21 -11 -6 21 -14 52 -7 20 rrcurveto
          10 -3 -3 0 -19 hhcurveto
          -11 hlineto
          -11 -26 0 -24 hvcurveto
          25 -97 rlineto
          -33 hlineto
          -99 0 37 33 57 callgsubr
          -60 -36 -135 -14 -51 hvcurveto
          endchar
        </CharString>
        <CharString name="R">
          -101 callgsubr
          endchar
        </CharString>
        <CharString name="Racute">
          -101 callgsubr
          hintmask 11100000
          84 310 -107 callsubr
        </CharString>
        <CharString name="Rcaron">
          -101 callgsubr
          hintmask 11100000
          92 244 -79 callgsubr
        </CharString>
        <CharString name="Rcedilla">
          -101 callgsubr
          -178 -555 -97 callsubr
        </CharString>
        <CharString name="Rcommaaccent">
          -101 callgsubr
          hintmask 11100000
          -178 -555 -97 callsubr
        </CharString>
        <CharString name="Rdblgrave">
          -101 callgsubr
          hintmask 11100000
          87 221 -74 callsubr
        </CharString>
        <CharString name="Rdotaccent">
          -101 callgsubr
          hintmask 11100000
          9 258 -99 callsubr
        </CharString>
        <CharString name="Rdotbelow">
          -101 callgsubr
          hintmask 11100000
          -210 -616 -99 callsubr
        </CharString>
        <CharString name="Rdotbelowmacron">
          -101 callgsubr
          -210 -616 -100 callsubr
          hintmask 11100000
          363 870 -86 callgsubr
        </CharString>
        <CharString name="Rho">
          -24 callgsubr
        </CharString>
        <CharString name="S">
          50 callsubr
          163 66 223 67 vstem
          -94 callgsubr
          rrcurveto
          -47 56 86 0 16 hhcurveto
          133 97 113 97 hvcurveto
          endchar
        </CharString>
        <CharString name="Sacute">
          85 callsubr
          163 66 223 67 hintmask 11001100
          -94 callgsubr
          rrcurveto
          -47 56 86 0 16 hhcurveto
          133 97 113 97 hvcurveto
          hintmask 00110000
          43 575 -107 callsubr
        </CharString>
        <CharString name="Scaron">
          -11 33 callgsubr
          vstemhm
          -94 callgsubr
          rrcurveto
          -47 56 86 0 16 hhcurveto
          133 97 113 97 hvcurveto
          51 509 -79 callgsubr
        </CharString>
        <CharString name="Scedilla">
          50 callsubr
          163 66 223 67 vstem
          -94 callgsubr
          34 -29 46 -11 34 -4 rrcurveto
          -5 -18 -5 -20 -3 vvcurveto
          -55 callsubr
          1 3 1 5 2 5 rrcurveto
          119 13 84 105 90 vvcurveto
          endchar
        </CharString>
        <CharString name="Scircumflex">
          -11 33 callgsubr
          vstemhm
          -94 callgsubr
          rrcurveto
          -47 56 86 0 16 hhcurveto
          133 97 113 97 hvcurveto
          49 522 -102 callgsubr
          endchar
        </CharString>
        <CharString name="Sdotbelow">
          -200 89 100 33 callgsubr
          hintmask 01111000
          -94 callgsubr
          rrcurveto
          -47 56 86 0 16 hhcurveto
          133 97 113 97 hvcurveto
          hintmask 10000000
          -251 -351 -99 callsubr
        </CharString>
        <CharString name="Sigma">
          0 63 487 61 hstem
          498 48 rmoveto
          7 27 12 49 5 77 callgsubr
          -29 -3 -12 -25 -6 vhcurveto
          -14 -57 rlineto
          -275 hlineto
          181 218 rlineto
          8 10 4 4 11 vvcurveto
          3 0 2 -5 13 vhcurveto
          -77 226 rlineto
          285 54 callsubr
          -28 29 0 6 18 11 4 24 6 1 callgsubr
          -364 hlineto
          -13 -29 0 -33 0 1 -5 4 -11 hvcurveto
          85 -251 -215 -259 rlineto
          -8 -10 -4 -4 -10 28 callgsubr
          13 vhcurveto
          364 hlineto
          34 1 4 44 11 hvcurveto
          endchar
        </CharString>
        <CharString name="T">
          13 callsubr
          -90 callgsubr
          endchar
        </CharString>
        <CharString name="T_uni0303">
          67 callsubr
          60 callsubr
          hintmask 11000000
          -90 callgsubr
          hintmask 00010000
          5 267 -103 callsubr
        </CharString>
        <CharString name="T_uni0308">
          67 callsubr
          81 hstemhm
          hintmask 11000000
          -90 callgsubr
          hintmask 00100000
          -232 223 -79 callsubr
        </CharString>
        <CharString name="Tau">
          13 callsubr
          -90 callgsubr
          endchar
        </CharString>
        <CharString name="Tcaron">
          -31 callsubr
          hstemhm
          -90 callgsubr
          -51 224 -79 callgsubr
        </CharString>
        <CharString name="Tcedilla">
          -211 62 80 111 -42 -34 callgsubr
          hstemhm
          307 70 hintmask 00110000
          621 -45 callgsubr
          -392 hlineto
          -23 -11 0 -31 -8 hvcurveto
          -20 -81 rlineto
          -3 -10 48 callsubr
          -28 29 0 6 20 9 6 22 6 vhcurveto
          16 66 rlineto
          132 hlineto
          -68 callsubr
          -59 -101 callsubr
          51 hlineto
          -5 -17 -5 -21 -3 vvcurveto
          hintmask 11001000
          -55 callsubr
          hintmask 00110000
          1 3 2 6 1 5 rrcurveto
          51 -87 callgsubr
          -44 -28 callgsubr
          131 54 callsubr
          -28 29 0 6 18 11 4 24 6 vhcurveto
          endchar
        </CharString>
        <CharString name="Tdotbelow">
          15 callsubr
          -90 callgsubr
          hintmask 10000000
          -353 -636 -99 callsubr
        </CharString>
        <CharString name="Theta">
          -11 61 222 67 222 61 hstem
          92 75 344 75 cntrmask 11100000
          27 callgsubr
          85 -50 11 -118 -146 -40 -21 -107 -44 vhcurveto
          -17 callgsubr
          -58 34 rmoveto
          -74 -29 -31 -19 -93 hhcurveto
          -93 -15 20 50 57 callgsubr
          -70 -57 -216 -26 -63 hvcurveto
          2 128 rmoveto
          14 57 rlineto
          25 callgsubr
          3 vvcurveto
          11 -5 17 -30 -9 -24 0 -31 -3 vhcurveto
          -57 hlineto
          31 -2 -23 0 -10 hhcurveto
          -17 -13 -3 -26 -6 hvcurveto
          -14 -57 rlineto
          -1 -5 -2 -6 -4 vvcurveto
          -10 4 -18 31 8 24 0 31 4 vhcurveto
          57 hlineto
          -31 2 23 0 10 hhcurveto
          18 11 3 27 7 hvcurveto
          endchar
        </CharString>
        <CharString name="Thorn">
          0 61 62 61 244 61 61 61 hstem
          482 70 vstem
          552 350 rmoveto
          63 2 -62 76 -98 hhcurveto
          -115 44 callgsubr
          28 0 13 hvcurveto
          17 hlineto
          -122 -489 -55 callgsubr
          -17 hlineto
          15 62 rlineto
          125 hlineto
          155 87 120 107 -2 hvcurveto
          -70 -18 rmoveto
          -68 -71 -80 -102 vhcurveto
          -105 hlineto
          60 244 rlineto
          106 hlineto
          79 33 -47 -49 hvcurveto
          endchar
        </CharString>
        <CharString name="Tlinebelow">
          -186 63 123 -34 callgsubr
          hstemhm
          hintmask 01100000
          -90 callgsubr
          hintmask 10000000
          -207 -635 -86 callgsubr
        </CharString>
        <CharString name="U">
          51 callsubr
          hstem
          119 69 vstem
          667 -65 callsubr
          -130 -104 callgsubr
          37 hlineto
          13 29 0 33 hvcurveto
          endchar
        </CharString>
        <CharString name="U_uni032F">
          -190 -21 49 64 87 30 callsubr
          hintmask 00111000
          667 -65 callsubr
          -130 -104 callgsubr
          37 hlineto
          13 29 0 33 hvcurveto
          hintmask 11000000
          -271 -754 -70 callsubr
        </CharString>
        <CharString name="Uacute">
          51 callsubr
          83 2 callgsubr
          119 69 hintmask 11001000
          667 -65 callsubr
          -130 -104 callgsubr
          37 hlineto
          13 29 0 33 hvcurveto
          hintmask 00110000
          -105 191 -107 callsubr
        </CharString>
        <CharString name="Ubreve">
          51 callsubr
          62 64 49 -20 63 callgsubr
          hintmask 11001000
          667 -65 callsubr
          -130 -104 callgsubr
          37 hlineto
          13 29 0 33 hvcurveto
          hintmask 00110000
          -38 175 -103 callgsubr
          endchar
        </CharString>
        <CharString name="Ucaron">
          -11 30 callsubr
          vstemhm
          667 -65 callsubr
          -130 -104 callgsubr
          37 hlineto
          13 29 0 33 hvcurveto
          -97 125 -79 callgsubr
        </CharString>
        <CharString name="Ucircumflex">
          -11 30 callsubr
          vstemhm
          667 -65 callsubr
          -130 -104 callgsubr
          37 hlineto
          13 29 0 33 hvcurveto
          -99 138 -102 callgsubr
          endchar
        </CharString>
        <CharString name="Udblgrave">
          -11 30 callsubr
          vstemhm
          667 -65 callsubr
          -130 -104 callgsubr
          37 hlineto
          13 29 0 33 hvcurveto
          -73 102 -74 callsubr
        </CharString>
        <CharString name="Udieresis">
          51 callsubr
          52 81 63 callgsubr
          hintmask 11010000
          667 -65 callsubr
          -130 -104 callgsubr
          37 hlineto
          13 29 0 33 hvcurveto
          hintmask 00100000
          -43 callsubr
          endchar
        </CharString>
        <CharString name="Udieresisacute">
          51 callsubr
          52 66 callsubr
          119 69 hintmask 11000100
          667 -65 callsubr
          -130 -104 callgsubr
          37 hlineto
          13 29 0 33 hvcurveto
          hintmask 00111000
          -43 callsubr
          27 199 -107 callsubr
        </CharString>
        <CharString name="Udieresiscaron">
          51 callsubr
          52 81 63 callgsubr
          hintmask 11010000
          667 -65 callsubr
          -130 -104 callgsubr
          37 hlineto
          13 29 0 33 hvcurveto
          hintmask 00100000
          -43 callsubr
          35 133 -79 callgsubr
        </CharString>
        <CharString name="Udieresisgrave">
          51 callsubr
          52 66 callsubr
          119 69 hintmask 11000100
          667 -65 callsubr
          -130 -104 callgsubr
          37 hlineto
          13 29 0 33 hvcurveto
          hintmask 00111000
          -43 callsubr
          12 138 -99 callgsubr
        </CharString>
        <CharString name="Udotbelow">
          -200 89 100 30 callsubr
          hintmask 01110000
          667 -65 callsubr
          -130 -104 callgsubr
          37 hlineto
          13 29 0 33 hvcurveto
          hintmask 10000000
          -399 -735 -99 callsubr
        </CharString>
        <CharString name="Ugrave">
          51 callsubr
          83 2 callgsubr
          119 69 hintmask 11001000
          667 -65 callsubr
          -130 -104 callgsubr
          37 hlineto
          13 29 0 33 hvcurveto
          hintmask 00110000
          -120 130 -99 callgsubr
        </CharString>
        <CharString name="Uhookabove">
          51 callsubr
          84 89 callsubr
          119 69 hintmask 11001000
          667 -65 callsubr
          -130 -104 callgsubr
          37 hlineto
          13 29 0 33 hvcurveto
          hintmask 00110000
          -96 234 -107 callgsubr
        </CharString>
        <CharString name="Uhorn">
          51 callsubr
          100 -20 hstem
          119 69 405 99 vstem
          688 636 rmoveto
          2 9 2 9 9 vvcurveto
          23 -23 24 -23 1 vhcurveto
          -31 -1 -22 -28 -27 vvcurveto
          -16 6 -13 13 -8 vhcurveto
          -4 -4 -4 -3 -6 hhcurveto
          -102 -104 callgsubr
          14 15 3 0 hvcurveto
          36 14 25 30 10 39 rrcurveto
          endchar
        </CharString>
        <CharString name="Uhornacute">
          51 callsubr
          83 -21 38 -20 116 -20 63 callgsubr
          405 99 hintmask 11010110
          688 636 rmoveto
          2 9 2 9 9 vvcurveto
          23 -23 24 -23 1 vhcurveto
          -31 -1 -22 -28 -27 vvcurveto
          -16 6 -13 13 -8 vhcurveto
          -4 -4 -4 -3 -6 hhcurveto
          -102 -104 callgsubr
          14 15 3 0 hvcurveto
          36 14 25 30 10 39 rrcurveto
          hintmask 00101000
          -171 138 -107 callsubr
        </CharString>
        <CharString name="Uhorndotbelow">
          -200 89 100 48 callgsubr
          100 -20 63 callgsubr
          405 99 hintmask 01111100
          688 636 rmoveto
          2 9 2 9 9 vvcurveto
          23 -23 24 -23 1 vhcurveto
          -31 -1 -22 -28 -27 vvcurveto
          -16 6 -13 13 -8 vhcurveto
          -4 -4 -4 -3 -6 hhcurveto
          -102 -104 callgsubr
          14 15 3 0 hvcurveto
          36 14 25 30 10 39 rrcurveto
          hintmask 10000000
          -420 -788 -99 callsubr
        </CharString>
        <CharString name="Uhorngrave">
          51 callsubr
          83 -21 38 -20 116 -20 63 callgsubr
          405 99 hintmask 11010110
          688 636 rmoveto
          2 9 2 9 9 vvcurveto
          23 -23 24 -23 1 vhcurveto
          -31 -1 -22 -28 -27 vvcurveto
          -16 6 -13 13 -8 vhcurveto
          -4 -4 -4 -3 -6 hhcurveto
          -102 -104 callgsubr
          14 15 3 0 hvcurveto
          36 14 25 30 10 39 rrcurveto
          hintmask 00101000
          -186 77 -99 callgsubr
        </CharString>
        <CharString name="Uhornhookabove">
          51 callsubr
          84 -21 37 -20 213 -20 63 callgsubr
          405 99 hintmask 11010110
          688 636 rmoveto
          2 9 2 9 9 vvcurveto
          23 -23 24 -23 1 vhcurveto
          -31 -1 -22 -28 -27 vvcurveto
          -16 6 -13 13 -8 vhcurveto
          -4 -4 -4 -3 -6 hhcurveto
          -102 -104 callgsubr
          14 15 3 0 hvcurveto
          36 14 25 30 10 39 rrcurveto
          hintmask 00101000
          -133 181 -107 callgsubr
        </CharString>
        <CharString name="Uhorntilde">
          51 callsubr
          52 65 -10 65 63 callgsubr
          405 99 hintmask 11101100
          688 636 rmoveto
          2 9 2 9 9 vvcurveto
          23 -23 24 -23 1 vhcurveto
          -31 -1 -22 -28 -27 vvcurveto
          -16 6 -13 13 -8 vhcurveto
          -4 -4 -4 -3 -6 hhcurveto
          -102 -104 callgsubr
          14 15 3 0 hvcurveto
          36 14 25 30 10 39 rrcurveto
          hintmask 00010000
          -107 115 -103 callsubr
        </CharString>
        <CharString name="Uhungarumlaut">
          -11 30 callsubr
          vstemhm
          667 -65 callsubr
          -130 -104 callgsubr
          37 hlineto
          13 29 0 33 hvcurveto
          -237 218 -39 callgsubr
        </CharString>
        <CharString name="Umacron">
          51 callsubr
          72 63 63 callgsubr
          hintmask 11010000
          667 -65 callsubr
          -130 -104 callgsubr
          37 hlineto
          13 29 0 33 hvcurveto
          hintmask 00100000
          -36 135 -86 callgsubr
        </CharString>
        <CharString name="Uogonek">
          -233 60 723 61 hstem
          119 69 vstem
          667 -65 callsubr
          -14 callsubr
          -339 rlineto
          -93 -23 -78 -68 -64 hhcurveto
          -48 -32 39 61 11 2 17 4 18 hvcurveto
          88 354 rlineto
          37 -87 callgsubr
          -14 callsubr
          -338 rlineto
          -8 -32 0 -22 -7 vvcurveto
          -75 40 -60 61 -20 vhcurveto
          -45 -33 -36 -48 -43 -48 callgsubr
          -73 callsubr
          44 25 45 38 30 hvcurveto
          107 1 99 100 26 105 88 355 rcurveline
          37 -29 callsubr
          endchar
        </CharString>
        <CharString name="Upsilon">
          0 61 509 52 hstem
          546 68 vstem
          614 526 rmoveto
          52 -30 44 -57 -53 -51 -37 -102 -39 vhcurveto
          -1 hlineto
          1 10 0 27 0 vvcurveto
          30 0 72 -76 -91 -58 -107 -33 -21 21 0 8 21 14 6 27 7 vhcurveto
          34 10 21 42 35 hhcurveto
          32 12 -27 -43 -47 -10 -40 -27 -109 hvcurveto
          -60 -243 rlineto
          -42 -96 callgsubr
          139 -72 callgsubr
          -28 hlineto
          80 322 rlineto
          17 4 42 170 74 hhcurveto
          27 6 -22 -21 -14 -2 -7 -3 -12 hvcurveto
          -3 -2 -6 -3 vvcurveto
          -21 21 0 8 19 27 3 62 vhcurveto
          endchar
        </CharString>
        <CharString name="Uring">
          51 callsubr
          12 45 78 45 63 callgsubr
          144 56 104 56 hintmask 11001000
          667 -65 callsubr
          -130 -104 callgsubr
          37 hlineto
          13 29 0 33 hvcurveto
          hintmask 00110110
          -175 132 rmoveto
          -27 -34 -20 -27 -26 -17 14 17 24 29 23 32 11 32 -19 callgsubr
        </CharString>
        <CharString name="Utilde">
          51 callsubr
          52 65 -10 65 63 callgsubr
          hintmask 11001000
          667 -65 callsubr
          -130 -104 callgsubr
          37 hlineto
          13 29 0 33 hvcurveto
          hintmask 00010000
          -41 168 -103 callsubr
        </CharString>
        <CharString name="V">
          91 callgsubr
          hstem
          212 72 vstem
          653 -65 callsubr
          -103 19 callsubr
          25 0 23 hvcurveto
          -168 -337 -18 -37 -33 -65 -16 -38 rlinecurve
          -1 1 rlineto
          4 31 0 54 36 vvcurveto
          324 vlineto
          10 0 11 -1 10 vhcurveto
          21 callgsubr
          -103 19 callsubr
          25 0 24 hvcurveto
          -33 vlineto
          3 -410 rlineto
          -69 vlineto
          -37 1 0 -9 45 hhcurveto
          26 18 0 33 17 hvcurveto
          266 525 rlineto
          23 -29 callsubr
          endchar
        </CharString>
        <CharString name="W">
          91 callgsubr
          hstem
          -83 callsubr
          endchar
        </CharString>
        <CharString name="Wacute">
          91 callgsubr
          83 2 callgsubr
          hintmask 11000000
          -83 callsubr
          hintmask 00110000
          -97 191 -107 callsubr
        </CharString>
        <CharString name="Wcircumflex">
          91 callgsubr
          hstemhm
          -83 callsubr
          -91 138 -102 callgsubr
          endchar
        </CharString>
        <CharString name="Wdieresis">
          91 callgsubr
          52 81 hstemhm
          hintmask 11000000
          -83 callsubr
          hintmask 00100000
          -270 -21 callsubr
        </CharString>
        <CharString name="Wgrave">
          91 callgsubr
          83 2 callgsubr
          hintmask 11000000
          -83 callsubr
          hintmask 00110000
          -112 130 -99 callgsubr
        </CharString>
        <CharString name="X">
          -38 callgsubr
        </CharString>
        <CharString name="Xi">
          0 59 47 -20 202 59 184 -21 42 59 hstem
          623 535 rmoveto
          3 12 8 31 5 vvcurveto
          -62 callsubr
          -13 vhcurveto
          -370 hlineto
          -16 -16 0 -21 -7 hvcurveto
          -3 -7 -10 -40 -5 vvcurveto
          -11 5 -17 30 12 23 0 42 4 vhcurveto
          311 hlineto
          -1 -2 -2 -9 -3 vvcurveto
          -11 5 -17 30 20 9 5 20 6 vhcurveto
          -124 -510 rmoveto
          2 8 11 41 4 vvcurveto
          11 -6 17 -29 -21 -12 -4 -43 -7 vhcurveto
          -319 hlineto
          1 5 3 8 6 vvcurveto
          11 -5 17 -30 -12 -16 0 -25 -7 vhcurveto
          -5 -22 -7 -24 -7 28 callgsubr
          13 vhcurveto
          378 hlineto
          19 15 0 25 6 hvcurveto
          -9 267 rmoveto
          2 8 13 50 4 vvcurveto
          -62 callsubr
          -7 -10 -25 0 -35 -2 vhcurveto
          -167 hlineto
          16 0 19 -34 -15 -14 0 -29 -7 vhcurveto
          -14 -57 rlineto
          -1 -5 -2 -6 -4 28 callgsubr
          7 9 25 0 35 3 vhcurveto
          167 -6 hlineto
          0 -5 -29 39 28 2 9 30 8 vhcurveto
          endchar
        </CharString>
        <CharString name="Y">
          13 callsubr
          -90 callsubr
          endchar
        </CharString>
        <CharString name="Yacute">
          -31 callsubr
          83 2 callgsubr
          hintmask 11000000
          -90 callsubr
          hintmask 00110000
          -90 191 -107 callsubr
        </CharString>
        <CharString name="Ycircumflex">
          -31 callsubr
          hstemhm
          -90 callsubr
          -84 138 -102 callgsubr
          endchar
        </CharString>
        <CharString name="Ydieresis">
          67 callsubr
          81 hstemhm
          hintmask 11000000
          -90 callsubr
          hintmask 00100000
          -263 -21 callsubr
        </CharString>
        <CharString name="Ydotbelow">
          15 callsubr
          -90 callsubr
          hintmask 10000000
          -384 -735 -99 callsubr
        </CharString>
        <CharString name="Ygrave">
          -31 callsubr
          83 2 callgsubr
          hintmask 11000000
          -90 callsubr
          hintmask 00110000
          -105 130 -99 callgsubr
        </CharString>
        <CharString name="Yhookabove">
          -31 callsubr
          84 89 callsubr
          hintmask 11000000
          -90 callsubr
          hintmask 00110000
          -81 234 -107 callgsubr
        </CharString>
        <CharString name="Ytilde">
          67 callsubr
          60 callsubr
          hintmask 11000000
          -90 callsubr
          hintmask 00010000
          -26 168 -103 callsubr
        </CharString>
        <CharString name="Z">
          13 callsubr
          54 570 vstem
          -80 callsubr
          endchar
        </CharString>
        <CharString name="Zacute">
          -31 callsubr
          83 2 callgsubr
          54 570 hintmask 11001000
          -80 callsubr
          hintmask 00110000
          43 628 -107 callsubr
        </CharString>
        <CharString name="Zcaron">
          -31 callsubr
          hstemhm
          54 570 vstemhm
          -80 callsubr
          51 562 -79 callgsubr
        </CharString>
        <CharString name="Zdotaccent">
          -31 callsubr
          63 89 hstemhm
          54 570 hintmask 11010000
          -80 callsubr
          hintmask 00100000
          -32 576 -99 callsubr
        </CharString>
        <CharString name="Zdotbelow">
          18 callsubr
          54 570 hintmask 01110000
          -80 callsubr
          hintmask 10000000
          -251 -298 -99 callsubr
        </CharString>
        <CharString name="Zeta">
          13 callsubr
          54 570 vstem
          -80 callsubr
          endchar
        </CharString>
        <CharString name="a">
          50 callgsubr
          116 68 vstem
          -106 callsubr
          endchar
        </CharString>
        <CharString name="aacute">
          32 callsubr
          116 68 hintmask 11001000
          -106 callsubr
          hintmask 00110000
          137 303 -107 callsubr
        </CharString>
        <CharString name="abreve">
          -65 callgsubr
          62 64 49 -20 95 callsubr
          hintmask 11001000
          -106 callsubr
          hintmask 00110000
          206 -20 callgsubr
          endchar
        </CharString>
        <CharString name="abreveacute">
          -65 callgsubr
          62 64 203 -51 callgsubr
          -33 149 -107 callsubr
        </CharString>
        <CharString name="abrevedotbelow">
          11 callgsubr
          62 64 49 -20 95 callsubr
          hintmask 01111100
          -106 callsubr
          206 -20 callgsubr
          hintmask 10000000
          -317 -736 -99 callsubr
        </CharString>
        <CharString name="abrevegrave">
          -65 callgsubr
          62 64 49 -51 callgsubr
          -48 88 rmoveto
          -9 -4 -19 -31 -27 hhcurveto
          -6 -2 2 3 -7 hvcurveto
          -121 59 -18 9 -1 13 8 15 rlinecurve
          21 10 22 12 17 hhcurveto
          7 3 -2 -3 7 hvcurveto
          119 -60 12 -6 9 -5 -9 -18 rlinecurve
          endchar
        </CharString>
        <CharString name="abrevehookabove">
          -65 callgsubr
          62 64 279 -51 callgsubr
          -29 171 -107 callgsubr
        </CharString>
        <CharString name="abrevetilde">
          -65 callgsubr
          62 64 89 65 -10 65 95 callsubr
          hintmask 11000100
          -106 callsubr
          hintmask 00101000
          207 298 rmoveto
          6 -4 22 -27 -20 -5 -11 -13 -5 vhcurveto
          -25 -12 -67 0 -49 hhcurveto
          -45 -34 0 11 -25 hvcurveto
          15 0 23 -30 -25 -7 -20 -20 -73 95 0 70 60 74 0 42 36 vhcurveto
          13 14 7 20 9 vvcurveto
          38 156 -89 callgsubr
        </CharString>
        <CharString name="acaron">
          -5 callsubr
          116 68 vstemhm
          -106 callsubr
          160 281 -74 callgsubr
        </CharString>
        <CharString name="acircumflex">
          -5 callsubr
          116 68 vstemhm
          -106 callsubr
          150 257 -80 callgsubr
          endchar
        </CharString>
        <CharString name="acircumflexacute">
          -65 callgsubr
          306 -20 -63 callgsubr
          145 259 -102 callgsubr
          23 165 -107 callsubr
        </CharString>
        <CharString name="acircumflexdotbelow">
          11 callgsubr
          95 callsubr
          hintmask 01110000
          -106 callsubr
          150 257 -80 callgsubr
          hintmask 10000000
          -261 -695 -99 callsubr
        </CharString>
        <CharString name="acircumflexgrave">
          -5 callsubr
          116 68 vstemhm
          -106 callsubr
          145 259 -81 callgsubr
        </CharString>
        <CharString name="acircumflexhookabove">
          -65 callgsubr
          382 -20 -63 callgsubr
          145 259 -102 callgsubr
          131 187 -107 callgsubr
        </CharString>
        <CharString name="acircumflextilde">
          -65 callgsubr
          192 65 -10 65 95 callsubr
          hintmask 11001000
          -106 callsubr
          hintmask 00010000
          145 259 -102 callgsubr
          94 172 -103 callsubr
        </CharString>
        <CharString name="acute">
          509 56 callgsubr
          hstem
          516 589 -107 callsubr
        </CharString>
        <CharString name="acute.cap">
          513 56 callgsubr
          hstem
          517 593 -107 callsubr
        </CharString>
        <CharString name="acute.dup">
          509 56 callgsubr
          hstem
          516 589 -107 callsubr
        </CharString>
        <CharString name="acute.ts1">
          499 -21 133 42 callsubr
          529 578 rmoveto
          16 -11 18 -21 vhcurveto
          hintmask 11000000
          -3 -5 -1 0 hvcurveto
          -14 -2 -13 -9 -12 -6 rrcurveto
          -41 -21 -78 -24 -33 vvcurveto
          -19 13 -19 19 vhcurveto
          2 hlineto
          15 1 14 11 13 6 76 37 rcurveline
          20 10 26 8 27 vvcurveto
          endchar
        </CharString>
        <CharString name="adblgrave">
          -5 callsubr
          116 68 vstemhm
          -106 callsubr
          169 211 -81 callsubr
        </CharString>
        <CharString name="adieresis">
          -65 callgsubr
          78 81 -63 callgsubr
          -13 273 -62 callgsubr
        </CharString>
        <CharString name="adotbelow">
          11 callgsubr
          95 callsubr
          hintmask 01110000
          -106 callsubr
          hintmask 10000000
          -111 -438 -99 callsubr
        </CharString>
        <CharString name="ae">
          50 callgsubr
          59 69 388 57 vstem
          -66 callgsubr
          endchar
        </CharString>
        <CharString name="ae.dup">
          50 callgsubr
          59 69 388 57 vstem
          -66 callgsubr
          endchar
        </CharString>
        <CharString name="aeacute">
          32 callsubr
          59 69 388 57 hintmask 11001100
          -66 callgsubr
          hintmask 00110100
          193 234 -107 callsubr
        </CharString>
        <CharString name="agrave">
          32 callsubr
          116 68 hintmask 11001000
          -106 callsubr
          hintmask 00110000
          122 242 -99 callgsubr
        </CharString>
        <CharString name="ahookabove">
          -65 callgsubr
          24 89 callsubr
          116 68 hintmask 11001000
          -106 callsubr
          hintmask 00110000
          134 297 -107 callgsubr
        </CharString>
        <CharString name="amacron">
          -65 callgsubr
          87 63 -63 callgsubr
          212 273 -86 callgsubr
        </CharString>
        <CharString name="ampersand">
          -11 61 169 69 -17 61 229 61 hstemhm
          48 69 272 69 86 69 hintmask 11001110
          613 296 rmoveto
          41 -8 40 -24 34 vhcurveto
          63 59 25 94 14 vvcurveto
          25 -20 8 -13 -13 -16 -8 -20 -6 vhcurveto
          -32 -109 -38 -22 -57 -34 rrcurveto
          -34 -19 -51 -31 -60 vvcurveto
          -54 47 -35 50 32 7 26 10 18 -15 15 -18 -6 -6 -1 -4 -6 vhcurveto
          0 -16 7 18 vvcurveto
          24 16 11 50 27 vhcurveto
          18 -29 2 -34 -14 vvcurveto
          -78 -44 -165 -207 -113 -63 59 66 21 12 54 35 48 vhcurveto
          hintmask 10111010
          -18 22 29 -9 24 hhcurveto
          55 34 54 41 25 -15 40 -48 -16 -28 -4 -20 -34 hvcurveto
          82 4 64 72 52 hhcurveto
          7 15 -1 -9 12 hvcurveto
          -9 -9 -5 -12 -13 vvcurveto
          -28 22 -12 19 16 34 10 48 59 -57 28 -52 -104 -87 -116 -101 -27 7 -20 1 -2 vhcurveto
          -47 -51 -31 -79 -51 vvcurveto
          -96 86 -90 158 235 86 171 136 vhcurveto
          -354 73 rmoveto
          -22 -2 -10 -15 -9 hhcurveto
          -10 -13 6 7 -7 hvcurveto
          22 19 15 3 14 2 rrcurveto
          endchar
        </CharString>
        <CharString name="anglearc">
          102 -21 450 -20 hstem
          517 116 rmoveto
          3 14 -5 12 -10 5 -65 38 rcurveline
          24 38 18 41 11 42 10 42 3 41 -5 38 84 38 rcurveline
          13 5 10 12 4 14 rrcurveto
          27 callsubr
          -6 -6 -1 -3 -5 hvcurveto
          -84 -37 -3 10 -5 9 -4 9 rlinecurve
          8 -5 -8 5 -12 hhcurveto
          -19 -19 -16 -19 -5 hvcurveto
          -2 -8 1 -8 3 -6 2 -5 3 -5 2 -5 -273 -122 rcurveline
          -13 -5 -11 -12 -3 -14 -4 -14 5 -12 10 -5 213 -122 rcurveline
          -5 -5 -5 -5 -6 -5 -6 -6 -4 -8 -2 -8 rrcurveto
          69 callsubr
          11 12 5 8 8 hvcurveto
          9 9 9 9 8 10 65 -37 rcurveline
          -3 5 5 -1 5 hhcurveto
          20 19 16 19 5 hvcurveto
          -94 190 rmoveto
          -8 -31 -13 -30 -17 -29 -158 90 rcurveline
          203 90 3 -29 -3 -30 -7 -31 rlinecurve
          endchar
        </CharString>
        <CharString name="angleleft">
          -62 -21 777 42 callsubr
          408 -48 rmoveto
          18 -10 24 -5 19 vhcurveto
          -52 194 -16 60 rlineto
          -2 9 -5 10 9 vvcurveto
          14 38 41 20 25 vhcurveto
          170 222 23 30 rlineto
          8 10 7 10 13 vvcurveto
          18 -14 17 -19 vhcurveto
          hintmask 11000000
          -7 -1 -19 -3 -10 -18 -11 -14 rlinecurve
          -243 -318 -7 -9 -8 -9 -2 -12 rlinecurve
          -6 vlineto
          -14 6 -16 4 -14 vhcurveto
          24 -99 30 -98 25 -99 rrcurveto
          -22 4 8 -26 28 hhcurveto
          19 16 17 18 hvcurveto
          endchar
        </CharString>
        <CharString name="angleright">
          -62 -21 777 42 callsubr
          434 300 rmoveto
          4 vlineto
          20 -8 19 -5 18 vhcurveto
          -77 290 rlineto
          21 -7 -6 23 -25 hhcurveto
          hintmask 11000000
          -7 -1 rlineto
          -17 -3 -12 -15 -16 vvcurveto
          -20 10 -21 4 -19 vhcurveto
          30 -111 14 -52 11 -53 17 -51 rlinecurve
          1 -5 2 -5 -5 vvcurveto
          -3 vlineto
          -4 -3 -3 -2 -3 vhcurveto
          -12 -15 -232 -303 rlineto
          -8 -10 -9 -9 -15 vvcurveto
          -18 14 -17 20 -1 vhcurveto
          21 11 18 15 12 hvcurveto
          247 322 6 9 8 8 2 11 rlinecurve
          endchar
        </CharString>
        <CharString name="aogonek">
          33 callsubr
          hstem
          116 68 74 66 vstem
          -48 callsubr
          endchar
        </CharString>
        <CharString name="aogonekacute">
          33 callsubr
          13 callgsubr
          116 68 74 66 hintmask 11100110
          -48 callsubr
          hintmask 00011000
          137 303 -107 callsubr
        </CharString>
        <CharString name="aring">
          -65 callgsubr
          55 45 78 45 95 callsubr
          115 56 104 56 hintmask 11001000
          -106 callsubr
          hintmask 00110110
          80 298 -45 callsubr
        </CharString>
        <CharString name="aringacute">
          -65 callgsubr
          55 45 78 45 154 -20 95 callsubr
          116 56 104 56 hintmask 11000100
          -106 callsubr
          hintmask 00111011
          81 298 rmoveto
          -27 -34 -20 -27 -26 -17 14 17 24 29 23 32 11 32 -60 callsubr
          50 189 -107 callsubr
        </CharString>
        <CharString name="asciicircum">
          652 543 rmoveto
          -131 79 -6 3 -9 0 -9 -3 rlinecurve
          -195 -79 -43 -17 2 -52 42 15 rlinecurve
          178 65 124 -65 28 -15 46 52 -27 17 rlinecurve
          endchar
        </CharString>
        <CharString name="asciitilde">
          522 334 rmoveto
          13 -12 19 -19 -9 -5 -4 -7 -10 vhcurveto
          -10 -14 -46 -34 -23 hhcurveto
          -6 -5 4 8 -6 hvcurveto
          21 -15 -17 22 -36 hhcurveto
          -42 -54 -39 -23 -29 hvcurveto
          -9 -6 -8 -6 -14 vvcurveto
          -17 14 -15 16 10 4 3 10 14 vhcurveto
          24 31 32 18 16 hhcurveto
          7 4 -5 -9 7 hvcurveto
          -91 callsubr
        </CharString>
        <CharString name="asciitilde.low">
          460 88 rmoveto
          13 -12 19 -19 -9 -5 -4 -7 -10 vhcurveto
          -10 -14 -46 -34 -23 hhcurveto
          -6 -5 4 8 -6 hvcurveto
          21 -15 -17 22 -36 hhcurveto
          -42 -54 -39 -23 -29 hvcurveto
          -9 -6 -8 -6 -14 vvcurveto
          -17 14 -15 16 10 4 3 10 14 vhcurveto
          24 31 32 18 16 hhcurveto
          7 4 -5 -9 7 hvcurveto
          -91 callsubr
        </CharString>
        <CharString name="asterisk">
          111 -21 431 -20 hstem
          121 435 vstem
          511 222 rmoveto
          14 -8 5 -10 6 vhcurveto
          -93 58 124 59 rlineto
          26 12 6 16 12 vvcurveto
          8 -3 18 -23 -8 -1 -1 -7 -14 vhcurveto
          -125 -65 34 125 rlineto
          1 3 2 8 3 vvcurveto
          9 -6 16 -21 -32 -7 -31 -11 -3 vhcurveto
          -28 -122 -90 64 rlineto
          9 -12 -8 0 -3 hhcurveto
          -21 -21 -20 -21 -14 6 -4 10 -6 hvcurveto
          95 -60 -126 -59 rlineto
          -24 -12 -7 -16 -12 vvcurveto
          -8 6 -17 20 7 2 0 8 14 vhcurveto
          126 65 -33 -120 rlineto
          -4 -14 15 callgsubr
          -12 9 -13 17 10 26 6 33 7 vhcurveto
          28 125 90 -64 rlineto
          -9 12 6 0 5 hhcurveto
          21 21 21 20 hvcurveto
          endchar
        </CharString>
        <CharString name="asterisk.math">
          113 -21 430 -20 hstem
          483 225 rmoveto
          19 -15 7 -12 9 vhcurveto
          -39 30 -7 5 -8 7 -8 4 rlinecurve
          48 35 85 18 44 vvcurveto
          14 -9 12 -17 -17 -14 -11 -9 -14 vhcurveto
          -24 -14 -23 -15 -24 -14 7 34 11 33 9 34 rrcurveto
          3 9 4 10 10 vvcurveto
          17 -14 9 -11 -39 -6 -38 -30 -6 vhcurveto
          -7 -30 -8 -29 -5 -30 -16 15 -17 14 -17 15 rrcurveto
          8 -11 -8 12 -16 hhcurveto
          -21 -22 -19 -21 -19 15 -7 12 -9 hvcurveto
          39 -30 7 -5 8 -7 8 -4 rlinecurve
          -48 -35 -85 -18 -44 vvcurveto
          -14 9 -12 17 17 14 11 9 14 vhcurveto
          24 14 23 15 24 14 -7 -34 -11 -33 -9 -34 rrcurveto
          -3 -9 -4 -10 -10 vvcurveto
          -17 14 -9 11 39 6 38 30 6 vhcurveto
          7 30 8 29 5 30 16 -15 17 -14 17 -15 rrcurveto
          -8 11 8 -12 16 hhcurveto
          21 22 19 21 hvcurveto
          endchar
        </CharString>
        <CharString name="at">
          -6 61 51 61 277 61 51 61 hstem
          110 56 94 56 vstem
          501 80 rmoveto
          -62 callsubr
          -10 -18 -1 -1 -9 -13 vhcurveto
          -29 -38 -43 -14 -37 hhcurveto
          -90 -57 71 100 168 151 162 133 67 6 -54 -25 2 hvcurveto
          10 -10 -24 18 -36 hhcurveto
          -97 -98 -129 -129 -98 55 -43 55 71 61 69 46 24 hvcurveto
          40 75 17 118 46 vvcurveto
          32 -4 125 -127 -166 -176 -190 -204 -144 91 -85 111 29 44 6 23 47 vhcurveto
          24 11 45 22 24 vvcurveto
          8 282 rmoveto
          -96 -76 -99 -62 -38 -17 41 42 96 77 98 60 48 8 -60 -22 vhcurveto
          endchar
        </CharString>
        <CharString name="atilde">
          -65 callgsubr
          58 65 -10 65 95 callsubr
          hintmask 11001000
          -106 callsubr
          hintmask 00010000
          205 297 -103 callsubr
        </CharString>
        <CharString name="b">
          45 callsubr
          hstem
          136 68 224 69 vstem
          497 277 rmoveto
          94 -55 66 -78 -34 -37 -14 -24 -33 vhcurveto
          42 167 4 callsubr
          -83 -331 5 callsubr
        </CharString>
        <CharString name="backslash">
          70 callsubr
          223 232 vstem
          455 -48 rmoveto
          0 0 4 -4 16 vhcurveto
          -157 684 rlineto
          15 -3 -6 23 -27 hhcurveto
          -18 -17 -14 -21 -3 0 -2 4 -16 hvcurveto
          157 -684 rlineto
          -14 3 5 -23 28 hhcurveto
          21 14 17 18 hvcurveto
          endchar
        </CharString>
        <CharString name="baht">
          65 callsubr
          510 70 vstem
          529 203 rmoveto
          71 -50 35 -45 11 vhcurveto
          65 20 81 61 89 vvcurveto
          62 -43 59 -95 vhcurveto
          -4 hlineto
          16 62 rlineto
          58 callsubr
          -18 -17 -14 -17 -4 hvcurveto
          -16 -62 rlineto
          -167 -101 callsubr
          20 hlineto
          -68 callsubr
          -34 hlineto
          -15 -27 0 -33 -28 27 -59 callgsubr
          153 hlineto
          -15 -62 72 callsubr
          15 62 rlineto
          25 hlineto
          124 95 111 92 hvcurveto
          -19 274 rmoveto
          -47 -47 -71 -90 -10 vhcurveto
          50 201 rlineto
          87 0 -65 -8 hvcurveto
          -199 -129 rmoveto
          -63 hlineto
          50 202 rlineto
          63 hlineto
          99 -351 rmoveto
          -72 -67 -66 -90 vhcurveto
          -2 hlineto
          56 226 rlineto
          13 hlineto
          80 10 -62 -26 hvcurveto
          -221 -138 rmoveto
          -63 hlineto
          57 226 rlineto
          62 hlineto
          endchar
        </CharString>
        <CharString name="bar">
          70 callsubr
          216 247 vstem
          288 -47 rmoveto
          -17 callsubr
          endchar
        </CharString>
        <CharString name="bigcircle">
          0 38 449 38 hstem
          -64 callsubr
          endchar
        </CharString>
        <CharString name="blanksymbol">
          45 callsubr
          hstem
          136 68 224 69 vstem
          497 277 rmoveto
          94 -55 66 -78 -34 -37 -14 -24 -33 vhcurveto
          20 79 92 68 7 6 6 8 2 9 rlinecurve
          58 callsubr
          -8 -8 -3 -5 -7 hvcurveto
          -40 -30 1 4 4 callsubr
          -13 -53 -119 -89 -8 -6 -5 -8 -3 -9 rlinecurve
          82 callsubr
          8 8 3 5 7 hvcurveto
          66 50 -48 -193 5 callsubr
        </CharString>
        <CharString name="braceleft">
          -83 61 297 61 297 61 hstem
          234 70 cntrmask 11100000
          456 -50 rmoveto
          28 -27 0 -14 -9 -102 1 38 5 6 27 4 17 vhcurveto
          3 10 7 27 2 11 5 18 5 19 4 19 rrcurveto
          6 20 7 30 12 vvcurveto
          38 -23 20 -15 12 vhcurveto
          33 15 37 29 12 48 42 170 rcurveline
          5 20 12 47 141 2 rrcurveto
          9 29 1 32 -62 callsubr
          -14 -74 -123 -15 -98 -24 hvcurveto
          -42 -170 -16 -64 -78 -10 -70 -1 rlinecurve
          -6 -27 -1 -32 -28 26 0 12 10 103 -2 -42 -5 -7 -27 -4 -17 hvcurveto
          -3 -10 -7 -27 -2 -11 -5 -18 -5 -19 -4 -19 rrcurveto
          -6 -20 -7 -30 -12 vvcurveto
          -97 145 -2 33 16 28 0 33 vhcurveto
          endchar
        </CharString>
        <CharString name="braceright">
          -83 61 297 61 297 61 hstem
          374 70 cntrmask 11100000
          545 308 rmoveto
          10 -4 18 -29 -19 -99 2 42 6 6 24 4 15 vhcurveto
          28 112 rlineto
          5 19 7 28 11 vvcurveto
          99 -152 0 -27 -14 -29 0 -33 -28 27 0 14 13 98 -1 -39 -6 -6 -25 -4 -15 vhcurveto
          -14 -56 -5 -18 -5 -19 -4 -19 rlinecurve
          -5 -18 -6 -25 -13 vvcurveto
          -45 35 -24 3 -2 vhcurveto
          -58 -25 -16 -37 -8 -30 -27 -108 rcurveline
          -7 -27 -11 -46 -3 -7 -25 -48 -97 -1 -40 -1 rrcurveto
          -16 -12 -16 -17 -53 callgsubr
          14 94 62 21 41 39 hvcurveto
          17 19 4 15 16 66 4 13 2 11 15 57 17 70 2 7 42 20 33 14 48 3 37 1 rrcurveto
          13 15 11 22 hvcurveto
          endchar
        </CharString>
        <CharString name="bracketleft">
          -83 61 655 61 hstem
          208 443 vstem
          472 -50 rmoveto
          -62 callsubr
          -13 vhcurveto
          -145 hlineto
          164 655 rlineto
          159 -87 callgsubr
          -181 hlineto
          -22 -13 0 -29 -7 hvcurveto
          -176 -703 rlineto
          -1 -5 -2 -6 -6 28 callgsubr
          13 vhcurveto
          181 -29 callsubr
          endchar
        </CharString>
        <CharString name="bracketright">
          -83 61 655 61 hstem
          27 443 vstem
          291 -53 rmoveto
          176 705 rlineto
          2 6 1 5 3 vvcurveto
          -62 callsubr
          -13 vhcurveto
          -181 -96 callgsubr
          144 hlineto
          -163 -655 rlineto
          -159 -96 callgsubr
          181 hlineto
          21 14 0 30 7 hvcurveto
          endchar
        </CharString>
        <CharString name="breve">
          499 64 49 -20 hstem
          585 584 -103 callgsubr
          endchar
        </CharString>
        <CharString name="breve.cap">
          492 64 49 -20 hstem
          584 577 -103 callgsubr
          endchar
        </CharString>
        <CharString name="breve.ts1">
          497 64 51 -20 hstem
          575 567 rmoveto
          2 6 2 7 6 vvcurveto
          15 -2 -12 11 -15 hhcurveto
          -23 1 -11 -19 -15 hvcurveto
          -19 -15 -43 -2 -33 hhcurveto
          -32 hlineto
          -26 -54 0 12 -9 hvcurveto
          -4 4 2 9 -2 6 rrcurveto
          13 -4 -11 7 -13 hhcurveto
          -3 -3 0 -1 -3 hvcurveto
          -17 -3 -6 -17 -1 -15 rrcurveto
          -3 vlineto
          -76 100 0 58 67 89 2 68 25 vhcurveto
          endchar
        </CharString>
        <CharString name="brokenbar">
          70 callsubr
          216 247 vstem
          391 364 rmoveto
          68 274 39 callgsubr
          5 vvcurveto
          17 -14 18 -21 -28 -6 -25 -8 -2 vhcurveto
          -74 -297 rlineto
          -18 -5 14 -13 19 hhcurveto
          20 20 13 18 5 hvcurveto
          -103 -411 rmoveto
          68 274 rlineto
          18 5 -14 13 -19 hhcurveto
          -20 -20 -13 -18 -5 hvcurveto
          -63 -255 -8 callgsubr
          -18 15 -17 20 26 8 23 13 3 vhcurveto
          endchar
        </CharString>
        <CharString name="bullet">
          96 276 hstem
          47 callsubr
          endchar
        </CharString>
        <CharString name="c">
          -6 61 321 61 hstem
          137 69 214 92 vstem
          -71 callsubr
          endchar
        </CharString>
        <CharString name="cacute">
          32 callsubr
          43 callsubr
          hintmask 11001100
          -71 callsubr
          hintmask 00110000
          14 515 -107 callsubr
        </CharString>
        <CharString name="caron">
          539 567 -74 callgsubr
        </CharString>
        <CharString name="caron.cap">
          525 527 -79 callgsubr
        </CharString>
        <CharString name="caron.ts1">
          498 -21 140 42 callsubr
          568 577 rmoveto
          17 -9 24 -22 -11 -10 -7 -5 -10 vhcurveto
          -102 -53 rlineto
          -1 -3 -5 -3 -3 hhcurveto
          -4 1 -2 2 -3 2 -15 10 rcurveline
          19 -27 -39 35 -20 hhcurveto
          hintmask 11000000
          -6 -1 rlineto
          -15 -2 -17 -23 -15 vvcurveto
          -21 25 -9 15 -10 vhcurveto
          23 -14 22 -15 23 -14 rrcurveto
          -6 11 12 -11 13 hhcurveto
          3 hlineto
          8 1 6 4 7 4 39 18 rcurveline
          24 12 25 11 24 12 rrcurveto
          17 9 26 6 23 vvcurveto
          endchar
        </CharString>
        <CharString name="ccaron">
          -5 callsubr
          43 callsubr
          vstemhm
          -71 callsubr
          37 493 -74 callgsubr
        </CharString>
        <CharString name="ccedilla">
          376 41 callgsubr
          -20 -33 -28 -110 hhcurveto
          -20 -83 0 107 109 98 105 86 18 17 -4 -14 12 hvcurveto
          -7 -5 -10 -8 -24 vvcurveto
          -27 20 -13 21 30 21 25 36 53 -48 42 -72 -129 -126 -135 -139 -58 21 -40 32 -31 vhcurveto
          26 -25 30 -9 26 -4 rrcurveto
          -4 -15 -4 -16 -3 vvcurveto
          -55 callsubr
          2 5 31 1 36 4 33 10 rlinecurve
          16 5 70 27 33 vvcurveto
          endchar
        </CharString>
        <CharString name="ccircumflex">
          -5 callsubr
          43 callsubr
          vstemhm
          -71 callsubr
          27 469 -80 callgsubr
          endchar
        </CharString>
        <CharString name="cdotaccent">
          -65 callgsubr
          74 89 hstemhm
          43 callsubr
          hintmask 11011000
          -71 callsubr
          hintmask 00100000
          -56 485 -99 callsubr
        </CharString>
        <CharString name="cedilla">
          -16 callsubr
        </CharString>
        <CharString name="cedilla.dup">
          -16 callsubr
        </CharString>
        <CharString name="cent">
          -6 41 callgsubr
          -17 -30 -25 -90 -3 79 317 rcurveline
          9 -3 8 -4 7 -8 rrcurveto
          -7 -5 -10 -8 -24 vvcurveto
          -27 20 -13 21 30 21 25 36 44 -32 36 -52 11 vhcurveto
          15 60 rlineto
          58 callsubr
          -17 -18 -14 -17 -4 hvcurveto
          -14 -58 rlineto
          -120 -16 -110 -126 -130 vvcurveto
          -58 21 -40 32 -31 vhcurveto
          21 -21 24 -10 22 -4 -15 -61 rcurveline
          82 callsubr
          17 17 14 17 4 hvcurveto
          14 56 rlineto
          35 48 2 13 42 -32 callsubr
          -256 -15 rmoveto
          -31 8 -36 24 71 vvcurveto
          92 70 90 74 25 vhcurveto
          endchar
        </CharString>
        <CharString name="cent.oldstyle">
          -6 61 321 41 callgsubr
          -20 -33 -28 -110 hhcurveto
          -5 -10 0 2 -12 hvcurveto
          146 309 3 -2 3 -3 3 -3 rlinecurve
          -7 -5 -10 -8 -24 vvcurveto
          -27 20 -13 21 30 21 25 36 35 -21 31 -35 16 vhcurveto
          29 62 rlineto
          19 9 -10 19 -20 hhcurveto
          -15 -15 -11 -14 -6 hvcurveto
          -30 -62 rlineto
          -6 hlineto
          -129 -126 -135 -139 -58 21 -40 32 -31 hvcurveto
          4 -4 4 -4 5 -3 -37 -78 rcurveline
          -20 -9 10 -18 20 hhcurveto
          15 15 10 14 6 hvcurveto
          32 68 rlineto
          -5 22 21 0 15 -1 callgsubr
          -161 300 rmoveto
          -137 -291 rlineto
          -14 16 -11 25 38 vvcurveto
          100 82 97 80 15 vhcurveto
          endchar
        </CharString>
        <CharString name="centigrade">
          -10 20 callsubr
          hstem
          229 69 vstem
          603 579 rmoveto
          1 6 1 5 5 vvcurveto
          4 vlineto
          15 -2 -13 9 -14 hhcurveto
          -18 -10 -13 -13 -8 hvcurveto
          17 -20 -20 9 -27 hhcurveto
          -61 -45 -57 -47 -31 hvcurveto
          -68 -100 -39 -135 -113 vvcurveto
          -67 9 -114 93 93 52 99 68 21 vhcurveto
          2 6 2 6 7 vvcurveto
          22 -21 5 -16 -28 1 -11 -43 -16 vhcurveto
          -40 -14 -30 -58 -41 hhcurveto
          -36 -2 76 38 127 57 168 80 80 hvcurveto
          11 13 13 11 18 hhcurveto
          24 -3 0 -34 -16 vvcurveto
          -16 -2 -16 -2 -16 vhcurveto
          -2 -10 -3 -10 -10 vvcurveto
          -4 vlineto
          -19 2 15 -7 19 hhcurveto
          35 0 27 21 5 hvcurveto
          -284 115 rmoveto
          25 -19 23 -28 vhcurveto
          -3 -2 -1 -3 hhcurveto
          -27 -3 -22 -24 -28 vvcurveto
          -25 19 -23 28 30 27 24 32 vhcurveto
          -36 -7 rmoveto
          -7 -6 -6 -7 vhcurveto
          -1 hlineto
          -9 2 -9 7 10 vvcurveto
          7 6 6 7 vhcurveto
          1 hlineto
          9 -2 9 -7 -10 vvcurveto
          endchar
        </CharString>
        <CharString name="circumflex">
          529 543 -80 callgsubr
          endchar
        </CharString>
        <CharString name="circumflex.cap">
          523 540 -102 callgsubr
          endchar
        </CharString>
        <CharString name="circumflex.dup">
          529 543 -80 callgsubr
          endchar
        </CharString>
        <CharString name="colon">
          0 125 181 125 hstemhm
          215 127 -51 127 hintmask 11010000
          47 callgsubr
          -76 -306 rmoveto
          24 -18 30 -38 vhcurveto
          hintmask 10100000
          -32 -39 -28 -43 -36 28 -18 27 39 33 36 35 hvcurveto
          endchar
        </CharString>
        <CharString name="colonmonetary">
          18 callgsubr
          -23 22 -25 15 -29 7 14 56 rcurveline
          58 callsubr
          -17 -18 -14 -17 -4 hvcurveto
          -13 -52 rlineto
          -158 -13 -151 -201 -195 vvcurveto
          -111 55 -93 97 -16 vhcurveto
          -14 -54 rlineto
          82 callsubr
          17 17 14 17 4 hvcurveto
          13 53 rlineto
          131 16 80 117 49 77 callgsubr
          -11 -16 0 -21 -7 vhcurveto
          -26 -80 -58 -32 -42 -12 125 502 rcurveline
          42 -11 24 -37 -53 -20 -2 -1 -6 vvcurveto
          -29 29 0 6 16 13 2 28 7 vhcurveto
          -323 -379 rmoveto
          -67 13 -31 73 75 vvcurveto
          154 112 159 112 30 vhcurveto
          endchar
        </CharString>
        <CharString name="comma">
          -118 -21 139 125 hstem
          214 141 vstem
          355 48 rmoveto
          57 -38 20 -30 -46 -27 -41 -31 -21 15 -32 40 5 2 0 1 3 vhcurveto
          -28 -52 -44 -20 -29 -8 rrcurveto
          -6 -2 -19 -6 -21 vvcurveto
          -8 9 -23 23 45 125 81 106 vhcurveto
          endchar
        </CharString>
        <CharString name="copyleft">
          0 38 449 38 hstem
          -64 callsubr
          -111 -51 rmoveto
          109 55 -31 111 -88 hhcurveto
          -26 -25 -8 -18 -27 hvcurveto
          -3 8 1 1 -2 6 rrcurveto
          8 -2 -1 3 -9 hhcurveto
          -11 -9 -9 -6 -3 hvcurveto
          -1 -1 -1 -6 0 vvcurveto
          -20 -80 rlineto
          -15 -4 6 -1 9 hhcurveto
          3 16 0 15 7 hvcurveto
          2 3 -1 1 5 11 rrcurveto
          33 17 30 22 31 hhcurveto
          65 27 -94 -92 -46 hvcurveto
          -45 -22 -42 -42 -44 hhcurveto
          -17 -49 9 60 11 hvcurveto
          11 2 -9 0 -6 hhcurveto
          -11 -9 -5 -10 -5 hvcurveto
          -28 -14 14 -70 80 hhcurveto
          62 63 54 65 32 hvcurveto
          endchar
        </CharString>
        <CharString name="copyright">
          0 38 449 38 hstem
          -64 callsubr
          -101 67 rmoveto
          20 80 rlineto
          0 1 5 2 vvcurveto
          6 -4 9 -12 -8 -3 -3 -8 -6 vhcurveto
          -5 -6 0 -1 -6 -8 rrcurveto
          17 -18 -21 9 -26 hhcurveto
          -88 -86 -111 -109 -65 35 -54 63 79 50 70 29 9 -7 6 -12 -5 -9 0 -12 -4 hvcurveto
          -60 -19 -53 -9 -17 hhcurveto
          -44 -21 42 45 92 74 94 66 30 19 -22 -33 hvcurveto
          -11 -1 -1 -3 vvcurveto
          -15 15 0 4 8 7 1 15 4 vhcurveto
          endchar
        </CharString>
        <CharString name="currency">
          157 70 -66 -20 244 70 18 -21 hstemhm
          hintmask 00100000
          467 153 rmoveto
          22 18 -10 17 -7 11 -24 31 rcurveline
          19 23 14 25 7 28 7 28 -1 27 -9 22 38 30 rcurveline
          10 9 30 24 -26 18 -26 19 -31 -25 -10 -8 -22 -17 rcurveline
          14 -19 -24 8 -29 hhcurveto
          -28 -28 -8 -13 -25 hvcurveto
          hintmask 10010000
          -14 18 -7 10 -1 1 -3 2 rlinecurve
          -14 10 -25 -1 -19 -15 -24 -20 13 -17 5 -6 25 -33 rcurveline
          -19 -23 -15 -26 -7 -28 -7 -28 1 -27 9 -22 -38 -30 rcurveline
          -10 -9 -30 -24 26 -18 26 -19 31 25 10 8 22 17 rcurveline
          -14 19 24 -8 29 hhcurveto
          28 28 8 14 26 hvcurveto
          hintmask 01000000
          14 -18 7 -11 1 -1 3 -2 rlinecurve
          14 -9 26 1 18 14 rrcurveto
          -49 153 rmoveto
          hintmask 10100000
          -43 -11 -44 -36 -44 hhcurveto
          -43 -27 36 43 11 hvcurveto
          43 11 44 36 44 hhcurveto
          43 27 -36 -43 -11 hvcurveto
          endchar
        </CharString>
        <CharString name="cwm">
          -107 endchar
        </CharString>
        <CharString name="cwmascender">
          -107 endchar
        </CharString>
        <CharString name="cwmcapital">
          -107 endchar
        </CharString>
        <CharString name="d">
          45 callsubr
          hstem
          126 68 vstem
          -73 callgsubr
          endchar
        </CharString>
        <CharString name="dagger">
          -195 -21 613 67 241 -20 hstem
          565 430 rmoveto
          13 3 -2 21 -37 hhcurveto
          -24 -37 -8 -6 -25 hvcurveto
          -5 -1 -31 -7 -24 -2 6 20 8 28 29 65 16 37 16 37 9 37 rrcurveto
          8 2 8 33 -39 hhcurveto
          -40 -8 -32 -9 -2 hvcurveto
          -9 -35 -3 -58 -2 -24 -3 -46 -5 -32 -6 -29 -13 1 -22 4 -21 5 rrcurveto
          6 -21 87 callgsubr
          -3 1 62 callsubr
          -25 -8 -20 -12 -25 -35 -72 -2 -8 -13 -53 -38 -151 -29 -168 -13 -95 rrcurveto
          -14 -2 -1 -6 13 hhcurveto
          14 1 5 13 7 hvcurveto
          19 50 16 53 16 51 20 63 32 103 24 96 13 54 2 7 2 71 -1 23 2 21 4 27 59 callsubr
          2 hvcurveto
          endchar
        </CharString>
        <CharString name="daggerdbl">
          -184 -21 194 66 389 67 194 -20 hstem
          576 477 rmoveto
          13 4 -2 21 -37 hhcurveto
          -24 -37 -8 -6 -26 hvcurveto
          -4 -1 -32 -7 -23 -2 8 30 17 34 7 14 16 33 18 40 7 28 rrcurveto
          7 1 8 32 -40 hhcurveto
          -12 -27 -3 -36 -9 hvcurveto
          -5 -20 -3 -29 -35 vvcurveto
          -3 -41 -1 -28 -5 -26 -13 1 -22 4 -22 5 rrcurveto
          6 -20 87 callgsubr
          -4 2 62 callsubr
          -30 -17 -34 -7 -14 -16 -33 -18 -40 -7 -28 rrcurveto
          -35 -8 25 -4 13 hhcurveto
          35 11 25 14 3 hvcurveto
          5 20 3 29 35 vvcurveto
          3 41 1 28 5 26 59 callsubr
          1 hvcurveto
          -113 -455 rmoveto
          17 4 -10 16 -25 hhcurveto
          -23 -22 -3 -8 -38 hvcurveto
          -33 -8 -8 -2 -27 -2 9 28 11 24 19 42 27 56 5 23 2 5 rrcurveto
          35 8 -25 4 -13 hhcurveto
          -35 -11 -25 -14 -3 hvcurveto
          -8 -29 0 -43 -2 -34 rrcurveto
          -11 -1 -31 -6 -30 vhcurveto
          -26 2 -3 1 -45 11 rrcurveto
          9 -35 -20 0 -9 hhcurveto
          -29 -16 -20 -13 -3 hvcurveto
          -15 -4 7 -18 28 hhcurveto
          29 30 6 4 14 hvcurveto
          48 10 9 1 20 2 -9 -28 -11 -24 -18 -42 -27 -56 -6 -23 -1 -5 rrcurveto
          -35 -9 25 -4 13 hhcurveto
          35 11 25 14 4 hvcurveto
          7 29 2 43 1 34 -1 11 2 31 5 30 27 -2 3 -1 45 -11 rrcurveto
          -9 36 21 0 6 hhcurveto
          28 17 18 15 4 hvcurveto
          endchar
        </CharString>
        <CharString name="dblbracketleft">
          -82 70 637 70 -69 70 hstemhm
          hintmask 00100000
          624 656 rmoveto
          1 3 0 3 4 vvcurveto
          26 -23 4 -18 vhcurveto
          hintmask 11000000
          -8 -8 -1 -7 hhcurveto
          -198 hlineto
          -20 -16 -4 -27 -4 hvcurveto
          -173 -689 rlineto
          -2 -9 -4 -11 -9 vvcurveto
          -22 21 -6 18 vhcurveto
          231 hlineto
          25 9 20 22 15 -10 13 -22 hvcurveto
          -53 hlineto
          4 24 7 23 6 23 139 556 rcurveline
          hintmask 00100000
          8 2 3 4 9 hhcurveto
          hintmask 11000000
          4 4 -1 3 hhcurveto
          38 hlineto
          21 11 0 31 10 hvcurveto
          -174 -33 93 callgsubr
          149 596 12 39 rlineto
          endchar
        </CharString>
        <CharString name="dblbracketright">
          -82 70 637 70 hstem
          359 -34 rmoveto
          168 672 rlineto
          2 9 4 10 10 vvcurveto
          22 -19 6 -18 vhcurveto
          -231 hlineto
          -27 -7 -21 -21 -14 7 -14 24 hvcurveto
          53 hlineto
          -159 -637 rlineto
          -65 hlineto
          -27 -10 -20 -22 -19 14 -9 24 hvcurveto
          230 hlineto
          31 2 28 20 4 hvcurveto
          93 657 93 callgsubr
          156 624 5 11 rlineto
          endchar
        </CharString>
        <CharString name="dblgrave.ts1">
          500 -21 133 -20 hstem
          375 516 rmoveto
          14 callgsubr
          147 hmoveto
          14 callgsubr
          endchar
        </CharString>
        <CharString name="dblverticalbar">
          70 callsubr
          106 -47 rmoveto
          -17 callsubr
          210 hmoveto
          -17 callsubr
          endchar
        </CharString>
        <CharString name="dcaron">
          -65 callgsubr
          80 94 -61 61 hstemhm
          126 68 hintmask 11011000
          -73 callgsubr
          308 267 rmoveto
          43 -29 15 -22 -35 -20 -31 -23 vhcurveto
          hintmask 00100000
          -16 11 -24 30 4 1 0 1 3 vhcurveto
          -21 -39 -33 -15 -22 -6 rrcurveto
          -5 -1 -14 -5 -16 vvcurveto
          -6 7 -17 17 34 94 61 79 vhcurveto
          endchar
        </CharString>
        <CharString name="dcroat">
          -65 callgsubr
          22 62 29 61 hstem
          126 68 vstem
          553 -27 callgsubr
          88 351 rlineto
          17 10 callsubr
          -16 hlineto
          11 45 -60 callgsubr
          44 hlineto
          -7 -29 rlineto
          -115 10 callgsubr
          114 hlineto
          -15 -62 rlineto
          36 -32 -33 4 -19 hhcurveto
          -108 -106 -150 -139 -96 51 -58 67 57 46 43 10 10 hvcurveto
          -12 5 23 -41 54 hhcurveto
          50 23 41 13 8 hvcurveto
          19 33 14 55 8 vvcurveto
          -164 142 rmoveto
          -115 -84 -116 -60 -44 -7 68 21 113 84 119 60 37 14 -45 -45 vhcurveto
          endchar
        </CharString>
        <CharString name="ddotbelow">
          11 callgsubr
          113 61 hstemhm
          126 68 hintmask 01111000
          -73 callgsubr
          hintmask 10000000
          -121 -438 -99 callsubr
        </CharString>
        <CharString name="degree">
          319 70 152 70 hstem
          525 465 rmoveto
          81 20 -49 65 -81 hhcurveto
          -80 -82 -65 -81 -20 hvcurveto
          -80 -20 49 -66 80 hhcurveto
          81 82 66 80 20 hvcurveto
          -70 hmoveto
          -42 -11 -42 -34 -42 hhcurveto
          -42 -25 34 42 10 hvcurveto
          42 10 43 34 42 hhcurveto
          42 25 -34 -42 -10 hvcurveto
          endchar
        </CharString>
        <CharString name="diameter">
          92 70 288 70 hstem
          612 496 67 callgsubr
          -10 -10 -4 -6 -8 hvcurveto
          -51 -41 rlineto
          25 -28 -40 15 -46 hhcurveto
          -118 -120 -96 -118 -29 hvcurveto
          -12 -46 4 -43 16 -35 -51 -41 rcurveline
          -8 -7 -7 -8 -2 -10 rrcurveto
          69 callsubr
          10 10 4 6 8 hvcurveto
          51 41 rlineto
          -25 29 39 -15 47 hhcurveto
          118 120 96 118 30 hvcurveto
          11 47 -4 43 -16 35 50 40 rcurveline
          8 7 7 8 2 10 rrcurveto
          -128 -190 rmoveto
          -80 -20 -81 -64 -79 hhcurveto
          -28 -23 8 13 -19 hvcurveto
          247 197 8 -21 1 -26 -6 -27 rlinecurve
          -40 124 rmoveto
          -247 -198 -7 22 -1 25 7 27 rlinecurve
          80 19 81 64 80 hhcurveto
          27 23 -7 -13 18 hvcurveto
          endchar
        </CharString>
        <CharString name="died">
          4 -21 313 64 -63 64 188 -20 hstemhm
          hintmask 00100000
          587 330 rmoveto
          17 -10 14 -22 vhcurveto
          -9 hlineto
          hintmask 01010000
          -13 -14 -1 -13 hhcurveto
          -118 hlineto
          4 13 3 13 3 13 26 102 rcurveline
          1 7 3 7 7 vvcurveto
          20 -2 -15 7 -20 hhcurveto
          -19 -10 -8 -21 -6 hvcurveto
          -36 -145 rlineto
          -7 -2 -1 -8 -9 hhcurveto
          -32 hlineto
          hintmask 00100000
          -78 1 rlineto
          -18 hlineto
          -23 -13 -13 -22 -18 11 -13 20 hvcurveto
          9 hlineto
          21 21 2 21 hhcurveto
          hintmask 11000000
          18 18 -1 17 hhcurveto
          -20 -79 -46 -186 rlineto
          -2 -7 -1 -7 -6 vvcurveto
          -18 14 -10 18 33 3 19 27 7 vhcurveto
          58 233 3 11 3 12 2 11 rlinecurve
          130 hlineto
          15 14 -2 16 hhcurveto
          21 19 10 26 hvcurveto
          endchar
        </CharString>
        <CharString name="dieresis">
          515 81 hstem
          -50 callsubr
          endchar
        </CharString>
        <CharString name="dieresis.cap">
          482 81 hstem
          -22 callgsubr
          endchar
        </CharString>
        <CharString name="dieresis.dup">
          515 81 hstem
          -50 callsubr
          endchar
        </CharString>
        <CharString name="dieresis.ts1">
          513 99 -98 99 hstemhm
          hintmask 01000000
          539 568 rmoveto
          25 -19 20 -25 vhcurveto
          hintmask 10000000
          0 -5 -1 -3 vhcurveto
          -25 -3 -20 -20 -4 -25 rrcurveto
          -6 vlineto
          hintmask 01000000
          -25 21 -19 25 vhcurveto
          6 hlineto
          27 4 22 23 27 vvcurveto
          -171 -6 rmoveto
          6 vlineto
          hintmask 10000000
          25 -21 19 -25 vhcurveto
          -6 hlineto
          -27 -4 -22 -23 -27 vvcurveto
          -25 20 -20 26 vhcurveto
          5 hlineto
          25 3 21 21 4 25 rrcurveto
          endchar
        </CharString>
        <CharString name="discount">
          22 -21 693 -20 hstem
          599 660 rmoveto
          19 -16 15 -19 vhcurveto
          -6 hlineto
          -19 -3 -9 -18 -10 -15 -396 -576 rcurveline
          -10 -14 -14 -14 -18 vvcurveto
          -19 15 -16 20 vhcurveto
          1 hlineto
          20 1 10 17 10 15 365 530 rcurveline
          39 57 rlineto
          7 12 12 12 15 vvcurveto
          -178 -51 26 callgsubr
          -28 -530 26 callgsubr
          endchar
        </CharString>
        <CharString name="divide">
          31 125 115 70 114 125 hstemhm
          222 127 -21 127 hintmask 11101000
          563 306 37 callsubr
          -108 220 23 callsubr
          -106 -424 rmoveto
          24 -18 30 -38 vhcurveto
          hintmask 10010000
          -32 -39 -28 -43 -36 28 -18 27 39 33 36 35 hvcurveto
          endchar
        </CharString>
        <CharString name="divorced">
          -44 -21 156 66 299 66 156 -20 hstem
          -70 67 205 69 135 69 206 67 vstem
          748 366 rmoveto
          7 vlineto
          71 -40 78 -86 vhcurveto
          -9 hlineto
          -117 -13 -87 -138 -3 -119 rrcurveto
          -7 vlineto
          -72 36 -82 90 vhcurveto
          8 hlineto
          120 11 85 145 3 119 rrcurveto
          -477 -3 rmoveto
          70 -28 89 -98 vhcurveto
          -9 hlineto
          -120 -13 -86 -150 -107 vvcurveto
          -4 vlineto
          -70 31 -87 93 vhcurveto
          9 hlineto
          125 12 83 153 107 vvcurveto
          181 252 rmoveto
          3 11 5 13 12 vvcurveto
          20 -1 -18 7 -17 hhcurveto
          -4 -4 0 -1 -4 hvcurveto
          -20 -4 -3 -20 -4 -17 -159 -638 rcurveline
          -3 -11 -5 -13 -11 vvcurveto
          -3 vlineto
          -20 3 18 -5 17 hhcurveto
          8 hlineto
          21 3 3 21 4 17 rrcurveto
          388 375 rmoveto
          -9 -77 -48 -106 -86 -11 rrcurveto
          -49 -12 50 37 -1 hvcurveto
          79 48 101 77 28 vhcurveto
          2 7 7 2 7 hhcurveto
          44 16 -50 -36 -6 0 -7 -1 -6 hvcurveto
          -478 13 rmoveto
          -4 -76 -38 -90 -74 -34 rrcurveto
          -4 -9 -13 -3 -10 hhcurveto
          -45 -12 57 35 hvcurveto
          10 vlineto
          77 5 62 120 80 hhcurveto
          5 hlineto
          35 -4 15 -39 3 -30 rrcurveto
          endchar
        </CharString>
        <CharString name="dlinebelow">
          -186 63 117 -63 callsubr
          113 61 hstemhm
          126 68 hintmask 01111000
          -73 callgsubr
          hintmask 10000000
          25 -437 -86 callgsubr
        </CharString>
        <CharString name="dollar">
          509 171 rmoveto
          12 49 -3 99 -138 27 52 208 rcurveline
          32 -4 46 -14 3 -51 -12 -8 -8 -12 -3 -13 rrcurveto
          -23 -6 12 -21 27 hhcurveto
          21 27 12 37 9 hvcurveto
          20 77 -37 72 -116 10 9 37 rcurveline
          16 4 7 25 -30 hhcurveto
          -31 -7 -25 -16 -4 hvcurveto
          -9 -38 -113 -13 -83 -76 -19 -74 rlinecurve
          -6 -24 -21 -108 160 -31 -58 -232 rcurveline
          -43 6 -36 22 -2 51 7 4 12 8 6 23 rrcurveto
          28 7 -20 17 -20 hhcurveto
          -9 -37 -4 -46 -11 hvcurveto
          -21 -83 39 -77 113 -11 -9 -37 rcurveline
          -16 -4 -7 -25 31 hhcurveto
          30 7 25 16 4 hvcurveto
          9 38 127 19 72 86 18 70 rlinecurve
          -138 383 rmoveto
          -49 -195 -55 10 -44 36 13 51 rlinecurve
          12 48 58 40 65 10 rrcurveto
          73 -387 rmoveto
          -13 -51 -57 -47 -66 -11 54 218 rcurveline
          63 -13 32 -45 -13 -51 rrcurveto
          endchar
        </CharString>
        <CharString name="dollar.oldstyle">
          16 -21 22 -21 413 65 221 -20 hstemhm
          119 70 3 65 -43 65 145 66 0 71 -70 70 hintmask 0001010000000000
          561 490 rmoveto
          42 -18 45 -40 19 vhcurveto
          7 22 10 38 10 vvcurveto
          17 -15 12 -16 -23 -5 -17 -15 -4 vhcurveto
          -13 -49 rlineto
          0 -15 4 -13 -11 -8 0 -1 -9 vhcurveto
          3 16 8 18 17 vvcurveto
          17 -16 10 -15 -22 -6 -16 -19 -5 vhcurveto
          -17 -62 rlineto
          0 -31 -15 -11 -9 vhcurveto
          -52 -42 -32 -44 -61 vvcurveto
          -37 13 -32 30 -30 vhcurveto
          14 -11 -26 -104 -3 -12 -4 -12 -1 -12 rlinecurve
          hintmask 1000101000000000
          -1 hlineto
          27 -21 12 -20 -47 -7 -53 -33 -44 16 -46 40 -21 vhcurveto
          -7 -22 -10 -30 -20 vvcurveto
          -19 15 -10 16 34 2 51 29 8 vhcurveto
          -2 11 10 -1 11 hhcurveto
          hintmask 0110001010000000
          8 9 1 8 hhcurveto
          -3 -15 -8 -17 -17 vvcurveto
          -13 10 -16 16 27 5 14 19 5 vhcurveto
          16 63 rlineto
          0 12 6 16 11 vhcurveto
          62 45 42 60 72 vvcurveto
          38 -18 53 -38 19 vhcurveto
          32 127 rlineto
          -21 5 13 -15 22 hhcurveto
          44 11 44 37 hvcurveto
          -70 10 rmoveto
          -12 -12 -3 -5 -11 vhcurveto
          -1 hlineto
          11 47 rlineto
          hintmask 0000110101000000
          4 -4 3 -9 -8 vvcurveto
          -113 -155 rmoveto
          -58 18 50 189 rlineto
          0 13 3 6 1 vhcurveto
          16 3 25 -3 0 vvcurveto
          -161 -160 rmoveto
          -1 hlineto
          -6 11 -4 11 -1 13 rrcurveto
          2 vlineto
          29 19 32 22 18 vhcurveto
          126 -314 rmoveto
          -34 -19 -34 -24 -24 vhcurveto
          33 132 rlineto
          7 -13 3 -14 -13 vvcurveto
          -113 -137 rmoveto
          0 -24 -4 -12 -1 vhcurveto
          -11 -1 -16 2 0 vvcurveto
          58 236 54 -17 rlineto
          -165 -179 rmoveto
          -5 7 -1 10 8 vvcurveto
          17 12 1 6 12 vhcurveto
          -3 -18 rlineto
          endchar
        </CharString>
        <CharString name="dong">
          -62 62 hstem
          533 167 rmoveto
          4 -1 23 -32 -27 -3 -11 -29 -7 vhcurveto
          -18 -4 -14 -53 -19 hhcurveto
          -19 -1 22 5 8 2 8 1 7 hvcurveto
          84 334 rlineto
          16 hlineto
          16 17 13 16 4 hvcurveto
          16 4 -10 14 -16 hhcurveto
          -16 hlineto
          11 42 rlineto
          25 callgsubr
          5 vvcurveto
          27 -27 0 -12 vhcurveto
          -77 hlineto
          -15 -25 0 -31 -27 26 -59 callgsubr
          42 hlineto
          -7 -27 rlineto
          -109 hlineto
          -16 -17 -14 -16 -4 hvcurveto
          -16 -4 10 -13 16 hhcurveto
          109 hlineto
          -15 -59 rlineto
          34 -30 -31 4 -18 hhcurveto
          -103 -101 -143 -132 -91 49 -55 63 55 43 41 9 10 hvcurveto
          -11 5 21 -39 52 hhcurveto
          47 22 39 12 8 hvcurveto
          18 32 13 52 7 vvcurveto
          -49 -198 rmoveto
          17 5 -11 14 -17 hhcurveto
          -354 74 callgsubr
          355 hlineto
          17 17 14 17 4 hvcurveto
          -107 333 rmoveto
          -109 -80 -110 -57 -41 -7 64 20 108 80 113 57 35 13 -43 -43 vhcurveto
          endchar
        </CharString>
        <CharString name="dotaccent">
          511 89 hstem
          446 559 -99 callsubr
        </CharString>
        <CharString name="dotaccent.alt">
          438 524 -99 callsubr
        </CharString>
        <CharString name="dotaccent.cap">
          482 89 hstem
          439 530 -99 callsubr
        </CharString>
        <CharString name="dotlessi">
          50 callgsubr
          22 callgsubr
          vstem
          -100 callgsubr
          endchar
        </CharString>
        <CharString name="dotlessj">
          -228 61 543 61 hstem
          91 91 232 69 vstem
          -76 callgsubr
          endchar
        </CharString>
        <CharString name="e">
          -14 callgsubr
          hstem
          1 callsubr
          vstem
          -104 callsubr
          endchar
        </CharString>
        <CharString name="eacute">
          -14 callgsubr
          72 -21 134 -20 -8 callsubr
          hintmask 11100110
          -104 callsubr
          hintmask 00011010
          69 256 -107 callsubr
        </CharString>
        <CharString name="ebreve">
          -14 callgsubr
          62 64 49 -20 -8 callsubr
          hintmask 11100110
          -104 callsubr
          hintmask 00011000
          138 251 -103 callgsubr
          endchar
        </CharString>
        <CharString name="ecaron">
          -14 callgsubr
          -8 callsubr
          vstemhm
          -104 callsubr
          92 234 -74 callgsubr
        </CharString>
        <CharString name="ecircumflex">
          -14 callgsubr
          -8 callsubr
          vstemhm
          -104 callsubr
          82 210 -80 callgsubr
          endchar
        </CharString>
        <CharString name="ecircumflexacute">
          -14 callgsubr
          306 -20 -8 callsubr
          hintmask 11101100
          -104 callsubr
          hintmask 00010000
          77 212 -102 callgsubr
          23 165 -107 callsubr
        </CharString>
        <CharString name="ecircumflexdotbelow">
          -200 89 105 -13 callsubr
          -8 callsubr
          hintmask 01111100
          -104 callsubr
          82 210 -80 callgsubr
          hintmask 10000000
          -261 -695 -99 callsubr
        </CharString>
        <CharString name="ecircumflexgrave">
          -14 callgsubr
          -8 callsubr
          vstemhm
          -104 callsubr
          77 212 -81 callgsubr
        </CharString>
        <CharString name="ecircumflexhookabove">
          -14 callgsubr
          382 -20 -8 callsubr
          hintmask 11101100
          -104 callsubr
          hintmask 00010000
          77 212 -102 callgsubr
          131 187 -107 callgsubr
        </CharString>
        <CharString name="ecircumflextilde">
          -14 callgsubr
          192 65 -10 65 -8 callsubr
          hintmask 11100110
          -104 callsubr
          hintmask 00001000
          77 212 -102 callgsubr
          94 172 -89 callgsubr
        </CharString>
        <CharString name="edblgrave">
          -14 callgsubr
          -8 callsubr
          vstemhm
          -104 callsubr
          101 164 -81 callsubr
        </CharString>
        <CharString name="edieresis">
          -14 callgsubr
          78 81 -8 callsubr
          hintmask 11101100
          -104 callsubr
          hintmask 00010000
          -81 226 -62 callgsubr
        </CharString>
        <CharString name="edotaccent">
          -14 callgsubr
          74 89 -8 callsubr
          hintmask 11101100
          -104 callsubr
          hintmask 00010000
          -1 226 -99 callsubr
        </CharString>
        <CharString name="edotbelow">
          -200 89 105 -13 callsubr
          -8 callsubr
          hintmask 01111100
          -104 callsubr
          hintmask 10000000
          -179 -485 -99 callsubr
        </CharString>
        <CharString name="egrave">
          -14 callgsubr
          72 -21 134 -20 -8 callsubr
          hintmask 11100110
          -104 callsubr
          hintmask 00011000
          54 195 -99 callgsubr
        </CharString>
        <CharString name="ehookabove">
          -14 callgsubr
          24 -21 230 -20 -8 callsubr
          hintmask 11100110
          -104 callsubr
          hintmask 00011000
          66 250 -107 callgsubr
        </CharString>
        <CharString name="eight">
          -34 callsubr
        </CharString>
        <CharString name="eight.taboldstyle">
          -34 callsubr
        </CharString>
        <CharString name="ellipsis">
          0 125 hstem
          40 127 48 127 48 127 cntrmask 01110000
          167 71 23 callsubr
          175 hmoveto
          -12 callsubr
          175 hmoveto
          -12 callsubr
          endchar
        </CharString>
        <CharString name="emacron">
          -14 callgsubr
          87 63 -8 callsubr
          hintmask 11101100
          -104 callsubr
          hintmask 00010000
          144 226 -86 callgsubr
        </CharString>
        <CharString name="emdash">
          -59 callsubr
        </CharString>
        <CharString name="emdash.alt">
          19 callgsubr
        </CharString>
        <CharString name="endash">
          -59 callsubr
        </CharString>
        <CharString name="eng">
          376 61 hstem
          416 69 vstem
          485 333 rmoveto
          64 -38 40 -61 -44 -40 -18 -37 -37 vhcurveto
          44 -15 -37 11 -24 hhcurveto
          -35 -26 -21 -33 -18 hvcurveto
          -16 -31 -14 -56 -9 vvcurveto
          -8 4 -20 30 29 3 12 28 7 vhcurveto
          15 3 16 61 17 hhcurveto
          12 1 -17 -8 -12 -1 -4 -2 -8 hvcurveto
          -70 -279 -3 callsubr
          5 18 49 12 vhcurveto
          19 76 24 86 32 63 rrcurveto
          39 21 35 51 50 hhcurveto
          20 12 -9 -33 -67 -40 -69 -17 -68 hvcurveto
          -123 -31 -42 -170 -38 hhcurveto
          60 callgsubr
          19 hhcurveto
          56 41 50 70 31 hvcurveto
          32 70 22 91 21 82 rrcurveto
          17 68 35 69 66 vvcurveto
          endchar
        </CharString>
        <CharString name="eogonek">
          -233 60 167 -13 callsubr
          hstem
          138 69 28 66 146 69 vstem
          -77 callsubr
          -20 -82 0 108 25 1 1 19 hvcurveto
          33 hlineto
          70 62 9 17 38 hvcurveto
          79 34 7 63 21 vvcurveto
          59 -51 45 -73 -125 -129 -127 -145 -58 20 -41 27 -26 vhcurveto
          -46 45 45 0 38 hhcurveto
          -43 -27 -35 -42 16 callgsubr
          40 callsubr
          52 43 68 37 hvcurveto
          8 2 7 3 7 2 rrcurveto
          16 5 70 27 33 vvcurveto
          -82 259 rmoveto
          -71 -105 -12 -86 vhcurveto
          -30 hlineto
          78 35 72 48 57 hhcurveto
          34 23 -17 -26 hvcurveto
          endchar
        </CharString>
        <CharString name="eogonekacute">
          -233 60 167 -13 callsubr
          13 callgsubr
          138 69 28 66 146 69 hintmask 1111001110000000
          -77 callsubr
          -20 -82 0 108 25 1 1 19 hvcurveto
          33 hlineto
          70 62 9 17 38 hvcurveto
          79 34 7 63 21 vvcurveto
          59 -51 45 -73 -125 -129 -127 -145 -58 20 -41 27 -26 vhcurveto
          -46 45 45 0 38 hhcurveto
          -43 -27 -35 -42 16 callgsubr
          40 callsubr
          52 43 68 37 hvcurveto
          8 2 7 3 7 2 rrcurveto
          16 5 70 27 33 vvcurveto
          -82 259 rmoveto
          -71 -105 -12 -86 vhcurveto
          -30 hlineto
          78 35 72 48 57 hhcurveto
          34 23 -17 -26 hvcurveto
          hintmask 0000110010000000
          69 256 -107 callsubr
        </CharString>
        <CharString name="equal">
          195 70 82 70 hstem
          96 486 vstem
          582 382 37 callsubr
          -37 -152 rmoveto
          35 -34 0 -11 vhcurveto
          -360 hlineto
          -13 -31 0 -35 -35 35 0 16 hvcurveto
          347 hlineto
          13 38 12 callgsubr
        </CharString>
        <CharString name="ereversed">
          -14 callgsubr
          hstem
          545 165 rmoveto
          145 72 -65 127 -125 hhcurveto
          -73 -74 -45 -59 -29 hvcurveto
          -11 -21 -24 -63 62 -34 rrcurveto
          -17 29 58 -9 70 hhcurveto
          33 hlineto
          19 0 -1 -25 -12 hvcurveto
          -108 -54 -82 0 -20 hhcurveto
          -110 -19 28 18 -11 hvcurveto
          3 -3 -4 6 -11 hhcurveto
          -16 -28 -19 -17 -9 hvcurveto
          -16 -33 56 -27 14 -5 rrcurveto
          -14 37 50 -1 35 hhcurveto
          38 45 0 46 68 hvcurveto
          40 26 41 41 29 58 rrcurveto
          -46 85 rmoveto
          -30 hlineto
          -86 -99 12 71 36 hvcurveto
          26 13 31 17 34 hhcurveto
          57 48 -48 -78 -4 hvcurveto
          endchar
        </CharString>
        <CharString name="estimated">
          -5 61 235 60 209 61 hstem
          131 70 278 70 vstem
          476 111 rmoveto
          21 -20 6 -16 -28 -2 -20 -21 -21 vhcurveto
          -25 -23 -31 -14 -34 -4 rrcurveto
          -6 hlineto
          -68 -24 83 64 31 6 27 4 30 hvcurveto
          284 hlineto
          49 1 109 19 2 hvcurveto
          1 11 1 12 12 vvcurveto
          64 -19 72 -70 23 vhcurveto
          5 -12 -14 3 -13 hhcurveto
          -5 hlineto
          -135 -102 -171 -132 -33 hvcurveto
          -9 -38 -6 -38 -40 vvcurveto
          -87 35 -120 118 71 76 34 60 38 vhcurveto
          4 7 3 8 7 vvcurveto
          -22 239 rmoveto
          -3 -6 1 0 hvcurveto
          -216 hlineto
          86 29 75 123 81 hhcurveto
          55 10 -63 -41 -47 -6 -59 -19 hvcurveto
          endchar
        </CharString>
        <CharString name="eth">
          -65 callgsubr
          179 -20 hstem
          -7 callsubr
          vstem
          509 251 rmoveto
          29 115 -30 102 -69 66 41 20 rcurveline
          14 7 10 14 14 vvcurveto
          16 -12 11 -17 -7 -7 -2 -3 -6 vhcurveto
          -73 -35 -37 20 -43 12 -48 4 rlinecurve
          -25 -18 -14 -17 -16 16 -13 20 -2 hvcurveto
          21 -1 19 -4 18 -7 -29 -14 rcurveline
          -15 -7 -10 -14 -14 vvcurveto
          -16 12 -11 18 7 6 2 3 6 vhcurveto
          71 34 24 -21 19 -27 12 -30 rlinecurve
          9 -19 -21 5 -22 hhcurveto
          -119 -118 -141 -139 -93 57 -70 84 58 59 34 51 45 hvcurveto
          33 38 22 45 12 45 rrcurveto
          -60 69 rmoveto
          -109 -91 -112 -76 -51 -23 48 52 112 92 109 75 55 19 -57 -43 vhcurveto
          endchar
        </CharString>
        <CharString name="etilde">
          -14 callgsubr
          58 65 -10 65 -8 callsubr
          hintmask 11100110
          -104 callsubr
          hintmask 00001000
          137 250 -89 callgsubr
        </CharString>
        <CharString name="eturned">
          -30 callsubr
        </CharString>
        <CharString name="exclam">
          0 100 105 -21 438 -20 hstem
          225 101 vstem
          453 557 rmoveto
          3 12 1 5 4 vvcurveto
          20 -16 24 -30 -4 -41 -1 -49 -11 vhcurveto
          -75 -341 rlineto
          -1 -3 -3 -16 0 vvcurveto
          -28 26 0 14 22 11 0 28 8 vhcurveto
          -31 -157 53 callgsubr
        </CharString>
        <CharString name="exclamdown">
          -212 -21 438 -20 104 100 hstem
          297 101 vstem
          14 callsubr
          -130 -528 rmoveto
          75 341 rlineto
          1 3 3 17 0 vvcurveto
          28 -25 0 -15 -24 -9 -1 -28 -8 vhcurveto
          -96 -343 rlineto
          -2 -6 -2 -7 -8 vvcurveto
          -20 15 -25 31 13 34 7 42 9 vhcurveto
          endchar
        </CharString>
        <CharString name="f">
          -44 callsubr
        </CharString>
        <CharString name="five">
          -11 61 58 82 138 61 161 61 hstem
          85 93 279 69 vstem
          526 232 -25 callsubr
        </CharString>
        <CharString name="five.taboldstyle">
          -192 61 278 61 161 61 hstem
          30 93 279 69 vstem
          471 51 -25 callsubr
        </CharString>
        <CharString name="florin">
          -44 callsubr
        </CharString>
        <CharString name="four">
          -201 -21 844 -20 hstem
          514 16 rmoveto
          14 -13 17 -18 -5 -7 -2 -3 -6 vhcurveto
          -7 -18 -20 -4 -18 hhcurveto
          -13 -1 1 3 3 12 45 6 24 hvcurveto
          6 27 12 46 7 vvcurveto
          17 -12 15 -21 -28 -4 -16 -55 -14 vhcurveto
          -15 -58 0 -2 -10 -42 -80 23 37 -9 -32 8 rrcurveto
          11 -44 -23 0 -15 hhcurveto
          35 32 61 57 57 83 rrcurveto
          121 177 29 158 3 vvcurveto
          20 -16 13 -17 -17 -14 -13 -15 -5 vhcurveto
          -97 -365 -216 -140 -50 -28 rrcurveto
          0 -18 -11 -19 vvcurveto
          -13 12 -18 19 8 4 3 5 8 vhcurveto
          10 17 39 0 28 hhcurveto
          29 13 0 -10 37 hvcurveto
          23 -5 32 -11 19 -6 -38 -155 rcurveline
          -4 -15 48 callsubr
          -20 16 -13 17 17 14 11 23 6 vhcurveto
          40 160 rlineto
          -1 6 6 -1 15 hhcurveto
          10 98 6 40 hvcurveto
          endchar
        </CharString>
        <CharString name="four.taboldstyle">
          -200 -21 192 61 410 -20 hstem
          473 10 rmoveto
          16 -12 16 -18 -8 -8 -3 -2 -8 vhcurveto
          -4 -13 -13 -1 -13 hhcurveto
          29 118 rlineto
          3 11 3 14 12 vvcurveto
          21 -14 12 -16 -24 -10 -15 -27 -7 vhcurveto
          -33 -134 rlineto
          0 -36 10 -24 5 vhcurveto
          -20 4 -30 3 0 vvcurveto
          101 85 77 100 38 129 rrcurveto
          3 9 4 10 10 vvcurveto
          18 -16 15 -18 vhcurveto
          -2 hlineto
          -38 -3 -7 -66 -14 -35 -48 -111 -79 -93 -103 -64 rrcurveto
          -15 -8 -22 -8 -21 vvcurveto
          -18 15 -13 17 vhcurveto
          29 27 3 30 hhcurveto
          41 36 -12 -9 39 hvcurveto
          -37 -148 rlineto
          -2 -8 -3 -8 -8 vvcurveto
          -17 14 -16 20 27 7 22 24 6 vhcurveto
          36 147 rlineto
          -1 6 7 0 6 hhcurveto
          35 55 8 31 hvcurveto
          endchar
        </CharString>
        <CharString name="fraction">
          526 0 callsubr
        </CharString>
        <CharString name="fraction.alt">
          -107 340 0 callsubr
        </CharString>
        <CharString name="g">
          8 callgsubr
          hstemhm
          68 69 0 69 hintmask 11110000
          417 -78 -87 callsubr
          hintmask 00101000
          -18 callgsubr
          endchar
        </CharString>
        <CharString name="gacute">
          8 callgsubr
          13 callgsubr
          68 69 0 69 hintmask 11100100
          417 -78 -29 callgsubr
          hintmask 00011000
          103 309 -107 callsubr
        </CharString>
        <CharString name="gbreve">
          8 callgsubr
          62 64 49 -20 hstemhm
          68 69 0 69 hintmask 11100100
          417 -78 -29 callgsubr
          hintmask 00011000
          172 304 -103 callgsubr
          endchar
        </CharString>
        <CharString name="gcaron">
          8 callgsubr
          hstemhm
          68 69 0 69 hintmask 11110000
          417 -78 -87 callsubr
          hintmask 00101000
          -18 callgsubr
          hintmask 00000000
          126 287 -74 callgsubr
        </CharString>
        <CharString name="gcedilla">
          -52 callgsubr
        </CharString>
        <CharString name="gcircumflex">
          8 callgsubr
          hstemhm
          68 69 0 69 hintmask 11110000
          417 -78 -87 callsubr
          hintmask 00101000
          -18 callgsubr
          hintmask 00000000
          116 263 -80 callgsubr
          endchar
        </CharString>
        <CharString name="gcommaaccent">
          -52 callgsubr
        </CharString>
        <CharString name="gdotaccent">
          8 callgsubr
          74 89 hstemhm
          68 69 0 69 hintmask 11101000
          417 -78 -87 callsubr
          hintmask 00100100
          -18 callgsubr
          hintmask 00010000
          33 279 -99 callsubr
        </CharString>
        <CharString name="germandbls">
          -54 callgsubr
        </CharString>
        <CharString name="germandbls.dup">
          -54 callgsubr
        </CharString>
        <CharString name="gnaborretni">
          144 86 callsubr
          hintmask 01001000
          14 callsubr
          48 -426 rmoveto
          24 -19 16 -22 -25 -24 -21 -28 -13 5 -8 0 vhcurveto
          -22 -28 -39 -19 -40 -8 44 194 rcurveline
          29 17 rlineto
          hintmask 10110000
          22 callsubr
          -6 -1 -5 -3 -5 hvcurveto
          7 -7 -11 0 -7 hhcurveto
          -19 -8 -1 -28 -7 hvcurveto
          -6 -21 -72 -40 rlineto
          -37 -21 -78 -43 -81 vvcurveto
          -48 34 -51 71 -16 vhcurveto
          -6 -22 -2 -6 -2 -7 -1 -8 rlinecurve
          -20 -1 11 -25 25 hhcurveto
          10 28 7 42 9 hvcurveto
          8 35 rlineto
          hintmask 00101000
          131 13 70 85 52 vvcurveto
          -223 64 rmoveto
          -41 -151 rlineto
          -34 8 -23 19 28 vvcurveto
          41 39 23 59 32 vhcurveto
          endchar
        </CharString>
        <CharString name="grave">
          509 56 callgsubr
          hstem
          501 528 -99 callgsubr
        </CharString>
        <CharString name="grave.cap">
          513 56 callgsubr
          hstem
          502 532 -99 callgsubr
        </CharString>
        <CharString name="grave.ts1">
          499 -21 133 42 callsubr
          452 519 rmoveto
          34 -124 59 -8 vhcurveto
          hintmask 11000000
          -6 -1 rlineto
          -17 -3 -13 -16 -17 vvcurveto
          -33 66 -27 34 -23 vhcurveto
          -6 10 9 -8 12 hhcurveto
          19 18 25 16 hvcurveto
          endchar
        </CharString>
        <CharString name="greater">
          77 -21 500 -20 hstem
          545 306 rmoveto
          17 -10 8 -8 6 vhcurveto
          -279 209 rlineto
          10 -14 -10 0 -3 hhcurveto
          -18 -17 -15 -20 -17 14 -11 6 -4 hvcurveto
          240 -178 -342 -185 rlineto
          -25 -13 0 -16 -6 vvcurveto
          -26 21 -9 14 8 6 3 5 10 vhcurveto
          383 207 rlineto
          18 10 6 12 13 vvcurveto
          endchar
        </CharString>
        <CharString name="guarani">
          -11 61 159 61 hstem
          55 callsubr
          vstem
          557 242 rmoveto
          28 -27 0 -13 vhcurveto
          -119 hlineto
          -15 -27 0 -33 -28 27 -59 callgsubr
          34 hlineto
          -31 -87 -56 -62 -58 -9 128 510 rcurveline
          70 -1 8 -72 -26 vvcurveto
          -10 -3 -22 0 vhcurveto
          -29 29 0 6 16 13 2 28 7 vhcurveto
          37 149 rlineto
          1 3 2 8 3 vvcurveto
          11 -8 17 -22 -16 -5 -7 -11 -9 vhcurveto
          -7 -9 -6 -10 -7 -9 -16 18 -30 22 -45 5 13 52 rcurveline
          58 callsubr
          -18 -17 -14 -17 -4 hvcurveto
          -15 -57 rlineto
          -138 -36 -125 -194 -181 vvcurveto
          -99 41 -79 68 -28 vhcurveto
          -15 -61 72 callsubr
          13 51 53 1 44 27 22 19 rlinecurve
          -36 -5 31 0 8 hhcurveto
          18 11 4 24 6 hvcurveto
          45 181 rlineto
          31 23 0 33 hvcurveto
          -211 299 rmoveto
          -120 -478 rlineto
          -38 25 -18 57 59 vvcurveto
          142 86 144 90 51 vhcurveto
          endchar
        </CharString>
        <CharString name="guillemotleft">
          502 -10 callgsubr
          -162 hmoveto
          4 17 -7 7 -5 6 -154 163 rcurveline
          223 163 9 6 9 7 4 17 rlinecurve
          21 4 -9 11 -11 hhcurveto
          -5 -3 -1 -8 -11 hvcurveto
          -255 -186 -7 -6 -10 -7 -4 -17 rlinecurve
          -2 -12 3 -10 4 -6 178 -188 rcurveline
          -8 9 2 -1 5 hhcurveto
          11 14 11 21 4 hvcurveto
          endchar
        </CharString>
        <CharString name="guillemotright">
          542 -10 callsubr
          -162 hmoveto
          4 17 -6 7 -5 6 -175 186 rcurveline
          8 -9 -2 1 -6 hhcurveto
          -11 -13 -11 -21 -4 hvcurveto
          -4 -17 7 -7 5 -6 153 -163 rcurveline
          -222 -163 -9 -6 -9 -7 -4 -17 rlinecurve
          -21 -4 8 -11 11 hhcurveto
          6 3 1 8 11 hvcurveto
          258 188 8 6 7 10 2 12 rlinecurve
          endchar
        </CharString>
        <CharString name="guilsinglleft">
          102 -21 450 -20 hstem
          429 -10 callgsubr
          endchar
        </CharString>
        <CharString name="guilsinglright">
          102 -21 450 -20 hstem
          477 -10 callsubr
          endchar
        </CharString>
        <CharString name="h">
          -6 73 callgsubr
          hintmask 10010000
          -50 callgsubr
          hintmask 11101000
          -75 callgsubr
          hintmask 10010000
          -16 callgsubr
          endchar
        </CharString>
        <CharString name="h_uni0303">
          45 callsubr
          52 65 -10 65 68 callsubr
          hintmask 10000100
          -50 callgsubr
          hintmask 11100010
          -75 callgsubr
          hintmask 10000100
          -16 callgsubr
          hintmask 00001000
          73 607 rmoveto
          13 -12 19 -19 -9 -5 -4 -7 -10 vhcurveto
          hintmask 00010000
          -10 -14 -46 -34 -23 hhcurveto
          -6 -5 4 8 -6 hvcurveto
          hintmask 00001010
          21 -15 -17 22 -36 hhcurveto
          -42 -54 -39 -23 -29 hvcurveto
          -9 -6 -8 -6 -14 vvcurveto
          hintmask 00010000
          -17 14 -15 16 10 4 3 10 14 vhcurveto
          hintmask 00001000
          24 31 32 18 16 hhcurveto
          7 4 -5 -9 7 hvcurveto
          hintmask 00010000
          -91 callsubr
        </CharString>
        <CharString name="hbar">
          -65 callgsubr
          22 62 29 61 68 callsubr
          hintmask 10001000
          -50 callgsubr
          hintmask 11110100
          9 25 47 129 56 vvcurveto
          73 -47 35 -62 -54 -41 -25 -14 -17 vhcurveto
          15 61 rlineto
          112 10 callsubr
          -111 hlineto
          11 45 -39 callsubr
          -7 -29 rlineto
          -25 10 callgsubr
          24 hlineto
          -103 -412 -3 callsubr
          6 23 25 6 vhcurveto
          148 38 49 186 114 hhcurveto
          35 6 -22 -24 -47 -45 -123 -12 -33 hvcurveto
          hintmask 10001000
          -16 callgsubr
          endchar
        </CharString>
        <CharString name="hbrevebelow">
          -211 64 49 -20 112 73 callgsubr
          hintmask 00100100
          -50 callgsubr
          hintmask 00111010
          -75 callgsubr
          hintmask 00100100
          -16 callgsubr
          hintmask 11000000
          -155 -270 -103 callgsubr
          endchar
        </CharString>
        <CharString name="hcircumflex">
          -6 73 callgsubr
          hintmask 10010000
          -50 callgsubr
          hintmask 11101000
          -75 callgsubr
          hintmask 10010000
          -16 callgsubr
          hintmask 00000000
          15 577 -102 callgsubr
          endchar
        </CharString>
        <CharString name="hdieresis">
          45 callsubr
          52 81 68 callsubr
          hintmask 10001000
          -50 callgsubr
          hintmask 11100100
          -75 callgsubr
          hintmask 10001000
          -16 callgsubr
          hintmask 00010000
          -164 563 -79 callsubr
        </CharString>
        <CharString name="hdotbelow">
          -200 89 105 73 callgsubr
          hintmask 01001000
          -50 callgsubr
          hintmask 01110100
          -75 callgsubr
          hintmask 01001000
          -16 callgsubr
          hintmask 10000000
          -295 -296 -99 callsubr
        </CharString>
        <CharString name="hungarumlaut">
          383 613 -64 callgsubr
        </CharString>
        <CharString name="hungarumlaut.cap">
          385 620 -39 callgsubr
        </CharString>
        <CharString name="hungarumlaut.ts1">
          501 -21 131 42 callsubr
          406 578 rmoveto
          12 callsubr
          147 hmoveto
          hintmask 00100000
          12 callsubr
          endchar
        </CharString>
        <CharString name="hyphen">
          -59 callsubr
        </CharString>
        <CharString name="hyphen.alt">
          271 70 hstem
          425 306 38 callgsubr
        </CharString>
        <CharString name="hyphen.dup">
          -59 callsubr
        </CharString>
        <CharString name="hyphendbl">
          180 70 112 70 hstem
          568 397 rmoveto
          35 -35 0 -11 vhcurveto
          -320 -38 callsubr
          320 hlineto
          12 34 0 35 hvcurveto
          -46 -182 rmoveto
          35 -35 0 -11 vhcurveto
          -320 -38 callsubr
          320 43 callgsubr
        </CharString>
        <CharString name="hyphendbl.alt">
          180 70 112 70 hstem
          448 397 rmoveto
          35 -35 0 -11 vhcurveto
          -80 -38 callsubr
          80 hlineto
          12 34 0 35 hvcurveto
          -46 -182 38 callgsubr
        </CharString>
        <CharString name="i">
          -65 callgsubr
          74 89 83 callgsubr
          hintmask 11011000
          -100 callgsubr
          hintmask 00100000
          -44 415 -99 callsubr
        </CharString>
        <CharString name="iacute">
          32 callsubr
          234 69 27 69 hintmask 11001100
          -100 callgsubr
          hintmask 00110000
          26 445 -107 callsubr
        </CharString>
        <CharString name="ibreve">
          -65 callgsubr
          62 64 49 -20 83 callgsubr
          hintmask 11001100
          -100 callgsubr
          hintmask 00110000
          95 440 -103 callgsubr
          endchar
        </CharString>
        <CharString name="icaron">
          -6 61 321 61 83 callgsubr
          vstemhm
          -100 callgsubr
          49 423 -74 callgsubr
        </CharString>
        <CharString name="icircumflex">
          -6 61 321 61 83 callgsubr
          vstemhm
          -100 callgsubr
          39 399 -80 callgsubr
          endchar
        </CharString>
        <CharString name="idblgrave">
          -6 61 321 61 83 callgsubr
          vstemhm
          -100 callgsubr
          58 353 -81 callsubr
        </CharString>
        <CharString name="idieresis">
          -65 callgsubr
          78 81 83 callgsubr
          hintmask 11011000
          -100 callgsubr
          hintmask 00101000
          -124 -32 callgsubr
          endchar
        </CharString>
        <CharString name="idieresisacute">
          -65 callgsubr
          78 66 callsubr
          234 69 27 69 hintmask 11000110
          -100 callgsubr
          hintmask 00111010
          -124 -32 callgsubr
          41 199 -107 callsubr
        </CharString>
        <CharString name="idotbelow">
          11 callgsubr
          74 89 83 callgsubr
          hintmask 01111100
          -100 callgsubr
          -44 415 -100 callsubr
          hintmask 10000000
          -178 -711 -99 callsubr
        </CharString>
        <CharString name="igrave">
          32 callsubr
          234 69 27 69 hintmask 11001100
          -100 callgsubr
          hintmask 00110000
          11 384 -99 callgsubr
        </CharString>
        <CharString name="ihookabove">
          -65 callgsubr
          24 -21 230 -20 83 callgsubr
          hintmask 11001100
          -100 callgsubr
          hintmask 00110000
          23 439 -107 callgsubr
        </CharString>
        <CharString name="imacron">
          -65 callgsubr
          87 63 83 callgsubr
          hintmask 11011000
          -100 callgsubr
          hintmask 00100000
          101 415 -86 callgsubr
        </CharString>
        <CharString name="imacron.alt">
          -65 callgsubr
          87 63 83 callgsubr
          hintmask 11011000
          -100 callgsubr
          hintmask 00100000
          35 415 29 callgsubr
        </CharString>
        <CharString name="infinity">
          369 65 -64 64 -64 65 hstem
          cntrmask 11100000
          299 240 rmoveto
          -7 -24 rlineto
          -75 -18 -41 -80 -64 hhcurveto
          -53 21 84 71 18 hvcurveto
          72 18 27 81 62 hhcurveto
          43 15 -46 -47 -12 hvcurveto
          170 -60 rmoveto
          -73 -18 -27 -81 -62 hhcurveto
          -44 -14 46 47 12 hvcurveto
          9 36 6 25 rlineto
          74 19 40 80 65 hhcurveto
          52 -20 -84 -70 -18 hvcurveto
          62 hmoveto
          107 27 -9 111 -94 hhcurveto
          -45 -36 -28 -41 -28 hvcurveto
          42 -13 -32 28 -48 hhcurveto
          -91 -52 -114 -105 -26 hvcurveto
          -108 -27 9 -111 94 hhcurveto
          45 36 28 41 28 hvcurveto
          -42 13 32 -28 48 hhcurveto
          91 51 114 106 27 hvcurveto
          endchar
        </CharString>
        <CharString name="interrobang">
          326 55 rmoveto
          25 -20 20 -25 -30 -26 -26 -29 -32 26 -13 19 31 25 28 27 vhcurveto
          236 447 rmoveto
          48 -34 51 -71 16 vhcurveto
          6 22 rlineto
          2 6 2 7 8 vvcurveto
          20 1 -11 25 -24 hhcurveto
          -11 -27 -7 -42 -10 hvcurveto
          -8 -35 rlineto
          -131 -13 -69 -85 -52 vvcurveto
          -24 19 -16 22 25 24 21 28 13 -5 8 0 vhcurveto
          21 28 40 19 40 8 -44 -194 rcurveline
          -29 -17 rlineto
          -28 -19 -20 -35 -33 vvcurveto
          -25 15 -49 62 84 51 58 35 18 -13 10 -22 -10 -15 0 -20 -8 vhcurveto
          -15 -40 -50 0 0 vvcurveto
          -9 -6 1 12 6 1 5 3 5 hvcurveto
          -7 6 11 0 8 hhcurveto
          19 7 1 28 8 hvcurveto
          6 21 72 40 rlineto
          37 21 78 43 81 vvcurveto
          -64 1 rmoveto
          -41 -39 -23 -60 -32 vhcurveto
          42 151 rlineto
          34 -8 23 -19 -28 vvcurveto
          endchar
        </CharString>
        <CharString name="iogonek">
          33 callsubr
          86 89 hstem
          22 callgsubr
          vstem
          449 571 -100 callsubr
          -19 -739 -41 callgsubr
          endchar
        </CharString>
        <CharString name="iogonekacute">
          33 callsubr
          72 56 callgsubr
          hstem
          22 callgsubr
          vstem
          430 -168 -41 callgsubr
          86 757 -107 callsubr
        </CharString>
        <CharString name="itilde">
          -65 callgsubr
          58 65 -10 65 83 callgsubr
          hintmask 11001100
          -100 callgsubr
          hintmask 00010000
          94 439 -103 callsubr
        </CharString>
        <CharString name="j">
          -228 61 543 61 74 89 hstemhm
          91 91 232 69 hintmask 11011000
          -76 callgsubr
          hintmask 00100000
          152 609 -99 callsubr
        </CharString>
        <CharString name="jacute">
          -228 61 543 61 13 callgsubr
          91 91 232 69 hintmask 11001100
          -76 callgsubr
          hintmask 00110000
          222 639 -107 callsubr
        </CharString>
        <CharString name="jcaron">
          -228 61 543 61 hstemhm
          91 91 232 69 vstemhm
          -76 callgsubr
          245 617 -74 callgsubr
        </CharString>
        <CharString name="jcircumflex">
          -228 61 543 61 hstemhm
          91 91 232 69 vstemhm
          -76 callgsubr
          235 593 -80 callgsubr
          endchar
        </CharString>
        <CharString name="k">
          -6 49 callsubr
          hintmask 10100000
          2 callsubr
          hintmask 11011000
          -61 callgsubr
          hintmask 10100000
          -16 -5 -1 -24 vvcurveto
          -62 50 -34 49 98 34 138 12 vhcurveto
          endchar
        </CharString>
        <CharString name="kcedilla">
          8 callsubr
          27 49 callsubr
          hintmask 00101000
          2 callsubr
          hintmask 00110110
          -61 callgsubr
          hintmask 11101000
          -16 -5 -1 -24 vvcurveto
          -62 50 -34 49 98 34 138 12 vhcurveto
          -253 -235 -97 callsubr
        </CharString>
        <CharString name="kcommaaccent">
          8 callsubr
          27 49 callsubr
          hintmask 00101000
          2 callsubr
          hintmask 00110110
          -61 callgsubr
          hintmask 00101000
          -16 -5 -1 -24 vvcurveto
          -62 50 -34 49 98 34 138 12 vhcurveto
          hintmask 11000000
          -253 -235 -97 callsubr
        </CharString>
        <CharString name="l">
          -6 61 495 61 hstem
          217 69 vstem
          -84 callsubr
          endchar
        </CharString>
        <CharString name="l_uni0303">
          -6 61 495 61 52 60 callsubr
          217 69 hintmask 11001000
          -84 callsubr
          hintmask 00010000
          147 607 -103 callsubr
        </CharString>
        <CharString name="lacute">
          -6 61 495 61 83 2 callgsubr
          217 69 hintmask 11001000
          -84 callsubr
          hintmask 00110000
          83 630 -107 callsubr
        </CharString>
        <CharString name="lcaron">
          -6 61 379 -21 104 94 -61 61 hstemhm
          217 69 hintmask 10011000
          -84 callsubr
          84 409 -20 callsubr
        </CharString>
        <CharString name="lcedilla">
          8 callsubr
          27 61 495 61 hstem
          217 69 vstem
          -84 callsubr
          -179 -235 -97 callsubr
        </CharString>
        <CharString name="lcommaaccent">
          8 callsubr
          27 61 495 61 hstemhm
          217 69 hintmask 00111000
          -84 callsubr
          hintmask 11000000
          -179 -235 -97 callsubr
        </CharString>
        <CharString name="ldot">
          -6 61 217 89 189 61 hstem
          217 69 vstem
          -84 callsubr
          134 176 -99 callsubr
        </CharString>
        <CharString name="ldotbelow">
          77 callsubr
          495 61 hstemhm
          217 69 hintmask 01110000
          -84 callsubr
          hintmask 10000000
          -211 -296 -99 callsubr
        </CharString>
        <CharString name="ldotbelowmacron">
          77 callsubr
          495 61 72 63 hstemhm
          217 69 hintmask 11101000
          -84 callsubr
          -211 -296 -100 callsubr
          hintmask 00010000
          293 870 -86 callgsubr
        </CharString>
</ttFont>
